$MeshFormat
2.2 0 8
$EndMeshFormat
$Nodes
1093
1 -1.000000000000013 -1.000000000000014 0
2 -1.000000000000014 -0.8685714285714287 0
3 -1.000000000000014 -0.7371428571428573 0
4 -1.000000000000014 -0.6057142857142859 0
5 -1.000000000000014 -0.4742857142857145 0
6 -1.000000000000014 -0.3428571428571432 0
7 -1.000000000000014 -0.2114285714285717 0
8 -0.9999999999999973 -0.08000000000000279 0
9 -0.9999999999999997 0.08 0
10 -1.000000000000014 0.2114285714285712 0
11 -1.000000000000014 0.3428571428571426 0
12 -1.000000000000014 0.4742857142857141 0
13 -1.000000000000014 0.6057142857142855 0
14 -1.000000000000014 0.737142857142857 0
15 -1.000000000000014 0.8685714285714284 0
16 -1.000000000000013 1.000000000000014 0
17 -0.374999999999999 0.5 0
18 -0.3850903212891824 0.5492012778144729 0
19 -0.4137322518172297 0.5904592484131634 0
20 -0.4549162488100165 0.6165866861122654 0
21 -0.5 0.625000000000001 0
22 -0.5492012778144729 0.6149096787108176 0
23 -0.5904592484131634 0.5862677481827703 0
24 -0.6165866861122654 0.5450837511899836 0
25 -0.625000000000001 0.5 0
26 -0.6149096787108176 0.450798722185527 0
27 -0.5862677481827703 0.4095407515868367 0
28 -0.5450837511899836 0.3834133138877346 0
29 -0.5 0.374999999999999 0
30 -0.450798722185527 0.3850903212891824 0
31 -0.4095407515868366 0.4137322518172297 0
32 -0.3834133138877346 0.4549162488100165 0
33 -0.374999999999999 -0.5 0
34 -0.3850903212891824 -0.450798722185527 0
35 -0.4137322518172297 -0.4095407515868366 0
36 -0.4549162488100165 -0.3834133138877346 0
37 -0.5 -0.374999999999999 0
38 -0.5492012778144729 -0.3850903212891824 0
39 -0.5904592484131634 -0.4137322518172297 0
40 -0.6165866861122654 -0.4549162488100165 0
41 -0.625000000000001 -0.5 0
42 -0.6149096787108176 -0.5492012778144729 0
43 -0.5862677481827703 -0.5904592484131632 0
44 -0.5450837511899836 -0.6165866861122654 0
45 -0.5 -0.625000000000001 0
46 -0.450798722185527 -0.6149096787108176 0
47 -0.4095407515868366 -0.5862677481827703 0
48 -0.3834133138877346 -0.5450837511899836 0
49 -0.8749999999999993 0.07000000000000016 0
50 -0.7499999999999989 0.06000000000000015 0
51 -0.6249999999999982 0.05000000000000014 0
52 -0.4999999999999978 0.04000000000000013 0
53 -0.3749999999999972 0.03000000000000012 0
54 -0.2499999999999966 0.02000000000000011 0
55 -0.1249999999999961 0.0100000000000001 0
56 4.88640012733244e-15 -3.552713678800489e-16 0
57 -0.8749999999999992 -0.07000000000000309 0
58 -0.7499999999999987 -0.06000000000000308 0
59 -0.6249999999999981 -0.05000000000000307 0
60 -0.4999999999999976 -0.04000000000000306 0
61 -0.374999999999997 -0.03000000000000305 0
62 -0.2499999999999965 -0.0200000000000026 0
63 -0.1249999999999959 -0.01000000000000258 0
64 1.000000000000014 -1.000000000000014 0
65 1.000000000000014 -0.8571428571428572 0
66 1.000000000000014 -0.7142857142857143 0
67 1.000000000000014 -0.5714285714285714 0
68 1.000000000000014 -0.4285714285714286 0
69 1.000000000000014 -0.2857142857142858 0
70 1.000000000000014 -0.1428571428571429 0
71 1.000000000000014 0.0 0
72 1.000000000000014 0.1428571428571428 0
73 1.000000000000014 0.2857142857142856 0
74 1.000000000000014 0.4285714285714284 0
75 1.000000000000014 0.5714285714285714 0
76 1.000000000000014 0.7142857142857142 0
77 1.000000000000014 0.857142857142857 0
78 1.000000000000014 1.000000000000012 0
79 -0.8571428571428572 -1.000000000000014 0
80 -0.7142857142857143 -1.000000000000014 0
81 -0.5714285714285714 -1.000000000000014 0
82 -0.4285714285714286 -1.000000000000014 0
83 -0.2857142857142858 -1.000000000000014 0
84 -0.1428571428571429 -1.000000000000014 0
85 0.0 -1.000000000000014 0
86 0.1428571428571428 -1.000000000000014 0
87 0.2857142857142856 -1.000000000000014 0
88 0.4285714285714284 -1.000000000000014 0
89 0.5714285714285714 -1.000000000000014 0
90 0.7142857142857142 -1.000000000000014 0
91 0.857142857142857 -1.000000000000014 0
92 -0.8571428571428572 1.000000000000014 0
93 -0.7142857142857143 1.000000000000014 0
94 -0.5714285714285714 1.000000000000014 0
95 -0.4285714285714286 1.000000000000014 0
96 -0.2857142857142858 1.000000000000014 0
97 -0.1428571428571429 1.000000000000014 0
98 0.0 1.000000000000014 0
99 0.1428571428571428 1.000000000000014 0
100 0.2857142857142856 1.000000000000014 0
101 0.4285714285714284 1.000000000000014 0
102 0.5714285714285714 1.000000000000014 0
103 0.7142857142857142 1.000000000000014 0
104 0.857142857142857 1.000000000000014 0
105 -0.7071751319408466 -0.5424879949723013 0
106 -0.6119924890445799 -0.6765308326497387 0
107 -0.4575120050276987 -0.7071751319408467 0
108 -0.6206045045936441 -0.3262722863697469 0
109 -0.462543639832708 -0.2992856031763825 0
110 -0.7071751319408467 0.4575120050276987 0
111 -0.6119924890445798 0.3234691673502613 0
112 -0.4575120050276987 0.2928248680591533 0
113 -0.6206045045936442 0.6737277136302531 0
114 -0.462543639832708 0.7007143968236175 0
115 -0.3234691673502613 -0.6119924890445797 0
116 -0.326272286369747 -0.3793954954063558 0
117 -0.3234691673502613 0.3880075109554203 0
118 -0.3262722863697469 0.6206045045936442 0
119 -0.6959814438674389 -0.4634268808626838 0
120 -0.5361743436401446 -0.6938445575542642 0
121 -0.6642573872037073 -0.6140300553987131 0
122 -0.5392849109870473 -0.3084433821287207 0
123 -0.3957270917564327 -0.3356373407530971 0
124 -0.695981443867439 0.5365731191373162 0
125 -0.5361743436401446 0.3061554424457358 0
126 -0.6642573872037073 0.3859699446012868 0
127 -0.5392849109870473 0.6915566178712793 0
128 -0.3957270917564327 0.6643626592469029 0
129 -0.3859699446012867 -0.6642573872037074 0
130 -0.306155442445736 -0.5361743436401446 0
131 -0.3859699446012867 0.3357426127962925 0
132 -0.306155442445736 0.4638256563598554 0
133 -0.6629916920787488 -0.3965968436476767 0
134 -0.6629916920787489 0.6034031563523236 0
135 -0.3106717103861973 -0.4611720801533147 0
136 -0.3106717103861973 0.5388279198466853 0
137 -0.8417318329151869 -0.4831141169258257 0
138 -0.6047758743230432 -0.8195923512248753 0
139 -0.8125405966573046 -0.6543403470405131 0
140 -0.5163270627920392 -0.1747068768273026 0
141 -0.3750512365588452 -0.3798196322904925 0
142 -0.2834285522676665 -0.2343922083765896 0
143 -0.8417318329151872 0.5168858830741743 0
144 -0.6034940161046602 0.1860210054228223 0
145 -0.8125405966573047 0.3456596529594866 0
146 -0.5171484911688178 0.8321766107655203 0
147 -0.2834285522676664 0.7656077916234105 0
148 -0.3456596529594868 -0.8125405966573049 0
149 -0.1804076487751252 -0.6047758743230426 0
150 -0.3719877551568152 0.3825251713863465 0
151 -0.4357388466933358 0.3376175992297389 0
152 -0.3456596529594869 0.1874594033426951 0
153 -0.3416327066436727 0.4320412528272201 0
154 -0.1804076487751252 0.3952241256769574 0
155 -0.7664641382071817 -0.2862937747986417 0
156 -0.7664641382071814 0.7137062252013584 0
157 -0.3435719526741678 -0.4250721235289139 0
158 -0.7660802283890393 -0.4938250773373422 0
159 -0.5117938032916486 -0.7887319575715519 0
160 -0.5882088035942443 -0.7470438624179795 0
161 -0.744083786715813 -0.6132734295226729 0
162 -0.5079405121535124 -0.2449853318927052 0
163 -0.3976103674908555 -0.1988723808485173 0
164 -0.6104819934743851 -0.2215823072841175 0
165 -0.4604054685926838 -0.2036732002270085 0
166 -0.5645126786647513 -0.25651227270274 0
167 -0.4251073388282652 -0.2522926783438058 0
168 -0.3526968236398356 -0.2557775719289083 0
169 -0.4359003435066477 -0.1111193146867596 0
170 -0.3336572870791951 -0.1945731968855876 0
171 -0.3904856344099206 -0.2869388274999574 0
172 -0.3357631899701743 -0.3174599726690607 0
173 -0.4690339815903206 -0.1518676579273463 0
174 -0.4932321935387683 -0.0983462789389642 0
175 -0.5624999999999978 -0.04500000000000306 0
176 -0.2423569183824638 -0.1309939623887371 0
177 -0.3698157315873579 -0.1345143175787727 0
178 -0.2212231422867224 -0.3316029801756051 0
179 -0.3082862819526927 -0.27675116237997 0
180 -0.2787161350450456 -0.3263372359347392 0
181 -0.2558146404413121 -0.2790702004311574 0
182 -0.1940653857872517 -0.2100325404623758 0
183 -0.2351458717736647 -0.2354229590028308 0
184 -0.1989491979702137 -0.2792809545142985 0
185 -0.2390196759390494 -0.1832269860657055 0
186 -0.1910881435308938 -0.1539414496094403 0
187 -0.2897737792982758 -0.1602466157486822 0
188 -0.2559769551148749 -0.3945598111057708 0
189 -0.1173336525200816 -0.3449275259851828 0
190 -0.1874999999999962 -0.01500000000000259 0
191 -0.2755518483302933 -0.1963738342435691 0
192 -0.3124999999999968 -0.0250000000000026 0
193 -0.3313706921974476 -0.1522825183068361 0
194 -0.1673992914617242 -0.3236141452461556 0
195 -0.09314273422439209 -0.1872648242353132 0
196 -0.202855409184355 -0.1114860853472574 0
197 -0.1380169967506791 -0.1163733929407048 0
198 -0.2379120762186083 -0.07166116671454524 0
199 -0.1695563233991237 -0.1022566464939618 0
200 -0.1341837267354226 -0.06551857411324366 0
201 -0.04594879709799811 -0.09774131379360626 0
202 -0.1963176220434227 -0.07038895051413227 0
203 -0.1649920384328827 -0.07125331416015535 0
204 -0.1558116445785434 -0.03495049669087273 0
205 -0.09461050248264272 -0.09407335350109067 0
206 -0.1231471330371067 -0.0919223555669124 0
207 -0.09806962362267305 -0.1407351288179125 0
208 -0.06249999999999566 -0.005000000000002581 0
209 -0.1105988912123412 -0.1163472086401787 0
210 -0.1417311097462435 -0.1673965409350891 0
211 -0.03994731574465397 -0.1581064270318995 0
212 -0.07203582393982717 -0.1192059580195379 0
213 -0.0689977166852234 -0.1493847996647755 0
214 -0.06241877715364941 -0.180213387827913 0
215 -0.04298542299925773 -0.1279275853866619 0
216 0.01203239153650528 -0.1376312801585939 0
217 -0.01138596085080584 -0.1095868865253419 0
218 -0.01684498793018532 -0.1405383690748295 0
219 0.00274716848347787 -0.190276452112301 0
220 -0.06528050419311048 -0.2382042062104621 0
221 0.05003818874855961 -0.08209480489594434 0
222 -0.01170409924501212 -0.05416889441636519 0
223 -0.03058513979697199 -0.1900974333391219 0
224 0.02320320924932298 -0.1045032411216528 0
225 -0.02121971953375597 -0.08193343001785518 0
226 0.009293603943470872 -0.07687823891433304 0
227 -0.05622170780781544 -0.05442445691444747 0
228 0.02905713088258263 -0.0842413541335959 0
229 0.03222813946065627 -0.04552451535404184 0
230 -0.04352313906950159 -0.07428947463214661 0
231 -0.03396353129557918 -0.05418732166322308 0
232 -0.07141185673495479 -0.07812589254619622 0
233 0.01923743233474728 -0.0329729323158012 0
234 -0.02284488450528903 -0.04080688193710711 0
235 0.001195305950674866 -0.03208840761962206 0
236 -0.04585244979389572 -0.0321273556308402 0
237 0.01078372738218929 -0.05249811204200904 0
238 -0.03124999999999552 -0.002500000000002578 0
239 0.01456489255554205 -0.01552391857837932 0
240 0.04783345020490691 -0.01596530141530949 0
241 0.03113692497248322 -0.02043633797342102 0
242 0.03155927317994426 0.01139751353233372 0
243 0.02685870181150887 -0.004459850188378425 0
244 0.01507149048746765 0.007659585874806672 0
245 0.01144302143206812 -0.003858413300747022 0
246 0.002122387295522258 -0.01260324367735946 0
247 -0.01562499999999545 -0.001250000000002577 0
248 -0.007246449626795792 -0.007700629664997917 0
249 -0.02211934167376407 -0.01835197907789529 0
250 -0.00854849744832449 -0.02159200235900155 0
251 0.01668906726557472 0.03875683999199701 0
252 -0.03860044928143955 -0.01728941656807295 0
253 -0.0624999999999958 0.005000000000000094 0
254 0.02026579683837727 0.02298009272740757 0
255 0.003073606347370064 0.01260978248638302 0
256 -0.03124999999999566 0.002500000000000092 0
257 -0.007187977043572522 0.008431536955288064 0
258 -0.01562499999999559 0.00125000000000009 0
259 -0.007190842377329264 0.02145135925185697 0
260 -0.0200017187174275 0.01493862843824504 0
261 0.006286746183412046 0.02671895170610306 0
262 -0.02514155563627746 0.04090514350564713 0
263 -0.006654608900713404 0.03995494101423026 0
264 0.04644525267754603 0.03720902119275307 0
265 -0.04249873618436661 0.02397749686549343 0
266 -0.01421363538015846 0.07320229889456237 0
267 -0.09374999999999581 -0.007500000000002583 0
268 0.02655851379654438 -0.06454843470914413 0
269 0.04785185473676434 -0.06053759931257397 0
270 0.0871600003331762 -0.06744043503744963 0
271 0.05424450365763606 -0.03824880694909277 0
272 -0.02830564538805004 0.02678689088229309 0
273 -0.04687499999999573 0.003750000000000093 0
274 -0.06382819363429448 0.06321081303433737 0
275 0.006094042901402395 0.06033641742081701 0
276 0.09054148497211167 -0.01574202500477921 0
277 -0.04763055154941653 0.04660216068607444 0
278 0.03271319636103547 0.06001501297226632 0
279 0.0692189553431885 -0.021876601855409 0
280 -0.03196372721145146 0.06121080147210887 0
281 -0.04434629817453312 0.09867256634620003 0
282 -0.09374999999999595 0.007500000000000097 0
283 0.01874786234910596 0.1027692695447001 0
284 0.07784028509025497 -0.04479601528028244 0
285 0.070822575472024 0.01267319985159924 0
286 0.006436821857283805 0.08333735964180139 0
287 0.1138274676780972 -0.04322490525312084 0
288 0.06257974261232822 -0.004256327849409733 0
289 0.05120000709116836 0.01175580571639337 0
290 -0.01336932594504291 0.1095012678914195 0
291 0.04227588943940339 -0.001225392743461538 0
292 -0.1005430936398187 -0.06059608587532234 0
293 -0.06068640252336841 -0.02255885192532467 0
294 -0.07739210051402613 -0.01541124357462252 0
295 -0.09653534214007822 -0.03412624023892619 0
296 -0.07621705475622727 -0.03576131853022161 0
297 0.03187887068761587 0.04397544203258769 0
298 -0.06136329074217042 0.02383084747880809 0
299 0.08000795653740801 0.07295516471867662 0
300 0.05818547287574112 0.0598153031636385 0
301 0.07204521164933127 0.03826577267722504 0
302 0.05241159252837951 0.09409563291312914 0
303 0.1164930766519751 0.02331687004474978 0
304 0.09214648649777454 0.02447998178499627 0
305 0.1057406974842658 0.05364144723644782 0
306 -0.01417843519909402 -0.2384950166508891 0
307 0.07634467469238404 -0.1408700387916282 0
308 -0.04696585630789078 0.07702935725629165 0
309 -0.07259977029509729 0.09111205723255632 0
310 -0.1066149376915614 0.06508896536782269 0
311 -0.071875731202838 0.1449779236753619 0
312 -0.06464126895267687 0.1179428821960331 0
313 -0.03683467449103204 0.126905816040278 0
314 -0.1161841705609113 0.1186356971112533 0
315 0.005751462319763902 0.1598011316365471 0
316 -0.01090251490206184 0.1373477259609314 0
317 0.01874022157784037 0.1327642668747578 0
318 -0.03724379294813443 0.1742883241234308 0
319 0.06017474460877618 0.1693081862579029 0
320 -0.02449297190102134 0.0916006987278366 0
321 -0.07884889805851539 -0.05751463670758058 0
322 0.03169082688507264 0.08333902450450421 0
323 0.1247790050008312 -0.01033933615707436 0
324 0.1648739968969147 0.05754016068476358 0
325 0.1434211880621101 -0.1026067330894891 0
326 0.05490260200610401 -0.1151923174566012 0
327 0.09968489420725996 0.1272231816314232 0
328 -0.08919628632418164 0.03874871246049751 0
329 0.15815723371103 0.01572622864529274 0
330 0.1358571667274305 0.04725147773775989 0
331 0.1352140925478539 0.09512706023230352 0
332 0.1202499527049253 -0.07708929994916218 0
333 0.04383737123162704 -0.1462237084115054 0
334 0.0923472448995991 -0.1057157434087056 0
335 0.08127848523739216 0.1031958063926472 0
336 0.106425784977952 0.08699225828854933 0
337 0.06528195020906608 0.1345140042552785 0
338 -0.06893695558602843 0.04312391586055166 0
339 -0.118356106188646 0.03839504969015933 0
340 -0.1598064704820532 0.07255586028038086 0
341 -0.1874999999999964 0.0150000000000001 0
342 -0.1546961501952247 0.03192312255964426 0
343 0.1776002783230388 -0.04619617521707682 0
344 0.02132045626447457 -0.1664108708616573 0
345 0.05434090421926988 -0.2112689769765612 0
346 0.05223226646259275 -0.1782387891531945 0
347 0.1461328989939032 -0.03571692280805935 0
348 0.1535144399788067 -0.07016240837419063 0
349 0.1118399964325963 -0.1910158500246062 0
350 0.1707305766785202 -0.01433952877973304 0
351 0.2080428790599083 -0.1008768387063271 0
352 0.2177421989769379 0.02298241845121951 0
353 0.1851101894159248 -0.0778297018474637 0
354 0.2147486640799613 -0.02151631163723633 0
355 0.1759498244630084 -0.1098775521667118 0
356 0.2103133209725133 -0.05513818624477435 0
357 0.1489177865270842 -0.1544154277039594 0
358 0.2721333010597322 -0.04618988870835376 0
359 0.2071086055946176 -0.1592616335407252 0
360 -0.1247503282452728 -0.03856016021041977 0
361 -0.1014905083012945 0.09363315765460789 0
362 -0.1336957201763397 0.09152548529427458 0
363 -0.172998872123462 0.1361237378226838 0
364 -0.1634037150817811 0.1049621799851382 0
365 -0.2234421392216618 0.1035333924504872 0
366 -0.1929714676490015 0.08527721400260847 0
367 -0.2291954038659215 0.05937405326828454 0
368 -0.1873410972886646 0.05036397037670562 0
369 0.07409897533885677 -0.08869967850570303 0
370 0.04254277963466498 0.1194964727323623 0
371 0.186330949949422 0.03264699394047955 0
372 0.2188125428186007 0.08233899650486909 0
373 0.1146051086249314 -0.1370671439552222 0
374 0.09788889612274042 -0.1632555785987142 0
375 -0.1267553541905656 -0.1428399125375136 0
376 -0.1581205325956052 -0.1405567563368187 0
377 -0.1725114091324207 -0.1830520380481651 0
378 -0.1354594096936408 -0.2347515438462374 0
379 -0.03962585389135656 -0.2201419363719342 0
380 -0.04017423656382348 -0.3165053582710147 0
381 0.009935630435352852 0.2432634545234793 0
382 0.01941581000340587 -0.2232073335804368 0
383 0.02971953212790171 -0.2904045043360499 0
384 0.04911697038383081 -0.253041636092146 0
385 0.105652309492173 -0.3061093771403066 0
386 0.09596269672857528 -0.2376870164477715 0
387 0.06990071448642374 -0.2875484531730158 0
388 0.05487311413065608 -0.3602066304378753 0
389 0.2454417766767881 -0.07980762172591699 0
390 0.2495010739967357 -0.130740125265355 0
391 0.3061431493998525 -0.1005977638270509 0
392 0.2571293662746911 -0.002017305651464713 0
393 0.179221034215161 -0.1423354133657238 0
394 0.1761865627779386 -0.1787718307026421 0
395 0.2262337815464091 -0.2238329836828751 0
396 -0.1264457603496238 0.1863312039387485 0
397 -0.3046010978356992 0.09165267394122523 0
398 -0.2187499999999965 0.01750000000000011 0
399 0.1785585341638184 0.09883445622064671 0
400 0.1523662279066907 0.1498266318438793 0
401 0.155006373650582 0.1189597799042591 0
402 0.1913194019504253 0.1376120916899108 0
403 0.1934958250402658 0.2127725934743582 0
404 0.1818080367817347 0.1754992745870351 0
405 0.2537272428417483 0.1734167097164478 0
406 0.1215766189802523 0.2148551583449455 0
407 0.1461421293176539 0.1866830271192067 0
408 0.1038452473046229 0.1745974006668038 0
409 0.0773662840903147 0.2102936917323174 0
410 -0.1266926281332778 -0.1999657396377605 0
411 -0.09981690955063438 -0.2252366192615932 0
412 -0.1027877948780774 -0.2856229121142844 0
413 -0.03992808485988728 -0.2732508542749708 0
414 -0.003085290283944886 -0.2736301488180951 0
415 -0.002026965248855928 -0.3120250381322204 0
416 -0.01315822927006649 -0.3818897866924651 0
417 0.03262619981190661 -0.3287902497802387 0
418 -0.003926802051904293 0.2021223691155754 0
419 0.02897589632225044 0.187379488347853 0
420 -0.069927380793169 0.2472671804400224 0
421 -0.04329367865245297 0.2153869843705838 0
422 -0.08672499199919763 0.2061685289055023 0
423 0.2712805196658503 -0.1033762995284421 0
424 0.2919125701857777 -0.1421470562145976 0
425 0.2583451944225287 -0.1824046934323198 0
426 0.3726832931420232 -0.1465993012286533 0
427 0.2636872539530719 0.05184185655582739 0
428 0.1527827900997425 -0.2309806582630912 0
429 -0.1075620281732585 0.1545681826939688 0
430 -0.08302852971284576 0.1746685034105555 0
431 -0.1430000429127463 0.1549944787457703 0
432 -0.1902742706486188 0.2000090175562612 0
433 -0.3124999999999969 0.02500000000000011 0
434 0.1214533342690176 0.1491812889669951 0
435 0.09138522958648877 0.2909471526523504 0
436 -0.132951874480201 0.249044160671547 0
437 0.3288423475427263 -0.2070629064482473 0
438 0.3429371376953981 0.002494240112421959 0
439 -0.1439677407346622 0.126212555364642 0
440 -0.2640447832603038 0.09775127492960782 0
441 -0.253298249839858 0.1677370751828845 0
442 -0.2907849959847577 0.1376752979232079 0
443 -0.2783561136227787 0.05502197073337867 0
444 0.09574998300697961 0.248643387916315 0
445 0.1591735616183459 0.270357691820179 0
446 0.05161943489850487 0.2654672057317755 0
447 -0.1179030028180486 0.2189114312723239 0
448 -0.15644616445202 0.218486440457911 0
449 -0.1988694275564735 0.2754141953994567 0
450 0.2982140342146841 -0.1815245943780019 0
451 0.2793812452972217 -0.2318689686297568 0
452 0.3366320141204729 -0.1665851400954903 0
453 0.3760367570640354 -0.1951567276723285 0
454 0.3006694967450706 -0.01186265016767548 0
455 -0.2979069602368446 0.1849600125947184 0
456 -0.3479847255836295 0.1297616682173151 0
457 0.02633341541366852 0.3487009631270445 0
458 0.04452259998653401 0.2285612804826644 0
459 0.3735459227583512 -0.2847724857894884 0
460 0.460438946825007 -0.164933248024799 0
461 0.3180401348117894 -0.05532751583967752 0
462 0.3082763164796969 0.03514018585933674 0
463 -0.2529062320380952 0.2351338663933558 0
464 0.007749083291708391 0.2975973665453127 0
465 0.3619115242602418 -0.09105526551062741 0
466 0.3834789829771435 0.08026128724518188 0
467 -0.3185121207669125 0.2487081116156557 0
468 0.3122793332778681 0.1136985493117499 0
469 0.3522408932431255 0.04709521352243939 0
470 0.2978046475908293 0.07505495030412285 0
471 0.26126646451833 0.1107736950897185 0
472 0.4266542374150381 0.00830173482490397 0
473 0.2848720088669898 0.1453898612667257 0
474 0.3547556246003092 0.1781298307096751 0
475 0.303245327548917 0.1971253625469477 0
476 0.2245578715286935 0.1196709216977427 0
477 -0.2837801818920453 -0.1169055682321958 0
478 -0.1846235930579284 -0.3928778070677529 0
479 -0.3315921350122285 -0.1022858055692143 0
480 -0.2956302518736784 -0.07016847775659871 0
481 -0.380826016209809 -0.0826747279062906 0
482 -0.2170546890267436 -0.03869138716566212 0
483 -0.1517343551262112 -0.279073216771798 0
484 -0.1745313850366146 -0.2455532120059929 0
485 -0.08189730673809195 -0.3221829624290047 0
486 -0.07066011385203119 -0.3786681060734197 0
487 0.231283973866752 0.05242616671027597 0
488 0.1462611423593168 -0.1967071384347234 0
489 0.1283460935834856 -0.2679983272917454 0
490 0.1845595793610241 -0.327283670957295 0
491 0.1798704251650413 -0.2754367879732381 0
492 0.1480920680732098 -0.3055685560286412 0
493 0.1277888134359382 -0.3777690894183028 0
494 0.2479116434883698 -0.2954184705178965 0
495 0.1905809986823176 -0.2384302415504927 0
496 0.2193578428699558 -0.2668121641668988 0
497 -0.2153492873851406 0.1463404569599685 0
498 -0.4491043567821036 0.1627322481331843 0
499 -0.3549319083842675 0.07810427524308344 0
500 -0.4097836817863978 0.1117769016667844 0
501 0.3249498211139076 -0.2610151226712258 0
502 0.05088465083673736 0.3108416746517942 0
503 0.1057231074860224 0.3732938864334713 0
504 0.06949650036535998 0.3498014227391301 0
505 0.04596414657712317 0.4257674353073712 0
506 -0.07355132962126157 0.3560940588955261 0
507 -0.02881025110725381 0.2689151652787957 0
508 -0.03855898768755443 0.3189822472247364 0
509 -0.02235702669032493 0.3693117718388259 0
510 -0.09490262555113256 0.3009092798332687 0
511 0.4266845812918356 -0.1073102070639676 0
512 0.2531188885096785 0.2382535867161245 0
513 -0.2662573943126881 -0.05104876001010904 0
514 -0.4374999999999973 -0.03500000000000306 0
515 -0.1252420742878197 -0.4050194687473349 0
516 0.3151767876380648 -0.3425868028785269 0
517 0.01609900103141376 0.3923413726640265 0
518 -0.04395414199935294 0.4489985006759591 0
519 0.0006899866592326009 0.4361636667739304 0
520 0.04175671703738931 0.5112241469553447 0
521 -0.00807846616280257 0.4897253771795606 0
522 -0.1367996138314434 0.3488423128055781 0
523 -0.100951796269965 0.2654576778301128 0
524 -0.1333537477855445 0.2892283726425483 0
525 0.3626743137930225 0.2789411433399729 0
526 -0.1753255493684755 -0.4986837863418183 0
527 -0.04762032254516665 -0.4822139249085979 0
528 -0.05819538041524764 0.4023687193603901 0
529 -0.1221422261070307 0.4473883807182759 0
530 -0.1099198772060398 0.3938479449410637 0
531 -0.02127226258684661 0.5888187940285717 0
532 -0.1733859458218937 0.3168209513385583 0
533 -0.2550194453235015 0.3385164967573248 0
534 -0.217462672425985 0.3154024586145823 0
535 -0.214378666927608 0.3624825171602508 0
536 -0.2610303241316859 0.2866807172287025 0
537 -0.2443475812403801 0.4275708292488513 0
538 -0.3201276092291826 0.3198000410995653 0
539 0.3444979640349765 0.2296522272218243 0
540 0.4409617900353918 0.2220750314041429 0
541 0.3024967589098864 0.2731369948882457 0
542 0.3937984578247843 0.239467526300156 0
543 0.4482122193756822 0.3143788560826621 0
544 -0.1642255603507147 -0.4443968012815613 0
545 -0.04453757686359611 -0.4271918083991899 0
546 -0.08454582900551579 0.5209196925126868 0
547 0.3222963823161084 0.3827172729561953 0
548 0.2298294621201789 0.3236092202237695 0
549 -0.2192940944560135 -0.4364025945228644 0
550 -0.1123985057598417 -0.48327210419261 0
551 0.0498967341536628 -0.460080133900576 0
552 0.3278502269365158 0.3251348743947797 0
553 0.2569889579418659 0.2851646376818022 0
554 0.2787621728549372 0.3293623242520383 0
555 0.207853152049648 0.2792680553864875 0
556 0.2455465520673765 0.4009021693417457 0
557 0.1746288588972819 0.3233511534982599 0
558 0.007521575716693502 -0.4297328413784831 0
559 0.05356298014843147 -0.4102020809643828 0
560 0.1105479086163303 -0.4394644807983274 0
561 0.3894228419093203 0.3353293569352739 0
562 0.215953047440956 0.2427214637263369 0
563 0.2306659259791338 0.2082947487793837 0
564 0.2020139687572501 0.3695098114352244 0
565 0.1331869312910612 0.3066870357302705 0
566 0.4559569891148335 0.4290714547426265 0
567 0.1681302699409644 0.4623772514200906 0
568 0.1536945306558032 0.3669739956913632 0
569 0.1755335021253488 0.4124632628514338 0
570 0.2167149080932432 0.4440772974360102 0
571 0.1199540116870376 0.4297257418299306 0
572 0.3024797507614708 0.4701354417627132 0
573 0.224863359088365 0.539354435002586 0
574 0.4359099783564345 0.3728173684637867 0
575 0.1091131349136343 0.4975881278537279 0
576 0.5456564600954807 0.3654065918253498 0
577 0.3830746753414687 0.4233451168940501 0
578 0.4918283306025664 0.3845890754888496 0
579 0.5527476470816055 0.4704202578754775 0
580 -0.5873952848170052 -0.1269339397874125 0
581 -0.4137922071545005 -0.1537029142669051 0
582 -0.2974441459212913 -0.4162722897326082 0
583 -0.2645567962746244 -0.4503592942361676 0
584 -0.277983164058697 -0.4968408419207451 0
585 -0.2358190978433098 -0.5567963130020229 0
586 -0.2288271278038629 -0.4858598437101764 0
587 0.1580237848451997 0.2306513499727829 0
588 -0.2307125569831313 0.2013052397410793 0
589 -0.2093596884791247 0.236025995444169 0
590 -0.2896592048563121 0.2228300470793899 0
591 -0.3957735053577082 0.2463122984900776 0
592 -0.2207907362822986 -0.372912600630615 0
593 -0.3412378478362135 -0.05890190204729562 0
594 0.09632864274031738 -0.3482385299817222 0
595 -0.3947382760265977 0.1640359304544685 0
596 -0.4754624187326705 0.1017435902042557 0
597 0.5457115194208328 -0.07628454914953575 0
598 0.406763670879737 -0.0495094606427596 0
599 0.4772692932490937 -0.05754306438024076 0
600 0.3858632329851842 -0.009991059209870427 0
601 0.3614330267716833 -0.04684332607360134 0
602 0.2457553072037793 -0.3700399738114302 0
603 -0.1871137241806077 0.4613367694129138 0
604 -0.2901574002876976 0.4202864243640673 0
605 -0.1284027602426335 -0.5540992826709386 0
606 0.2795098351532341 0.3731903128830855 0
607 0.2911805333157241 0.4216188685067149 0
608 0.1167681871691798 -0.5572901080503164 0
609 0.06840972087739887 0.4697044662842081 0
610 0.1649518767332201 0.524114833158937 0
611 0.167892007936174 0.6379411647311908 0
612 0.1029152325744888 0.5826683756169977 0
613 0.1824744021358458 0.580613364323236 0
614 0.2768095803451209 0.6351278266505704 0
615 0.3693392431882569 0.3781176323730789 0
616 0.4093646149268598 0.5554085223566412 0
617 -0.2508413336977866 -0.6301324848272506 0
618 -0.182751572154115 -0.5514958268428627 0
619 -0.3582547753106471 0.2833693219439079 0
620 -0.3565667966297846 0.2289345379238835 0
621 -0.4374999999999974 0.03500000000000012 0
622 -0.5283486499070439 0.1607899865801775 0
623 0.4980980990186792 -0.115821315299338 0
624 0.5919925887378209 -0.1804583916543496 0
625 0.5541608451468996 -0.1348982994273825 0
626 0.5230895363137356 -0.1991862114809586 0
627 0.6538421919619284 -0.09061310066125376 0
628 0.5977561589512371 -0.09869804931824779 0
629 0.6114667918534512 0.00476948928591947 0
630 0.2266958257465264 -0.3321473048539512 0
631 0.2011220665925902 -0.3687502078327126 0
632 0.2713290663577154 -0.3334370708326688 0
633 0.221152287621022 -0.4485175136140883 0
634 0.3012787209442628 -0.2995503978454615 0
635 -0.143792285701059 0.5048351415511279 0
636 -0.1426825290208851 0.6179050406461007 0
637 -0.2233740167563618 0.5407713682157823 0
638 -0.1272916241237265 0.5612135866742735 0
639 -0.08182653635297882 0.603991626848059 0
640 -0.02465215255580214 0.7037512329358697 0
641 -0.03917065714466637 0.6458083614887009 0
642 0.04353217019640309 0.64047696765184 0
643 -0.1076102278714602 0.6937473368242524 0
644 -0.06456958747884463 -0.6716278994634678 0
645 0.09704158385598617 -0.4992545147479707 0
646 0.01817570687761996 -0.5462108518458586 0
647 0.1722502442076928 -0.5060610803943822 0
648 0.06864904567193868 -0.5412756725092462 0
649 0.05216108778841248 -0.633218567961369 0
650 0.08231723977574865 0.5384019833203898 0
651 0.04507480229038588 0.5826571112999117 0
652 0.4148440045254301 0.4856692574774674 0
653 -0.4035589158112448 0.06613855235940741 0
654 -0.562499999999998 0.04500000000000013 0
655 0.4537832279052366 -0.2515291319692172 0
656 0.5306674546755517 0.003119058613167643 0
657 0.1700740652125196 -0.4189451430125639 0
658 -0.2508391763984297 0.4873168177941152 0
659 -0.1130607517328996 -0.6218657211158208 0
660 0.4855368587890997 0.4937897112333519 0
661 0.3534051645146935 0.5159269186513141 0
662 0.4766350900315049 -0.209731795661126 0
663 0.426313702316985 -0.2025976344520338 0
664 0.5115556657012522 -0.255969494371742 0
665 0.5707527877899651 -0.2384306396934547 0
666 0.4747979092103798 -0.356163907908105 0
667 0.6841414914415826 -0.2470968234069247 0
668 0.4790467810383537 -0.3008829057887082 0
669 0.628669295893397 -0.2267729886163672 0
670 0.4214959946325105 -0.324263363612873 0
671 0.5698523874189192 -0.3356659662004413 0
672 0.6822919553962435 -0.1662797157345255 0
673 0.3692668926953565 -0.3388241890870934 0
674 0.6334204795674151 -0.2996702934401035 0
675 0.3488919164401829 -0.4365923306065718 0
676 0.4137986293427 -0.3976054889853577 0
677 0.3452915653226981 -0.384834860671371 0
678 0.2899868869363504 -0.4146859212756846 0
679 0.1519546816794725 -0.4629829194242627 0
680 -0.1758318026350163 -0.7279873161201219 0
681 -0.03917691792396856 -0.5983764073949904 0
682 0.5605698468917842 0.6012511709984986 0
683 0.3532877231259005 0.4648443162018973 0
684 0.3413602582179689 0.5923968341074456 0
685 0.2904298864666783 0.5347494941303303 0
686 -0.5884356381261753 0.113929523422786 0
687 0.6654468313004138 -0.4303568208985157 0
688 0.2906658596366488 -0.5030094661862802 0
689 -0.1278235717708407 -0.6847588688344883 0
690 0.5382082009254634 0.5369388471328682 0
691 0.2607923108988115 0.5818412142115156 0
692 0.2219897137850549 0.6225553738616869 0
693 0.2222156236494329 0.7261485780268851 0
694 -0.6841050761504173 0.1315646401955737 0
695 -0.5332978668665779 0.09533175985177597 0
696 0.7326257057984329 -0.3446263151315925 0
697 0.6310034714896464 -0.3695301019500318 0
698 0.5177627601865287 -0.4850195940000963 0
699 -0.07291899332333497 -0.7903252486494524 0
700 0.6633970325128185 0.5294539795942743 0
701 0.4805055442367442 0.5930460637433083 0
702 -0.640252390563882 0.1011447921885421 0
703 -0.6874999999999987 0.05500000000000015 0
704 0.5837457442368781 -0.4364551697578128 0
705 0.4781083467887136 -0.4266509073340914 0
706 -0.08548368980008955 -0.7297990916599807 0
707 0.02349773601406475 -0.7387427472413013 0
708 0.601858176830941 0.5508512798505332 0
709 0.4169422973992992 -0.4763621317918231 0
710 0.5315770505527065 -0.3888185003591746 0
711 0.6705591152299328 0.649244044343501 0
712 -0.7660802283890396 0.5061749226626578 0
713 -0.5875146642129592 0.2559958278180285 0
714 -0.7085661608967737 0.2502577154605213 0
715 -0.5161820607348553 0.2343383448038047 0
716 -0.6470761806926081 0.2327852894924702 0
717 -0.7440837867158131 0.3867265704773269 0
718 -0.5083856413223105 0.7587448059954467 0
719 -0.3970480740647933 0.7995756085569206 0
720 -0.6152503750959016 0.7832310505361657 0
721 -0.3252996370342247 0.6991482238734675 0
722 -0.3867265704773269 -0.7440837867158132 0
723 -0.699172326605716 -0.3268530153394821 0
724 -0.7644377745514768 0.6119231618142252 0
725 -0.6991723266057159 0.673146984660518 0
726 -0.7899790594676541 -0.3901032811510933 0
727 -0.7219426420656976 -0.7528840315225533 0
728 -0.8146738948019334 -0.5645231132455659 0
729 0.3620319020731424 0.127116070251877 0
730 0.4463019877508634 0.1373535173081363 0
731 0.400952668305635 0.1586932812839699 0
732 -0.08358062628231101 0.4740490532520681 0
733 -0.03348428781697094 0.5367677708398549 0
734 -0.09135496251719422 -0.439637915086886 0
735 -0.5359213493821497 -0.1271079248118955 0
736 -0.6818638382685751 -0.1254520216427941 0
737 -0.5720286370960457 -0.1808220336561522 0
738 -0.6270960163606745 -0.1673899526257828 0
739 -0.7024916584692246 -0.220147273681192 0
740 -0.4089805076842798 0.2930125828659665 0
741 -0.3059757788749382 -0.6964149963134354 0
742 -0.2681253207726215 0.5893208829450663 0
743 -0.2051445254267647 0.6024745761893109 0
744 -0.2680394594446081 0.659161258079119 0
745 -0.191397056985585 0.6809625434963709 0
746 0.1058315708964199 0.6450686465583466 0
747 0.1450541841960153 0.7128377568201193 0
748 0.069634627840289 0.7112532479593939 0
749 -0.08386533828067458 0.8458110670687378 0
750 0.5717650016186707 -0.03022141951376831 0
751 0.6222878737154286 -0.0475273589014369 0
752 0.7095852176771318 -0.00219614183942192 0
753 0.478152708333561 -0.004487623772606543 0
754 0.4936656869664949 0.07349249057171289 0
755 0.6322501890952639 -0.142212971385405 0
756 0.8264831605971383 -0.2034095523871983 0
757 -0.1977478574619018 -0.6671105479034685 0
758 -0.2421874338766007 -0.7174924500128627 0
759 -0.2934408215390888 -0.7655420286266511 0
760 -0.236757270178591 -0.8810303278698346 0
761 -0.2200393780197913 -0.792477473246501 0
762 -0.006794746406521307 -0.6506286421470748 0
763 0.01316289286738672 -0.5983101021836008 0
764 -0.03984032071370115 -0.5400365270286022 0
765 -0.08744590160374423 -0.5261322121132845 0
766 -0.0835662739854679 -0.5757873238148065 0
767 0.2690411628885069 -0.4590113202792032 0
768 0.2342106430063505 -0.503443456363194 0
769 0.2072379598524474 -0.599612073224773 0
770 0.2629004952451934 -0.5633570408047682 0
771 0.205020479714993 -0.547123269635051 0
772 0.2993393984840398 -0.6801588768425894 0
773 0.3722521723985505 -0.5771076605631202 0
774 0.2646478638957711 -0.6268967876110075 0
775 0.3197493339469017 -0.5529515871763839 0
776 0.3237349422691992 -0.6134240071019508 0
777 0.368870472467184 -0.5153226554263305 0
778 0.4123724212872669 -0.6812734985780295 0
779 0.4310485585275607 -0.5429044893025872 0
780 0.1875746402033787 -0.7150263528228755 0
781 0.3560300552700486 -0.6630562241733018 0
782 0.3550512121632705 -0.7623200297239223 0
783 0.4328204871191772 -0.6135885481667402 0
784 0.213682701613877 -0.6600922501924995 0
785 0.1343685433853106 -0.6379604699876316 0
786 0.5425831992785102 -0.6836798031579561 0
787 0.5159126054449333 -0.5761413316803625 0
788 0.4778171615296962 -0.6641135599161077 0
789 0.474876136115755 -0.7862739100885623 0
790 0.4618039843447785 0.5423423846031332 0
791 0.5059923039142511 0.7390805389269646 0
792 0.4107174203588584 0.6389041020615078 0
793 -0.6831667267674242 0.317054352439327 0
794 -0.7535507793896797 0.3055905137015762 0
795 -0.8540772181983775 0.2210524106238407 0
796 -0.815736060083154 0.2774982927399544 0
797 -0.9058460171996608 0.3158783084935483 0
798 -0.7760283911234916 0.2092819964158062 0
799 -0.4894710648759822 0.1921392361806594 0
800 -0.440950410926131 0.2163340989523486 0
801 -0.8146738948019336 0.4354768867544339 0
802 -0.4022737870816311 0.7319116277857225 0
803 -0.4311082803717258 -0.8172544952940597 0
804 -0.6946588133096212 0.7567368742171557 0
805 -0.7271567867036222 -0.4064800979592365 0
806 -0.6868722383807663 -0.6860443000193605 0
807 -0.9145806531522986 -0.5525280327511597 0
808 -0.6342528748334478 -0.1021801506777405 0
809 -0.6874999999999984 -0.05500000000000308 0
810 -0.6602899454274838 -0.2722389892370342 0
811 -0.2430991954090073 0.7171025754115944 0
812 -0.1631045989374606 0.7764906023158975 0
813 0.1600384899315193 0.8562791133255216 0
814 -0.0742928600670811 0.7664305577411176 0
815 0.7581320334118897 -0.09458303535323212 0
816 0.4389101874519657 0.08237666280000083 0
817 0.5697468347594044 0.06858100050623697 0
818 0.7491512897092261 -0.2051793272130988 0
819 -0.1464185392232744 -0.795546991852366 0
820 -0.1022730685222212 -0.8970355378581432 0
821 0.1561551270313657 -0.5909519843573591 0
822 0.09507086650784415 -0.6042791186182457 0
823 0.08954781763370023 -0.7000288394193188 0
824 0.6330537742976152 -0.5467130328861367 0
825 0.5138435660189522 0.6624690083492026 0
826 -0.826352908288334 0.1402369743575257 0
827 -0.7162075388250695 0.1868158359095561 0
828 -0.7527368231680118 0.1286395138514484 0
829 -0.4727884662547769 0.2494789236042159 0
830 -0.9084627075403329 0.449505391086897 0
831 -0.5071865495595388 -0.9040830437513866 0
832 -0.3832489104600463 -0.9079804775916822 0
833 -0.6914665619579372 0.8794177602286009 0
834 -0.1548019198972488 0.7220779002806956 0
835 0.1727752821357922 0.7824452600091524 0
836 0.01616029962476732 0.7870706978131862 0
837 0.7051532936270463 -0.1145024226876253 0
838 0.7143784667278941 -0.05862588559242358 0
839 0.7788879795728244 -0.02472787999757484 0
840 0.8812285572693748 -0.09314733324786098 0
841 0.784179154629784 0.109392667618799 0
842 0.8194578581443505 -0.07479350812450926 0
843 0.7626190974053951 0.04307858648615103 0
844 0.8066416415689797 -0.1399934503555319 0
845 0.879959011416495 0.01570302002705005 0
846 0.6731890298592623 0.1088159685234416 0
847 0.8280710923419804 0.05846065826166997 0
848 0.7044001247601827 0.05757632739927172 0
849 0.6439084655971888 0.05585511547835646 0
850 0.9111869383375542 0.106461962564847 0
851 0.5546806318201417 0.1867139396668046 0
852 0.7486850349140814 -0.2758267732130356 0
853 0.8626179786955788 -0.3386953044649726 0
854 0.7967854161846789 -0.3233285337219266 0
855 0.8024606520885063 -0.4477148914329375 0
856 0.8436408451949853 -0.2712954157848073 0
857 0.9211435142547318 -0.285845288444886 0
858 0.1201410824189541 -0.8279254503543272 0
859 0.6282753721793697 -0.4826955985781303 0
860 0.5737570749101203 -0.5189520165888725 0
861 0.7194470618712502 -0.5080773954824911 0
862 0.5938230859711608 0.6750741750735426 0
863 -0.9201361214171412 0.1532272053432161 0
864 -0.8124999999999991 0.06500000000000015 0
865 -0.78159482272262 0.8203809917160545 0
866 0.2972939396839127 0.841941005592439 0
867 0.09512662904009207 0.8070659054790313 0
868 0.4910767734107116 0.1827048378111849 0
869 0.5263961705306232 0.1289052362642295 0
870 0.5178657272483681 0.2642395645586511 0
871 0.593920074424832 0.1316911701196927 0
872 0.6630611793987341 0.2225022647566265 0
873 0.6144171945707579 0.1878118471998284 0
874 0.59650314399019 0.2643817519985932 0
875 0.9418177454659238 -0.367569988493638 0
876 1.000000000000014 -0.2142857142857144 0
877 0.9152640525225665 -0.1785714285714286 0
878 0.08538708802899096 -0.7686314060377266 0
879 0.01413674584094292 -0.8371465446416269 0
880 0.1512002692386418 -0.7698885471056296 0
881 0.2385540948568948 -0.8539663687750813 0
882 0.2257647706516651 -0.7798363669118462 0
883 0.677980796719611 0.7981909206918156 0
884 0.2266441703929423 0.8297534873969149 0
885 0.2478366443291629 0.9177713544317193 0
886 0.06615245137505138 0.9126983723102355 0
887 0.4666174718579214 0.2664964591618776 0
888 0.506416502082507 0.3217852751944277 0
889 0.7040229394308893 0.361431044031021 0
890 0.8783851288869072 -0.4185029517812937 0
891 0.2951440904449542 -0.8060349010025807 0
892 0.330337319798908 -0.9049576237140171 0
893 0.2794975080078026 -0.7425054932350347 0
894 0.3638670634622641 -0.837307300249437 0
895 0.6532645900628408 0.7247641317606269 0
896 0.04239452994059063 0.8493918251159395 0
897 -0.02250099462557692 0.9098573190974346 0
898 0.6639495045663824 0.2977433230891782 0
899 0.8817869523017118 -0.540617864489254 0
900 0.4221635548900813 -0.9083353627251456 0
901 0.7957881341819463 0.717662510194838 0
902 0.5851352341812096 0.7885704265705006 0
903 0.7968869819259177 0.2585480384597323 0
904 0.6249233387740866 0.3667505891398075 0
905 0.7255278746295012 0.7413128307404355 0
906 0.8025834984041672 0.85403972820892 0
907 0.7359457931743437 0.2968933069335701 0
908 0.8343919703828907 0.3857525887265474 0
909 0.772637422412071 0.3552064076621437 0
910 0.7561496372378229 0.4662364051493824 0
911 0.5860301659178607 0.3224188205762791 0
912 0.6697166004622249 0.4420590810013888 0
913 0.5844513799973408 0.4155331673648745 0
914 0.6175294100650107 0.4822113345111355 0
915 0.2498366360185126 0.4892316170477959 0
916 0.006062644723013787 -0.492843122454221 0
917 -0.8835801084930928 0.6604629012492697 0
918 -0.7754303447467569 -0.1546644238534824 0
919 0.4850684686085798 -0.5299354140977618 0
920 0.4202875193785756 -0.747665403696736 0
921 -1.000000000000014 0.2771428571428569 0
922 -0.9314374187801593 0.2442857142857141 0
923 -0.920565443078561 -0.4733132819308188 0
924 -0.872086379495676 -0.4053208740469005 0
925 -0.8448605142771523 -0.3231034860609954 0
926 -0.9494122110109775 -0.4014661740454835 0
927 -0.8429047681973082 -0.2253806356628959 0
928 -0.9231116986007613 -0.3276284710467523 0
929 -0.9119529957644252 -0.6519348088131991 0
930 -0.9326898754638463 0.5402329902668325 0
931 -1.000000000000014 0.4085714285714284 0
932 -0.9396428888489277 0.3757142857142855 0
933 -0.5438088312350641 -0.8477782268131538 0
934 -0.6114769365242914 -0.9141168552587821 0
935 -0.4444711253435029 -0.8822898773010184 0
936 -0.3571428571428572 -1.000000000000014 0
937 -0.3125416909556617 -0.8807064526293436 0
938 -0.2746531307671434 -0.8278243278206855 0
939 0.02043698290494954 0.7333205125632574 0
940 1.000000000000014 0.0714285714285714 0
941 0.9188650843078187 0.2142857142857142 0
942 0.7337672682277521 -0.4405077618189847 0
943 -1.000000000000014 0.1457142857142854 0
944 -0.9374999999999998 0.07500000000000016 0
945 -0.01384850601086065 -0.7848372075684943 0
946 -0.05092204080443377 -0.8537687462304423 0
947 -0.03146005395221531 -0.9289734137501431 0
948 -0.07142857142857145 -1.000000000000014 0
949 0.07142857142857138 -0.9258812444280263 0
950 0.3411842727405056 0.9246101505403511 0
951 0.2142857142857142 1.000000000000014 0
952 0.1785714285714285 0.937468810347007 0
953 0.2571506324076431 -0.9285925776396392 0
954 0.1669765957225169 -0.9114333746015606 0
955 0.2142857142857142 -1.000000000000014 0
956 0.357142857142857 -1.000000000000014 0
957 -0.07142857142857145 1.000000000000014 0
958 -0.1071428571428572 0.9252846514961925 0
959 -0.2142857142857144 0.9199633371057347 0
960 0.7993449840073128 -0.530693576851428 0
961 0.7257791166090883 -0.6381465148574247 0
962 0.7444894835563778 -0.5720469635182694 0
963 0.8304790053659274 -0.632085340262859 0
964 0.4999999999999999 -0.9489504492899968 0
965 0.6262110562671012 -0.8478520722453399 0
966 0.4934087977764003 -0.8666900565517075 0
967 0.5773630168099784 -0.9162002874006414 0
968 0.431683457709619 -0.8385716582422915 0
969 0.5531854401648656 -0.8105703770198353 0
970 0.6428571428571428 -1.000000000000014 0
971 0.6785714285714285 -0.9191080329943913 0
972 0.6353360142724963 -0.7398181333676116 0
973 0.5294689621472927 -0.748663770631271 0
974 0.5666679917004808 0.7300761634175712 0
975 0.6208167400939755 0.8970426831155256 0
976 0.4775522441230322 0.8725877295583178 0
977 -0.8135531749157614 0.6618570431467465 0
978 -0.8501846790752303 0.7424330446850633 0
979 -0.8472131623581611 0.5931754948282447 0
980 -0.7203402160757187 -0.1666649122052746 0
981 -0.7584356701254319 -0.2090978908988252 0
982 -0.8124999999999989 -0.06500000000000308 0
983 -0.8388779714850507 -0.1284003564368583 0
984 -0.9318569027067717 -0.1455387161653508 0
985 -0.8655105954186818 -0.7880188721706304 0
986 -0.9307342050386186 0.609578943918471 0
987 -0.9547504911523774 0.6791256031612039 0
988 -0.9254058644083244 0.748666809886059 0
989 -0.8801384854140408 0.8379423297652969 0
990 -0.8693390106561796 0.3892445542882292 0
991 -0.7053342898130406 -0.8599633099586471 0
992 -0.6428571428571428 -1.000000000000014 0
993 0.0714285714285714 -1.000000000000014 0
994 0.01906462540429825 -0.8968275139688476 0
995 0.07115680092695212 -0.8646560576990687 0
996 0.357142857142857 1.000000000000014 0
997 0.9231855359529253 -0.6239641965083251 0
998 0.7857142857142856 -0.9201338413148691 0
999 0.4751008031471627 -0.7238251570651418 0
1000 0.3893272072942968 0.8460647166049005 0
1001 0.5160595395639492 0.8110078726832997 0
1002 0.5507675366200167 0.8755412539856768 0
1003 0.4406221526085777 0.7848981972913867 0
1004 0.5112561883508179 0.9460447302967918 0
1005 0.3471375359067773 0.7585924491526805 0
1006 0.4366274411077605 0.7096566361082723 0
1007 -0.9219466203259086 -0.2239695259387094 0
1008 -0.8636570747148444 -0.711419407705276 0
1009 -0.8161882067741709 0.9115282751144507 0
1010 0.8860598994267184 -0.7333623260520022 0
1011 0.7330563835448812 -0.8242056175141035 0
1012 0.276708061514781 0.7730525038939721 0
1013 0.2992517798035762 0.7041067211121788 0
1014 0.3673107773132209 0.6925773449043604 0
1015 0.3319402779369519 0.6482882986851424 0
1016 0.783267968902995 -0.7238847096977719 0
1017 0.7072412945338434 -0.7127191277205271 0
1018 0.6454751731376027 -0.657774397615588 0
1019 -0.4352799790744297 0.8962536188916062 0
1020 -0.5 0.9525286965186929 0
1021 -0.5843099821575427 0.9031439382439529 0
1022 -0.4522782004136347 0.8336330448429183 0
1023 -0.3223069395728147 0.8850309675064773 0
1024 -0.6428571428571428 1.000000000000014 0
1025 -0.3816834478191929 0.8615501675270327 0
1026 -0.3302763765488261 0.8159135493234638 0
1027 -0.3747908581785033 0.9309345558524037 0
1028 -0.2519392791966177 0.8418992154259254 0
1029 -0.3462441781151341 0.7567442527518123 0
1030 -0.2246167844028182 0.7859775519009797 0
1031 -0.1847859062184946 0.8400738422778101 0
1032 -0.1666166730060585 -0.8646782404133279 0
1033 -0.1865181893075264 -0.9379192154945828 0
1034 -0.5 -1.000000000000014 0
1035 0.9339684608721266 -0.03809963590011162 0
1036 0.7283623533788813 0.1710254085125489 0
1037 0.8033829939984543 0.182875557485442 0
1038 0.725355839870313 0.2343689458261335 0
1039 0.8482362836702891 0.131902920839859 0
1040 0.8538503605170107 0.2253229287840045 0
1041 0.902106195395957 0.312570718465046 0
1042 0.8333979893670537 0.3169143937171889 0
1043 1.000000000000014 0.357142857142857 0
1044 0.9246448905673064 0.3928571428571427 0
1045 0.920005799017586 0.4999999999999999 0
1046 0.0714285714285714 1.000000000000014 0
1047 0.9554952056886568 -0.5 0
1048 0.768022199311313 0.5833077231024503 0
1049 1.000000000000014 0.2142857142857142 0
1050 -0.2142857142857144 1.000000000000014 0
1051 0.713921064648753 0.8849287941793567 0
1052 0.6428571428571428 1.000000000000014 0
1053 0.4187105947433398 0.923088293422993 0
1054 -0.9213649913613389 0.9264526303617036 0
1055 -0.6710948485556973 -0.7998250141757638 0
1056 -0.651500598102797 -0.7391237375951982 0
1057 -0.7823164071594338 -0.8170758478604792 0
1058 -0.7961445359712117 -0.7435828877312493 0
1059 -0.8557817278344599 -0.8937905529412651 0
1060 -0.7546616751604704 -0.6898340096329877 0
1061 -0.6841290698994967 -0.9316232313723363 0
1062 -0.7712159217629291 -0.9184260776454 0
1063 0.894613621502924 -0.8946136215029241 0
1064 -0.7444647990184848 0.9318385835440237 0
1065 0.9373270399673643 -0.6897618859712488 0
1066 1.000000000000014 -0.6428571428571428 0
1067 0.953392030859349 -0.7857142857142858 0
1068 0.6710484826712001 -0.7972368782811553 0
1069 0.5862273471260054 -0.6081755287516784 0
1070 -0.6289034666378 0.8507019992272339 0
1071 -0.2786247174427699 0.9344355925353719 0
1072 -0.6467929266030642 0.9314977069519854 0
1073 1.000000000000014 0.4999999999999999 0
1074 0.8407401140711941 0.4701974818289187 0
1075 0.852967647623579 0.5579885742602682 0
1076 0.7958017831356768 0.521352834673102 0
1077 0.8312517580426181 0.6402870859743072 0
1078 0.9214236701445212 0.6200661958980384 0
1079 0.8957301912405298 0.7166543745145808 0
1080 0.9494608091128591 0.7857142857142856 0
1081 0.9010088303628091 0.873590173377978 0
1082 0.8649358932686844 0.7960451799421152 0
1083 1.000000000000014 0.9285714285714285 0
1084 0.9375 1.000000000000014 0
1085 0.8399938086049996 0.9232330753091124 0
1086 0.6997484123444537 0.5873897186393168 0
1087 0.7472757030302212 0.6576416866150985 0
1088 -0.9218319738297421 -0.8465325768445805 0
1089 -0.9392815287512679 -0.9342857142857144 0
1090 0.9285714285714285 -1.000000000000014 0
1091 1.000000000000014 -0.9285714285714286 0
1092 0.7653448464256106 0.942302017817262 0
1093 0.8322881793250515 -0.8170672137215466 0
$EndNodes
$Elements
2033
1 2 2 1 1 126 110 717
2 2 2 1 1 79 1059 1089
3 2 2 1 1 991 1062 1061
4 2 2 1 1 127 114 718
5 2 2 1 1 40 119 41
6 2 2 1 1 138 1056 1055
7 2 2 1 1 243 244 245
8 2 2 1 1 1057 1059 1062
9 2 2 1 1 421 430 318
10 2 2 1 1 720 127 718
11 2 2 1 1 802 718 114
12 2 2 1 1 5 4 807
13 2 2 1 1 137 924 923
14 2 2 1 1 159 107 120
15 2 2 1 1 984 983 57
16 2 2 1 1 105 41 119
17 2 2 1 1 33 130 135
18 2 2 1 1 927 925 155
19 2 2 1 1 133 40 39
20 2 2 1 1 143 801 712
21 2 2 1 1 929 728 807
22 2 2 1 1 722 741 129
23 2 2 1 1 106 43 121
24 2 2 1 1 128 118 721
25 2 2 1 1 42 105 121
26 2 2 1 1 722 803 148
27 2 2 1 1 935 82 832
28 2 2 1 1 51 686 702
29 2 2 1 1 128 20 19
30 2 2 1 1 44 106 120
31 2 2 1 1 44 120 45
32 2 2 1 1 26 126 27
33 2 2 1 1 107 45 120
34 2 2 1 1 124 24 134
35 2 2 1 1 108 39 38
36 2 2 1 1 39 108 133
37 2 2 1 1 500 499 456
38 2 2 1 1 739 164 738
39 2 2 1 1 48 115 130
40 2 2 1 1 605 149 659
41 2 2 1 1 108 38 122
42 2 2 1 1 36 109 37
43 2 2 1 1 37 109 122
44 2 2 1 1 37 122 38
45 2 2 1 1 159 120 160
46 2 2 1 1 981 739 980
47 2 2 1 1 166 108 122
48 2 2 1 1 140 165 173
49 2 2 1 1 604 153 117
50 2 2 1 1 143 830 801
51 2 2 1 1 634 459 501
52 2 2 1 1 49 863 944
53 2 2 1 1 702 703 51
54 2 2 1 1 499 500 653
55 2 2 1 1 24 124 25
56 2 2 1 1 716 694 144
57 2 2 1 1 11 932 931
58 2 2 1 1 794 798 714
59 2 2 1 1 137 728 158
60 2 2 1 1 467 152 590
61 2 2 1 1 118 18 136
62 2 2 1 1 110 25 124
63 2 2 1 1 978 917 977
64 2 2 1 1 133 108 723
65 2 2 1 1 16 15 1054
66 2 2 1 1 113 23 22
67 2 2 1 1 979 724 977
68 2 2 1 1 987 986 917
69 2 2 1 1 134 24 23
70 2 2 1 1 134 113 725
71 2 2 1 1 110 124 712
72 2 2 1 1 805 158 119
73 2 2 1 1 111 27 126
74 2 2 1 1 456 455 152
75 2 2 1 1 27 111 28
76 2 2 1 1 28 111 125
77 2 2 1 1 25 110 26
78 2 2 1 1 26 110 126
79 2 2 1 1 28 125 29
80 2 2 1 1 112 29 125
81 2 2 1 1 29 112 151
82 2 2 1 1 804 833 865
83 2 2 1 1 467 538 619
84 2 2 1 1 125 111 713
85 2 2 1 1 122 109 162
86 2 2 1 1 17 132 136
87 2 2 1 1 20 114 21
88 2 2 1 1 21 114 127
89 2 2 1 1 639 643 636
90 2 2 1 1 132 17 153
91 2 2 1 1 113 22 127
92 2 2 1 1 21 127 22
93 2 2 1 1 1020 146 1019
94 2 2 1 1 804 156 725
95 2 2 1 1 122 162 166
96 2 2 1 1 23 113 134
97 2 2 1 1 186 176 185
98 2 2 1 1 144 715 713
99 2 2 1 1 123 36 35
100 2 2 1 1 618 586 585
101 2 2 1 1 120 106 160
102 2 2 1 1 617 149 585
103 2 2 1 1 46 129 47
104 2 2 1 1 46 107 129
105 2 2 1 1 5 807 923
106 2 2 1 1 168 163 167
107 2 2 1 1 115 47 129
108 2 2 1 1 367 440 443
109 2 2 1 1 740 151 112
110 2 2 1 1 644 689 706
111 2 2 1 1 339 282 328
112 2 2 1 1 115 48 47
113 2 2 1 1 172 168 171
114 2 2 1 1 621 53 653
115 2 2 1 1 48 130 33
116 2 2 1 1 141 34 157
117 2 2 1 1 121 43 42
118 2 2 1 1 109 36 123
119 2 2 1 1 121 105 161
120 2 2 1 1 140 162 165
121 2 2 1 1 187 176 477
122 2 2 1 1 43 106 44
123 2 2 1 1 33 135 34
124 2 2 1 1 45 107 46
125 2 2 1 1 157 135 582
126 2 2 1 1 123 35 141
127 2 2 1 1 287 270 332
128 2 2 1 1 30 150 31
129 2 2 1 1 153 150 117
130 2 2 1 1 354 350 343
131 2 2 1 1 687 704 859
132 2 2 1 1 374 357 373
133 2 2 1 1 129 107 722
134 2 2 1 1 1017 1011 1016
135 2 2 1 1 142 168 179
136 2 2 1 1 425 424 390
137 2 2 1 1 65 1063 1091
138 2 2 1 1 1030 1031 1028
139 2 2 1 1 732 733 546
140 2 2 1 1 1067 1065 1010
141 2 2 1 1 393 351 355
142 2 2 1 1 147 1026 1029
143 2 2 1 1 217 201 215
144 2 2 1 1 797 921 922
145 2 2 1 1 794 145 796
146 2 2 1 1 206 292 200
147 2 2 1 1 1070 1072 833
148 2 2 1 1 875 853 890
149 2 2 1 1 148 937 938
150 2 2 1 1 585 115 617
151 2 2 1 1 29 151 30
152 2 2 1 1 237 229 233
153 2 2 1 1 979 712 724
154 2 2 1 1 150 30 151
155 2 2 1 1 244 56 245
156 2 2 1 1 537 533 535
157 2 2 1 1 273 298 253
158 2 2 1 1 803 832 148
159 2 2 1 1 41 105 42
160 2 2 1 1 538 150 131
161 2 2 1 1 150 151 131
162 2 2 1 1 153 31 150
163 2 2 1 1 718 719 1022
164 2 2 1 1 19 118 128
165 2 2 1 1 119 40 133
166 2 2 1 1 18 118 19
167 2 2 1 1 504 505 517
168 2 2 1 1 114 20 128
169 2 2 1 1 723 726 805
170 2 2 1 1 153 17 32
171 2 2 1 1 1027 1019 1025
172 2 2 1 1 105 119 158
173 2 2 1 1 17 136 18
174 2 2 1 1 537 154 603
175 2 2 1 1 522 506 530
176 2 2 1 1 106 806 1056
177 2 2 1 1 239 241 243
178 2 2 1 1 794 717 145
179 2 2 1 1 12 830 930
180 2 2 1 1 277 274 338
181 2 2 1 1 475 512 405
182 2 2 1 1 193 479 177
183 2 2 1 1 188 116 582
184 2 2 1 1 902 1002 1001
185 2 2 1 1 724 134 725
186 2 2 1 1 286 290 320
187 2 2 1 1 81 831 934
188 2 2 1 1 506 509 528
189 2 2 1 1 457 502 504
190 2 2 1 1 728 929 139
191 2 2 1 1 975 883 1051
192 2 2 1 1 1006 1005 1014
193 2 2 1 1 735 175 580
194 2 2 1 1 1084 1081 1083
195 2 2 1 1 34 141 35
196 2 2 1 1 162 167 165
197 2 2 1 1 905 906 883
198 2 2 1 1 1058 139 1008
199 2 2 1 1 172 141 116
200 2 2 1 1 250 246 248
201 2 2 1 1 322 300 302
202 2 2 1 1 161 139 1060
203 2 2 1 1 622 144 686
204 2 2 1 1 644 659 689
205 2 2 1 1 31 153 32
206 2 2 1 1 592 180 188
207 2 2 1 1 723 108 810
208 2 2 1 1 928 6 926
209 2 2 1 1 127 720 113
210 2 2 1 1 988 14 987
211 2 2 1 1 141 157 116
212 2 2 1 1 34 135 157
213 2 2 1 1 119 133 805
214 2 2 1 1 105 728 161
215 2 2 1 1 934 831 933
216 2 2 1 1 107 803 722
217 2 2 1 1 106 121 806
218 2 2 1 1 138 159 160
219 2 2 1 1 728 105 158
220 2 2 1 1 1058 727 1060
221 2 2 1 1 163 165 167
222 2 2 1 1 162 737 166
223 2 2 1 1 163 168 170
224 2 2 1 1 174 173 169
225 2 2 1 1 173 735 140
226 2 2 1 1 580 59 808
227 2 2 1 1 167 162 109
228 2 2 1 1 165 581 173
229 2 2 1 1 737 162 140
230 2 2 1 1 810 166 164
231 2 2 1 1 109 123 171
232 2 2 1 1 168 142 170
233 2 2 1 1 168 167 171
234 2 2 1 1 123 172 171
235 2 2 1 1 177 163 170
236 2 2 1 1 174 514 60
237 2 2 1 1 183 191 142
238 2 2 1 1 177 169 581
239 2 2 1 1 109 171 167
240 2 2 1 1 141 172 123
241 2 2 1 1 181 142 179
242 2 2 1 1 168 172 179
243 2 2 1 1 581 165 163
244 2 2 1 1 514 174 169
245 2 2 1 1 59 580 175
246 2 2 1 1 735 173 174
247 2 2 1 1 142 181 183
248 2 2 1 1 175 174 60
249 2 2 1 1 176 186 196
250 2 2 1 1 170 142 191
251 2 2 1 1 481 177 479
252 2 2 1 1 184 178 194
253 2 2 1 1 182 185 183
254 2 2 1 1 180 179 172
255 2 2 1 1 179 180 181
256 2 2 1 1 116 180 172
257 2 2 1 1 188 180 116
258 2 2 1 1 178 181 180
259 2 2 1 1 181 184 183
260 2 2 1 1 484 183 184
261 2 2 1 1 204 202 203
262 2 2 1 1 181 178 184
263 2 2 1 1 186 185 182
264 2 2 1 1 592 194 178
265 2 2 1 1 483 189 412
266 2 2 1 1 176 187 185
267 2 2 1 1 191 183 185
268 2 2 1 1 411 195 410
269 2 2 1 1 199 202 196
270 2 2 1 1 479 477 480
271 2 2 1 1 177 170 193
272 2 2 1 1 586 583 584
273 2 2 1 1 478 189 194
274 2 2 1 1 349 345 386
275 2 2 1 1 377 378 410
276 2 2 1 1 209 375 207
277 2 2 1 1 198 202 482
278 2 2 1 1 185 187 191
279 2 2 1 1 170 191 187
280 2 2 1 1 192 61 593
281 2 2 1 1 193 477 479
282 2 2 1 1 170 187 193
283 2 2 1 1 477 193 187
284 2 2 1 1 194 592 478
285 2 2 1 1 412 220 411
286 2 2 1 1 213 215 212
287 2 2 1 1 292 205 232
288 2 2 1 1 196 376 199
289 2 2 1 1 198 196 202
290 2 2 1 1 232 212 201
291 2 2 1 1 190 202 204
292 2 2 1 1 477 198 480
293 2 2 1 1 198 176 196
294 2 2 1 1 376 196 186
295 2 2 1 1 206 199 197
296 2 2 1 1 292 206 205
297 2 2 1 1 202 199 203
298 2 2 1 1 214 211 213
299 2 2 1 1 217 215 218
300 2 2 1 1 199 206 203
301 2 2 1 1 202 190 482
302 2 2 1 1 200 204 203
303 2 2 1 1 204 200 360
304 2 2 1 1 63 190 204
305 2 2 1 1 212 209 207
306 2 2 1 1 201 225 230
307 2 2 1 1 203 206 200
308 2 2 1 1 206 197 209
309 2 2 1 1 376 210 375
310 2 2 1 1 213 195 214
311 2 2 1 1 205 206 209
312 2 2 1 1 227 230 231
313 2 2 1 1 375 209 197
314 2 2 1 1 376 377 210
315 2 2 1 1 375 195 207
316 2 2 1 1 218 219 344
317 2 2 1 1 326 334 369
318 2 2 1 1 209 212 205
319 2 2 1 1 212 207 213
320 2 2 1 1 207 195 213
321 2 2 1 1 215 213 211
322 2 2 1 1 195 210 410
323 2 2 1 1 195 220 214
324 2 2 1 1 215 211 218
325 2 2 1 1 201 212 215
326 2 2 1 1 214 223 211
327 2 2 1 1 287 348 347
328 2 2 1 1 217 216 224
329 2 2 1 1 231 222 234
330 2 2 1 1 223 218 211
331 2 2 1 1 216 217 218
332 2 2 1 1 379 219 223
333 2 2 1 1 334 325 332
334 2 2 1 1 485 413 412
335 2 2 1 1 219 218 223
336 2 2 1 1 307 326 333
337 2 2 1 1 240 279 288
338 2 2 1 1 201 217 225
339 2 2 1 1 217 226 225
340 2 2 1 1 214 220 379
341 2 2 1 1 219 379 306
342 2 2 1 1 224 333 326
343 2 2 1 1 225 226 222
344 2 2 1 1 226 217 224
345 2 2 1 1 225 231 230
346 2 2 1 1 226 224 228
347 2 2 1 1 237 226 268
348 2 2 1 1 296 236 293
349 2 2 1 1 232 201 230
350 2 2 1 1 224 221 228
351 2 2 1 1 268 221 269
352 2 2 1 1 241 271 240
353 2 2 1 1 235 237 233
354 2 2 1 1 231 225 222
355 2 2 1 1 232 230 227
356 2 2 1 1 235 222 237
357 2 2 1 1 236 231 234
358 2 2 1 1 294 295 296
359 2 2 1 1 212 232 205
360 2 2 1 1 234 252 236
361 2 2 1 1 231 236 227
362 2 2 1 1 235 234 222
363 2 2 1 1 246 56 248
364 2 2 1 1 239 235 233
365 2 2 1 1 245 246 239
366 2 2 1 1 252 234 249
367 2 2 1 1 208 267 294
368 2 2 1 1 222 226 237
369 2 2 1 1 268 226 228
370 2 2 1 1 268 269 229
371 2 2 1 1 271 241 229
372 2 2 1 1 239 233 241
373 2 2 1 1 313 318 311
374 2 2 1 1 458 444 446
375 2 2 1 1 229 241 233
376 2 2 1 1 241 291 243
377 2 2 1 1 240 271 279
378 2 2 1 1 56 244 255
379 2 2 1 1 291 241 240
380 2 2 1 1 244 243 242
381 2 2 1 1 244 242 254
382 2 2 1 1 261 259 255
383 2 2 1 1 246 245 56
384 2 2 1 1 239 243 245
385 2 2 1 1 249 248 247
386 2 2 1 1 235 239 246
387 2 2 1 1 249 247 238
388 2 2 1 1 56 247 248
389 2 2 1 1 248 249 250
390 2 2 1 1 249 238 252
391 2 2 1 1 234 235 250
392 2 2 1 1 234 250 249
393 2 2 1 1 235 246 250
394 2 2 1 1 254 264 297
395 2 2 1 1 275 322 286
396 2 2 1 1 238 208 252
397 2 2 1 1 252 208 293
398 2 2 1 1 255 254 261
399 2 2 1 1 258 56 257
400 2 2 1 1 264 254 242
401 2 2 1 1 272 256 260
402 2 2 1 1 254 255 244
403 2 2 1 1 263 272 259
404 2 2 1 1 255 259 257
405 2 2 1 1 56 255 257
406 2 2 1 1 257 260 258
407 2 2 1 1 260 257 259
408 2 2 1 1 261 263 259
409 2 2 1 1 260 256 258
410 2 2 1 1 256 272 265
411 2 2 1 1 254 251 261
412 2 2 1 1 272 263 262
413 2 2 1 1 263 266 262
414 2 2 1 1 265 262 277
415 2 2 1 1 251 263 261
416 2 2 1 1 308 320 281
417 2 2 1 1 291 288 289
418 2 2 1 1 317 319 315
419 2 2 1 1 277 262 280
420 2 2 1 1 256 265 273
421 2 2 1 1 251 275 263
422 2 2 1 1 266 263 275
423 2 2 1 1 295 63 360
424 2 2 1 1 360 292 295
425 2 2 1 1 221 268 228
426 2 2 1 1 229 237 268
427 2 2 1 1 369 269 221
428 2 2 1 1 269 271 229
429 2 2 1 1 221 224 326
430 2 2 1 1 301 305 299
431 2 2 1 1 269 270 284
432 2 2 1 1 284 276 279
433 2 2 1 1 259 272 260
434 2 2 1 1 262 265 272
435 2 2 1 1 277 308 274
436 2 2 1 1 298 273 265
437 2 2 1 1 309 274 308
438 2 2 1 1 278 251 297
439 2 2 1 1 251 278 275
440 2 2 1 1 287 276 284
441 2 2 1 1 305 301 304
442 2 2 1 1 262 266 280
443 2 2 1 1 274 310 328
444 2 2 1 1 264 242 289
445 2 2 1 1 290 281 320
446 2 2 1 1 271 284 279
447 2 2 1 1 276 285 288
448 2 2 1 1 280 320 308
449 2 2 1 1 308 277 280
450 2 2 1 1 266 275 286
451 2 2 1 1 310 309 361
452 2 2 1 1 310 274 309
453 2 2 1 1 298 282 253
454 2 2 1 1 301 300 264
455 2 2 1 1 302 283 322
456 2 2 1 1 269 284 271
457 2 2 1 1 270 287 284
458 2 2 1 1 276 287 323
459 2 2 1 1 278 264 300
460 2 2 1 1 322 275 278
461 2 2 1 1 283 290 286
462 2 2 1 1 219 306 382
463 2 2 1 1 323 350 329
464 2 2 1 1 276 288 279
465 2 2 1 1 289 288 285
466 2 2 1 1 301 289 285
467 2 2 1 1 291 242 243
468 2 2 1 1 318 313 316
469 2 2 1 1 313 311 312
470 2 2 1 1 288 291 240
471 2 2 1 1 289 242 291
472 2 2 1 1 227 296 321
473 2 2 1 1 294 293 208
474 2 2 1 1 252 293 236
475 2 2 1 1 295 294 267
476 2 2 1 1 296 293 294
477 2 2 1 1 63 295 267
478 2 2 1 1 292 232 321
479 2 2 1 1 321 295 292
480 2 2 1 1 236 296 227
481 2 2 1 1 254 297 251
482 2 2 1 1 264 278 297
483 2 2 1 1 277 298 265
484 2 2 1 1 282 298 328
485 2 2 1 1 301 285 304
486 2 2 1 1 331 399 401
487 2 2 1 1 289 301 264
488 2 2 1 1 299 302 300
489 2 2 1 1 276 303 304
490 2 2 1 1 301 299 300
491 2 2 1 1 336 330 331
492 2 2 1 1 316 317 315
493 2 2 1 1 303 276 323
494 2 2 1 1 324 372 399
495 2 2 1 1 276 304 285
496 2 2 1 1 303 305 304
497 2 2 1 1 329 303 323
498 2 2 1 1 327 337 335
499 2 2 1 1 414 384 382
500 2 2 1 1 393 394 359
501 2 2 1 1 346 349 374
502 2 2 1 1 343 348 353
503 2 2 1 1 320 280 266
504 2 2 1 1 309 308 281
505 2 2 1 1 313 312 281
506 2 2 1 1 340 339 310
507 2 2 1 1 312 314 361
508 2 2 1 1 282 339 55
509 2 2 1 1 398 368 367
510 2 2 1 1 309 281 312
511 2 2 1 1 281 290 313
512 2 2 1 1 314 312 311
513 2 2 1 1 290 317 316
514 2 2 1 1 313 290 316
515 2 2 1 1 430 421 422
516 2 2 1 1 363 366 364
517 2 2 1 1 302 299 335
518 2 2 1 1 318 315 418
519 2 2 1 1 317 290 283
520 2 2 1 1 315 318 316
521 2 2 1 1 283 302 370
522 2 2 1 1 370 335 337
523 2 2 1 1 418 315 419
524 2 2 1 1 439 429 431
525 2 2 1 1 330 336 305
526 2 2 1 1 400 402 404
527 2 2 1 1 286 320 266
528 2 2 1 1 232 227 321
529 2 2 1 1 295 321 296
530 2 2 1 1 286 322 283
531 2 2 1 1 300 322 278
532 2 2 1 1 329 324 330
533 2 2 1 1 324 329 371
534 2 2 1 1 692 693 611
535 2 2 1 1 305 303 330
536 2 2 1 1 344 346 333
537 2 2 1 1 471 427 470
538 2 2 1 1 333 224 216
539 2 2 1 1 307 334 326
540 2 2 1 1 336 327 335
541 2 2 1 1 331 324 399
542 2 2 1 1 328 298 338
543 2 2 1 1 328 310 339
544 2 2 1 1 323 287 347
545 2 2 1 1 350 323 347
546 2 2 1 1 303 329 330
547 2 2 1 1 331 330 324
548 2 2 1 1 372 324 371
549 2 2 1 1 400 404 407
550 2 2 1 1 334 270 369
551 2 2 1 1 332 325 348
552 2 2 1 1 333 216 344
553 2 2 1 1 219 346 344
554 2 2 1 1 334 307 373
555 2 2 1 1 334 332 270
556 2 2 1 1 335 299 336
557 2 2 1 1 408 337 327
558 2 2 1 1 305 336 299
559 2 2 1 1 331 327 336
560 2 2 1 1 319 317 337
561 2 2 1 1 337 317 370
562 2 2 1 1 298 277 338
563 2 2 1 1 274 328 338
564 2 2 1 1 362 310 361
565 2 2 1 1 341 55 342
566 2 2 1 1 362 364 340
567 2 2 1 1 339 342 55
568 2 2 1 1 339 340 342
569 2 2 1 1 364 366 340
570 2 2 1 1 342 340 368
571 2 2 1 1 353 355 351
572 2 2 1 1 427 462 470
573 2 2 1 1 218 344 216
574 2 2 1 1 219 345 346
575 2 2 1 1 379 413 306
576 2 2 1 1 423 424 391
577 2 2 1 1 349 346 345
578 2 2 1 1 346 307 333
579 2 2 1 1 348 287 332
580 2 2 1 1 347 343 350
581 2 2 1 1 348 355 353
582 2 2 1 1 347 348 343
583 2 2 1 1 414 382 306
584 2 2 1 1 389 390 423
585 2 2 1 1 356 343 353
586 2 2 1 1 350 352 371
587 2 2 1 1 845 840 1035
588 2 2 1 1 423 358 389
589 2 2 1 1 352 350 354
590 2 2 1 1 427 352 392
591 2 2 1 1 355 348 325
592 2 2 1 1 354 343 356
593 2 2 1 1 356 351 389
594 2 2 1 1 354 358 392
595 2 2 1 1 325 334 373
596 2 2 1 1 357 355 325
597 2 2 1 1 351 356 353
598 2 2 1 1 358 356 389
599 2 2 1 1 382 384 345
600 2 2 1 1 355 357 393
601 2 2 1 1 392 462 427
602 2 2 1 1 356 358 354
603 2 2 1 1 357 349 488
604 2 2 1 1 663 459 655
605 2 2 1 1 63 204 360
606 2 2 1 1 200 292 360
607 2 2 1 1 312 361 309
608 2 2 1 1 314 362 361
609 2 2 1 1 362 439 364
610 2 2 1 1 340 310 362
611 2 2 1 1 314 311 429
612 2 2 1 1 432 363 431
613 2 2 1 1 439 362 314
614 2 2 1 1 363 365 366
615 2 2 1 1 497 432 588
616 2 2 1 1 367 443 54
617 2 2 1 1 367 366 365
618 2 2 1 1 342 368 341
619 2 2 1 1 397 443 440
620 2 2 1 1 368 398 341
621 2 2 1 1 340 366 368
622 2 2 1 1 366 367 368
623 2 2 1 1 270 269 369
624 2 2 1 1 221 326 369
625 2 2 1 1 317 283 370
626 2 2 1 1 335 370 302
627 2 2 1 1 350 371 329
628 2 2 1 1 487 371 352
629 2 2 1 1 354 392 352
630 2 2 1 1 475 541 512
631 2 2 1 1 373 307 374
632 2 2 1 1 357 325 373
633 2 2 1 1 346 374 307
634 2 2 1 1 349 357 374
635 2 2 1 1 197 376 375
636 2 2 1 1 195 375 210
637 2 2 1 1 199 376 197
638 2 2 1 1 377 376 186
639 2 2 1 1 186 182 377
640 2 2 1 1 378 377 182
641 2 2 1 1 483 378 484
642 2 2 1 1 184 194 483
643 2 2 1 1 214 379 223
644 2 2 1 1 413 379 220
645 2 2 1 1 416 388 417
646 2 2 1 1 417 594 387
647 2 2 1 1 434 407 408
648 2 2 1 1 464 381 446
649 2 2 1 1 384 414 383
650 2 2 1 1 345 219 382
651 2 2 1 1 486 380 485
652 2 2 1 1 631 493 657
653 2 2 1 1 384 383 387
654 2 2 1 1 386 345 384
655 2 2 1 1 414 415 383
656 2 2 1 1 664 655 668
657 2 2 1 1 387 386 384
658 2 2 1 1 428 394 488
659 2 2 1 1 417 387 383
660 2 2 1 1 489 387 385
661 2 2 1 1 416 559 388
662 2 2 1 1 631 633 602
663 2 2 1 1 351 359 390
664 2 2 1 1 351 390 389
665 2 2 1 1 395 359 394
666 2 2 1 1 656 599 597
667 2 2 1 1 359 395 425
668 2 2 1 1 472 466 469
669 2 2 1 1 391 465 461
670 2 2 1 1 461 454 358
671 2 2 1 1 357 394 393
672 2 2 1 1 359 351 393
673 2 2 1 1 386 428 349
674 2 2 1 1 491 489 492
675 2 2 1 1 451 437 450
676 2 2 1 1 453 426 452
677 2 2 1 1 318 418 421
678 2 2 1 1 497 440 365
679 2 2 1 1 499 433 397
680 2 2 1 1 456 397 442
681 2 2 1 1 476 399 372
682 2 2 1 1 367 54 398
683 2 2 1 1 434 331 401
684 2 2 1 1 401 402 400
685 2 2 1 1 406 408 407
686 2 2 1 1 399 402 401
687 2 2 1 1 434 401 400
688 2 2 1 1 404 405 563
689 2 2 1 1 562 553 555
690 2 2 1 1 399 476 402
691 2 2 1 1 609 521 519
692 2 2 1 1 402 405 404
693 2 2 1 1 407 403 587
694 2 2 1 1 427 372 487
695 2 2 1 1 468 474 473
696 2 2 1 1 565 444 445
697 2 2 1 1 409 319 408
698 2 2 1 1 403 407 404
699 2 2 1 1 409 408 406
700 2 2 1 1 337 408 319
701 2 2 1 1 408 327 434
702 2 2 1 1 409 406 444
703 2 2 1 1 458 418 419
704 2 2 1 1 377 410 210
705 2 2 1 1 411 410 378
706 2 2 1 1 378 412 411
707 2 2 1 1 220 195 411
708 2 2 1 1 412 378 483
709 2 2 1 1 412 189 485
710 2 2 1 1 412 413 220
711 2 2 1 1 413 415 414
712 2 2 1 1 306 413 414
713 2 2 1 1 415 413 380
714 2 2 1 1 416 415 380
715 2 2 1 1 594 417 388
716 2 2 1 1 416 380 486
717 2 2 1 1 416 486 545
718 2 2 1 1 415 417 383
719 2 2 1 1 415 416 417
720 2 2 1 1 315 319 419
721 2 2 1 1 421 381 507
722 2 2 1 1 409 419 319
723 2 2 1 1 419 409 458
724 2 2 1 1 446 435 502
725 2 2 1 1 448 396 447
726 2 2 1 1 381 421 418
727 2 2 1 1 420 422 421
728 2 2 1 1 447 420 523
729 2 2 1 1 430 396 429
730 2 2 1 1 424 423 390
731 2 2 1 1 391 358 423
732 2 2 1 1 451 450 425
733 2 2 1 1 838 627 837
734 2 2 1 1 359 425 390
735 2 2 1 1 452 424 450
736 2 2 1 1 452 391 424
737 2 2 1 1 424 425 450
738 2 2 1 1 392 358 454
739 2 2 1 1 462 392 454
740 2 2 1 1 428 386 489
741 2 2 1 1 495 394 428
742 2 2 1 1 429 311 430
743 2 2 1 1 429 396 431
744 2 2 1 1 318 430 311
745 2 2 1 1 396 430 422
746 2 2 1 1 432 431 396
747 2 2 1 1 363 364 439
748 2 2 1 1 396 422 447
749 2 2 1 1 448 449 589
750 2 2 1 1 440 367 365
751 2 2 1 1 397 433 443
752 2 2 1 1 331 434 327
753 2 2 1 1 407 434 400
754 2 2 1 1 587 444 406
755 2 2 1 1 510 507 508
756 2 2 1 1 507 510 420
757 2 2 1 1 523 524 436
758 2 2 1 1 489 491 428
759 2 2 1 1 624 626 665
760 2 2 1 1 601 598 600
761 2 2 1 1 1075 1048 1076
762 2 2 1 1 429 439 314
763 2 2 1 1 431 363 439
764 2 2 1 1 365 363 497
765 2 2 1 1 440 441 442
766 2 2 1 1 589 463 588
767 2 2 1 1 442 397 440
768 2 2 1 1 442 441 455
769 2 2 1 1 455 456 442
770 2 2 1 1 445 444 587
771 2 2 1 1 433 54 443
772 2 2 1 1 446 444 435
773 2 2 1 1 473 475 405
774 2 2 1 1 571 575 609
775 2 2 1 1 464 446 502
776 2 2 1 1 446 381 458
777 2 2 1 1 420 447 422
778 2 2 1 1 448 447 436
779 2 2 1 1 449 448 436
780 2 2 1 1 432 396 448
781 2 2 1 1 532 535 534
782 2 2 1 1 538 467 536
783 2 2 1 1 451 425 395
784 2 2 1 1 452 450 437
785 2 2 1 1 496 451 395
786 2 2 1 1 501 453 437
787 2 2 1 1 437 453 452
788 2 2 1 1 426 391 452
789 2 2 1 1 437 451 501
790 2 2 1 1 664 626 662
791 2 2 1 1 358 391 461
792 2 2 1 1 438 462 454
793 2 2 1 1 590 588 463
794 2 2 1 1 590 441 588
795 2 2 1 1 500 456 595
796 2 2 1 1 433 499 53
797 2 2 1 1 444 565 435
798 2 2 1 1 521 518 519
799 2 2 1 1 418 458 381
800 2 2 1 1 444 458 409
801 2 2 1 1 496 495 491
802 2 2 1 1 674 667 669
803 2 2 1 1 597 625 628
804 2 2 1 1 663 426 453
805 2 2 1 1 391 426 465
806 2 2 1 1 461 438 454
807 2 2 1 1 462 438 469
808 2 2 1 1 469 468 470
809 2 2 1 1 463 449 536
810 2 2 1 1 590 152 455
811 2 2 1 1 508 457 509
812 2 2 1 1 421 507 420
813 2 2 1 1 426 460 511
814 2 2 1 1 511 465 426
815 2 2 1 1 461 465 601
816 2 2 1 1 1081 906 1082
817 2 2 1 1 536 449 534
818 2 2 1 1 151 740 131
819 2 2 1 1 405 471 473
820 2 2 1 1 427 471 372
821 2 2 1 1 600 469 438
822 2 2 1 1 466 468 469
823 2 2 1 1 469 470 462
824 2 2 1 1 468 471 470
825 2 2 1 1 471 468 473
826 2 2 1 1 405 402 476
827 2 2 1 1 511 599 598
828 2 2 1 1 474 729 731
829 2 2 1 1 474 468 729
830 2 2 1 1 525 539 542
831 2 2 1 1 543 525 542
832 2 2 1 1 473 474 475
833 2 2 1 1 541 475 539
834 2 2 1 1 563 512 562
835 2 2 1 1 372 471 476
836 2 2 1 1 471 405 476
837 2 2 1 1 198 477 176
838 2 2 1 1 480 192 593
839 2 2 1 1 188 583 549
840 2 2 1 1 486 734 545
841 2 2 1 1 481 479 593
842 2 2 1 1 513 192 480
843 2 2 1 1 482 513 198
844 2 2 1 1 514 481 61
845 2 2 1 1 169 177 481
846 2 2 1 1 190 62 482
847 2 2 1 1 513 482 62
848 2 2 1 1 189 483 194
849 2 2 1 1 378 182 484
850 2 2 1 1 183 484 182
851 2 2 1 1 184 483 484
852 2 2 1 1 189 486 485
853 2 2 1 1 413 485 380
854 2 2 1 1 189 478 515
855 2 2 1 1 515 486 189
856 2 2 1 1 372 371 487
857 2 2 1 1 352 427 487
858 2 2 1 1 357 488 394
859 2 2 1 1 349 428 488
860 2 2 1 1 387 489 386
861 2 2 1 1 489 385 492
862 2 2 1 1 594 492 385
863 2 2 1 1 493 490 492
864 2 2 1 1 496 490 630
865 2 2 1 1 490 496 491
866 2 2 1 1 387 594 385
867 2 2 1 1 490 491 492
868 2 2 1 1 416 545 558
869 2 2 1 1 630 632 494
870 2 2 1 1 496 630 494
871 2 2 1 1 459 453 501
872 2 2 1 1 395 394 495
873 2 2 1 1 428 491 495
874 2 2 1 1 494 451 496
875 2 2 1 1 496 395 495
876 2 2 1 1 363 432 497
877 2 2 1 1 441 440 497
878 2 2 1 1 595 591 800
879 2 2 1 1 715 125 713
880 2 2 1 1 397 456 499
881 2 2 1 1 595 456 152
882 2 2 1 1 596 500 498
883 2 2 1 1 653 596 621
884 2 2 1 1 634 451 494
885 2 2 1 1 634 494 632
886 2 2 1 1 565 504 435
887 2 2 1 1 457 464 502
888 2 2 1 1 563 562 403
889 2 2 1 1 612 610 613
890 2 2 1 1 435 504 502
891 2 2 1 1 503 505 504
892 2 2 1 1 525 561 552
893 2 2 1 1 529 528 732
894 2 2 1 1 509 506 508
895 2 2 1 1 449 436 524
896 2 2 1 1 381 464 507
897 2 2 1 1 464 508 507
898 2 2 1 1 457 508 464
899 2 2 1 1 510 508 506
900 2 2 1 1 509 457 517
901 2 2 1 1 519 509 517
902 2 2 1 1 522 510 506
903 2 2 1 1 447 523 436
904 2 2 1 1 511 623 599
905 2 2 1 1 623 511 460
906 2 2 1 1 475 474 539
907 2 2 1 1 512 541 553
908 2 2 1 1 62 192 513
909 2 2 1 1 480 198 513
910 2 2 1 1 515 478 544
911 2 2 1 1 514 169 481
912 2 2 1 1 734 544 550
913 2 2 1 1 493 559 560
914 2 2 1 1 676 673 677
915 2 2 1 1 504 517 457
916 2 2 1 1 519 517 505
917 2 2 1 1 136 637 742
918 2 2 1 1 530 154 522
919 2 2 1 1 568 571 503
920 2 2 1 1 528 519 518
921 2 2 1 1 746 747 748
922 2 2 1 1 609 519 505
923 2 2 1 1 651 733 520
924 2 2 1 1 658 136 132
925 2 2 1 1 530 506 528
926 2 2 1 1 449 524 532
927 2 2 1 1 420 510 523
928 2 2 1 1 524 523 510
929 2 2 1 1 510 522 524
930 2 2 1 1 524 522 532
931 2 2 1 1 466 731 729
932 2 2 1 1 557 548 564
933 2 2 1 1 549 544 478
934 2 2 1 1 526 605 550
935 2 2 1 1 763 822 648
936 2 2 1 1 559 416 558
937 2 2 1 1 509 519 528
938 2 2 1 1 732 528 518
939 2 2 1 1 733 732 521
940 2 2 1 1 603 637 658
941 2 2 1 1 528 529 530
942 2 2 1 1 529 154 530
943 2 2 1 1 575 520 609
944 2 2 1 1 834 1030 811
945 2 2 1 1 154 532 522
946 2 2 1 1 533 537 604
947 2 2 1 1 150 538 117
948 2 2 1 1 449 532 534
949 2 2 1 1 532 154 535
950 2 2 1 1 536 534 533
951 2 2 1 1 537 535 154
952 2 2 1 1 534 535 533
953 2 2 1 1 538 536 533
954 2 2 1 1 590 536 467
955 2 2 1 1 154 529 603
956 2 2 1 1 537 132 604
957 2 2 1 1 533 117 538
958 2 2 1 1 620 619 591
959 2 2 1 1 731 542 474
960 2 2 1 1 541 539 525
961 2 2 1 1 754 472 753
962 2 2 1 1 752 843 848
963 2 2 1 1 541 525 552
964 2 2 1 1 541 554 553
965 2 2 1 1 474 542 539
966 2 2 1 1 887 542 540
967 2 2 1 1 751 628 627
968 2 2 1 1 578 579 566
969 2 2 1 1 592 549 478
970 2 2 1 1 550 544 526
971 2 2 1 1 734 486 515
972 2 2 1 1 558 527 916
973 2 2 1 1 635 546 638
974 2 2 1 1 603 529 635
975 2 2 1 1 574 577 615
976 2 2 1 1 607 915 570
977 2 2 1 1 606 548 554
978 2 2 1 1 555 557 445
979 2 2 1 1 583 188 582
980 2 2 1 1 549 526 544
981 2 2 1 1 605 526 618
982 2 2 1 1 734 527 545
983 2 2 1 1 659 681 766
984 2 2 1 1 675 688 777
985 2 2 1 1 525 543 561
986 2 2 1 1 553 554 548
987 2 2 1 1 554 541 552
988 2 2 1 1 555 553 548
989 2 2 1 1 606 552 547
990 2 2 1 1 552 606 554
991 2 2 1 1 557 555 548
992 2 2 1 1 562 445 587
993 2 2 1 1 577 547 615
994 2 2 1 1 571 568 569
995 2 2 1 1 548 556 564
996 2 2 1 1 504 565 503
997 2 2 1 1 527 558 545
998 2 2 1 1 558 551 559
999 2 2 1 1 560 559 551
1000 2 2 1 1 559 493 594
1001 2 2 1 1 648 551 916
1002 2 2 1 1 678 675 677
1003 2 2 1 1 561 543 574
1004 2 2 1 1 615 552 561
1005 2 2 1 1 553 562 512
1006 2 2 1 1 445 562 555
1007 2 2 1 1 404 563 403
1008 2 2 1 1 405 512 563
1009 2 2 1 1 569 556 570
1010 2 2 1 1 503 565 568
1011 2 2 1 1 445 557 565
1012 2 2 1 1 568 565 557
1013 2 2 1 1 566 574 578
1014 2 2 1 1 885 884 866
1015 2 2 1 1 569 570 567
1016 2 2 1 1 520 575 650
1017 2 2 1 1 557 564 568
1018 2 2 1 1 564 569 568
1019 2 2 1 1 556 569 564
1020 2 2 1 1 571 569 567
1021 2 2 1 1 607 556 606
1022 2 2 1 1 607 570 556
1023 2 2 1 1 575 571 567
1024 2 2 1 1 505 503 571
1025 2 2 1 1 652 661 683
1026 2 2 1 1 915 567 570
1027 2 2 1 1 661 572 683
1028 2 2 1 1 896 749 836
1029 2 2 1 1 578 543 888
1030 2 2 1 1 566 577 574
1031 2 2 1 1 915 610 567
1032 2 2 1 1 575 567 610
1033 2 2 1 1 887 868 870
1034 2 2 1 1 913 912 914
1035 2 2 1 1 577 566 652
1036 2 2 1 1 547 683 607
1037 2 2 1 1 543 578 574
1038 2 2 1 1 913 578 576
1039 2 2 1 1 911 898 904
1040 2 2 1 1 708 711 682
1041 2 2 1 1 58 736 809
1042 2 2 1 1 738 737 580
1043 2 2 1 1 173 581 169
1044 2 2 1 1 163 177 581
1045 2 2 1 1 116 157 582
1046 2 2 1 1 583 582 135
1047 2 2 1 1 135 130 584
1048 2 2 1 1 135 584 583
1049 2 2 1 1 585 584 130
1050 2 2 1 1 586 549 583
1051 2 2 1 1 115 585 130
1052 2 2 1 1 585 149 618
1053 2 2 1 1 584 585 586
1054 2 2 1 1 526 549 586
1055 2 2 1 1 407 587 406
1056 2 2 1 1 562 587 403
1057 2 2 1 1 497 588 441
1058 2 2 1 1 589 588 432
1059 2 2 1 1 448 589 432
1060 2 2 1 1 449 463 589
1061 2 2 1 1 441 590 455
1062 2 2 1 1 536 590 463
1063 2 2 1 1 829 799 800
1064 2 2 1 1 152 467 620
1065 2 2 1 1 180 592 178
1066 2 2 1 1 549 592 188
1067 2 2 1 1 61 481 593
1068 2 2 1 1 479 480 593
1069 2 2 1 1 559 594 388
1070 2 2 1 1 493 492 594
1071 2 2 1 1 620 595 152
1072 2 2 1 1 498 500 595
1073 2 2 1 1 622 596 498
1074 2 2 1 1 622 686 695
1075 2 2 1 1 597 623 625
1076 2 2 1 1 752 839 843
1077 2 2 1 1 598 472 600
1078 2 2 1 1 465 511 598
1079 2 2 1 1 656 597 750
1080 2 2 1 1 753 598 599
1081 2 2 1 1 472 469 600
1082 2 2 1 1 438 461 601
1083 2 2 1 1 465 598 601
1084 2 2 1 1 438 601 600
1085 2 2 1 1 630 631 602
1086 2 2 1 1 645 647 679
1087 2 2 1 1 732 635 529
1088 2 2 1 1 132 537 658
1089 2 2 1 1 153 604 132
1090 2 2 1 1 533 604 117
1091 2 2 1 1 608 645 648
1092 2 2 1 1 550 605 765
1093 2 2 1 1 547 607 606
1094 2 2 1 1 556 548 606
1095 2 2 1 1 683 547 577
1096 2 2 1 1 915 607 572
1097 2 2 1 1 785 649 823
1098 2 2 1 1 560 551 645
1099 2 2 1 1 521 609 520
1100 2 2 1 1 505 571 609
1101 2 2 1 1 610 573 613
1102 2 2 1 1 610 612 650
1103 2 2 1 1 613 691 692
1104 2 2 1 1 939 642 748
1105 2 2 1 1 642 640 641
1106 2 2 1 1 651 520 650
1107 2 2 1 1 691 613 573
1108 2 2 1 1 611 612 613
1109 2 2 1 1 572 661 685
1110 2 2 1 1 1015 792 1014
1111 2 2 1 1 552 615 547
1112 2 2 1 1 574 615 561
1113 2 2 1 1 566 660 652
1114 2 2 1 1 690 701 790
1115 2 2 1 1 129 741 115
1116 2 2 1 1 617 758 757
1117 2 2 1 1 149 605 618
1118 2 2 1 1 586 618 526
1119 2 2 1 1 538 131 619
1120 2 2 1 1 619 131 740
1121 2 2 1 1 619 620 467
1122 2 2 1 1 591 595 620
1123 2 2 1 1 591 829 800
1124 2 2 1 1 621 596 52
1125 2 2 1 1 460 426 663
1126 2 2 1 1 623 626 625
1127 2 2 1 1 597 599 623
1128 2 2 1 1 625 626 624
1129 2 2 1 1 627 628 755
1130 2 2 1 1 626 623 460
1131 2 2 1 1 625 755 628
1132 2 2 1 1 663 662 460
1133 2 2 1 1 626 460 662
1134 2 2 1 1 755 669 672
1135 2 2 1 1 72 941 850
1136 2 2 1 1 755 625 624
1137 2 2 1 1 750 628 751
1138 2 2 1 1 751 752 629
1139 2 2 1 1 730 869 868
1140 2 2 1 1 490 631 630
1141 2 2 1 1 602 632 630
1142 2 2 1 1 490 493 631
1143 2 2 1 1 633 631 657
1144 2 2 1 1 602 516 632
1145 2 2 1 1 634 632 516
1146 2 2 1 1 679 633 657
1147 2 2 1 1 670 676 666
1148 2 2 1 1 673 634 516
1149 2 2 1 1 451 634 501
1150 2 2 1 1 546 639 638
1151 2 2 1 1 637 603 635
1152 2 2 1 1 639 636 638
1153 2 2 1 1 743 744 742
1154 2 2 1 1 638 637 635
1155 2 2 1 1 118 136 742
1156 2 2 1 1 639 546 733
1157 2 2 1 1 743 638 636
1158 2 2 1 1 639 531 641
1159 2 2 1 1 643 639 641
1160 2 2 1 1 642 641 531
1161 2 2 1 1 897 957 958
1162 2 2 1 1 651 650 612
1163 2 2 1 1 640 643 641
1164 2 2 1 1 612 611 746
1165 2 2 1 1 642 612 746
1166 2 2 1 1 643 640 814
1167 2 2 1 1 744 743 745
1168 2 2 1 1 689 149 757
1169 2 2 1 1 707 649 762
1170 2 2 1 1 648 916 646
1171 2 2 1 1 647 645 608
1172 2 2 1 1 766 764 765
1173 2 2 1 1 763 648 646
1174 2 2 1 1 770 768 771
1175 2 2 1 1 767 675 678
1176 2 2 1 1 551 648 645
1177 2 2 1 1 822 763 649
1178 2 2 1 1 707 644 706
1179 2 2 1 1 784 772 774
1180 2 2 1 1 610 650 575
1181 2 2 1 1 612 642 651
1182 2 2 1 1 642 531 651
1183 2 2 1 1 733 651 531
1184 2 2 1 1 566 579 660
1185 2 2 1 1 652 616 661
1186 2 2 1 1 53 499 653
1187 2 2 1 1 596 653 500
1188 2 2 1 1 144 694 702
1189 2 2 1 1 52 596 695
1190 2 2 1 1 668 670 666
1191 2 2 1 1 665 626 664
1192 2 2 1 1 868 869 851
1193 2 2 1 1 598 753 472
1194 2 2 1 1 493 560 657
1195 2 2 1 1 657 560 679
1196 2 2 1 1 603 658 537
1197 2 2 1 1 637 136 658
1198 2 2 1 1 149 617 757
1199 2 2 1 1 681 659 644
1200 2 2 1 1 660 579 690
1201 2 2 1 1 790 652 660
1202 2 2 1 1 616 684 661
1203 2 2 1 1 685 573 915
1204 2 2 1 1 664 662 655
1205 2 2 1 1 459 663 453
1206 2 2 1 1 663 655 662
1207 2 2 1 1 655 670 668
1208 2 2 1 1 665 674 669
1209 2 2 1 1 671 664 668
1210 2 2 1 1 674 696 667
1211 2 2 1 1 673 516 677
1212 2 2 1 1 860 919 787
1213 2 2 1 1 624 665 669
1214 2 2 1 1 664 671 665
1215 2 2 1 1 655 459 670
1216 2 2 1 1 666 671 668
1217 2 2 1 1 665 671 674
1218 2 2 1 1 667 672 669
1219 2 2 1 1 634 673 459
1220 2 2 1 1 670 459 673
1221 2 2 1 1 666 676 705
1222 2 2 1 1 877 857 876
1223 2 2 1 1 672 667 818
1224 2 2 1 1 838 839 752
1225 2 2 1 1 516 678 677
1226 2 2 1 1 673 676 670
1227 2 2 1 1 674 671 697
1228 2 2 1 1 696 674 697
1229 2 2 1 1 767 768 688
1230 2 2 1 1 704 687 697
1231 2 2 1 1 709 698 705
1232 2 2 1 1 676 709 705
1233 2 2 1 1 678 516 602
1234 2 2 1 1 675 676 677
1235 2 2 1 1 602 633 678
1236 2 2 1 1 678 633 767
1237 2 2 1 1 645 679 560
1238 2 2 1 1 647 633 679
1239 2 2 1 1 758 761 680
1240 2 2 1 1 946 819 820
1241 2 2 1 1 681 644 762
1242 2 2 1 1 681 646 764
1243 2 2 1 1 682 690 708
1244 2 2 1 1 895 902 974
1245 2 2 1 1 607 683 572
1246 2 2 1 1 577 652 683
1247 2 2 1 1 701 616 790
1248 2 2 1 1 684 691 685
1249 2 2 1 1 661 684 685
1250 2 2 1 1 691 684 614
1251 2 2 1 1 654 686 51
1252 2 2 1 1 686 654 695
1253 2 2 1 1 666 705 710
1254 2 2 1 1 899 67 1047
1255 2 2 1 1 768 647 771
1256 2 2 1 1 919 709 779
1257 2 2 1 1 149 689 659
1258 2 2 1 1 706 680 819
1259 2 2 1 1 708 579 914
1260 2 2 1 1 701 690 682
1261 2 2 1 1 692 691 614
1262 2 2 1 1 573 685 691
1263 2 2 1 1 614 693 692
1264 2 2 1 1 611 613 692
1265 2 2 1 1 792 684 616
1266 2 2 1 1 885 951 952
1267 2 2 1 1 144 713 716
1268 2 2 1 1 50 694 828
1269 2 2 1 1 52 695 654
1270 2 2 1 1 596 622 695
1271 2 2 1 1 855 853 854
1272 2 2 1 1 856 852 854
1273 2 2 1 1 671 666 710
1274 2 2 1 1 687 696 697
1275 2 2 1 1 770 776 775
1276 2 2 1 1 783 778 788
1277 2 2 1 1 680 761 819
1278 2 2 1 1 995 879 994
1279 2 2 1 1 904 576 911
1280 2 2 1 1 1087 1077 901
1281 2 2 1 1 701 682 825
1282 2 2 1 1 701 792 616
1283 2 2 1 1 144 702 686
1284 2 2 1 1 694 50 703
1285 2 2 1 1 710 697 671
1286 2 2 1 1 694 703 702
1287 2 2 1 1 859 860 824
1288 2 2 1 1 675 709 676
1289 2 2 1 1 710 698 704
1290 2 2 1 1 680 706 689
1291 2 2 1 1 945 706 699
1292 2 2 1 1 878 879 995
1293 2 2 1 1 858 882 880
1294 2 2 1 1 579 708 690
1295 2 2 1 1 1086 708 700
1296 2 2 1 1 777 688 775
1297 2 2 1 1 770 688 768
1298 2 2 1 1 698 710 705
1299 2 2 1 1 697 710 704
1300 2 2 1 1 910 700 912
1301 2 2 1 1 902 791 974
1302 2 2 1 1 724 124 134
1303 2 2 1 1 110 801 717
1304 2 2 1 1 716 111 793
1305 2 2 1 1 715 144 622
1306 2 2 1 1 111 126 793
1307 2 2 1 1 798 794 796
1308 2 2 1 1 715 622 799
1309 2 2 1 1 829 125 715
1310 2 2 1 1 111 716 713
1311 2 2 1 1 827 716 714
1312 2 2 1 1 801 110 712
1313 2 2 1 1 793 717 794
1314 2 2 1 1 114 128 802
1315 2 2 1 1 146 720 718
1316 2 2 1 1 1026 1028 1023
1317 2 2 1 1 1019 95 1020
1318 2 2 1 1 146 1020 1021
1319 2 2 1 1 113 804 725
1320 2 2 1 1 744 118 742
1321 2 2 1 1 802 721 1029
1322 2 2 1 1 803 107 159
1323 2 2 1 1 115 741 617
1324 2 2 1 1 155 810 739
1325 2 2 1 1 726 723 155
1326 2 2 1 1 724 156 977
1327 2 2 1 1 724 712 124
1328 2 2 1 1 804 113 720
1329 2 2 1 1 156 724 725
1330 2 2 1 1 726 925 924
1331 2 2 1 1 158 726 137
1332 2 2 1 1 139 929 1008
1333 2 2 1 1 991 934 138
1334 2 2 1 1 137 807 728
1335 2 2 1 1 728 139 161
1336 2 2 1 1 468 466 729
1337 2 2 1 1 466 730 731
1338 2 2 1 1 472 754 816
1339 2 2 1 1 754 730 816
1340 2 2 1 1 730 540 731
1341 2 2 1 1 542 731 540
1342 2 2 1 1 521 732 518
1343 2 2 1 1 635 732 546
1344 2 2 1 1 520 733 521
1345 2 2 1 1 639 733 531
1346 2 2 1 1 544 734 515
1347 2 2 1 1 550 527 734
1348 2 2 1 1 174 175 735
1349 2 2 1 1 737 735 580
1350 2 2 1 1 738 980 739
1351 2 2 1 1 737 738 164
1352 2 2 1 1 166 737 164
1353 2 2 1 1 735 737 140
1354 2 2 1 1 808 738 580
1355 2 2 1 1 810 155 723
1356 2 2 1 1 980 738 736
1357 2 2 1 1 980 58 918
1358 2 2 1 1 112 591 740
1359 2 2 1 1 591 619 740
1360 2 2 1 1 759 722 148
1361 2 2 1 1 757 758 680
1362 2 2 1 1 742 637 743
1363 2 2 1 1 721 118 744
1364 2 2 1 1 637 638 743
1365 2 2 1 1 643 745 636
1366 2 2 1 1 636 745 743
1367 2 2 1 1 811 721 744
1368 2 2 1 1 834 811 745
1369 2 2 1 1 721 811 147
1370 2 2 1 1 611 693 747
1371 2 2 1 1 747 746 611
1372 2 2 1 1 747 693 835
1373 2 2 1 1 748 642 746
1374 2 2 1 1 867 747 835
1375 2 2 1 1 836 749 814
1376 2 2 1 1 939 814 640
1377 2 2 1 1 97 959 958
1378 2 2 1 1 628 750 597
1379 2 2 1 1 629 656 750
1380 2 2 1 1 838 751 627
1381 2 2 1 1 750 751 629
1382 2 2 1 1 755 837 627
1383 2 2 1 1 841 843 847
1384 2 2 1 1 599 656 753
1385 2 2 1 1 656 754 753
1386 2 2 1 1 656 629 817
1387 2 2 1 1 754 656 817
1388 2 2 1 1 669 755 624
1389 2 2 1 1 837 755 672
1390 2 2 1 1 818 667 852
1391 2 2 1 1 877 856 857
1392 2 2 1 1 758 617 741
1393 2 2 1 1 689 757 680
1394 2 2 1 1 722 759 741
1395 2 2 1 1 741 759 758
1396 2 2 1 1 760 761 938
1397 2 2 1 1 759 761 758
1398 2 2 1 1 83 84 1033
1399 2 2 1 1 820 819 1032
1400 2 2 1 1 761 759 938
1401 2 2 1 1 706 819 699
1402 2 2 1 1 644 707 762
1403 2 2 1 1 762 649 763
1404 2 2 1 1 646 681 763
1405 2 2 1 1 681 762 763
1406 2 2 1 1 916 764 646
1407 2 2 1 1 527 550 765
1408 2 2 1 1 766 765 605
1409 2 2 1 1 527 765 764
1410 2 2 1 1 605 659 766
1411 2 2 1 1 681 764 766
1412 2 2 1 1 633 768 767
1413 2 2 1 1 688 675 767
1414 2 2 1 1 633 647 768
1415 2 2 1 1 647 821 771
1416 2 2 1 1 821 822 785
1417 2 2 1 1 900 88 964
1418 2 2 1 1 785 780 784
1419 2 2 1 1 688 770 775
1420 2 2 1 1 821 647 608
1421 2 2 1 1 769 770 771
1422 2 2 1 1 786 999 973
1423 2 2 1 1 770 769 774
1424 2 2 1 1 781 773 776
1425 2 2 1 1 779 709 777
1426 2 2 1 1 774 769 784
1427 2 2 1 1 775 776 773
1428 2 2 1 1 776 770 774
1429 2 2 1 1 773 777 775
1430 2 2 1 1 772 776 774
1431 2 2 1 1 776 772 781
1432 2 2 1 1 779 777 773
1433 2 2 1 1 675 777 709
1434 2 2 1 1 781 782 778
1435 2 2 1 1 966 789 968
1436 2 2 1 1 781 783 773
1437 2 2 1 1 783 779 773
1438 2 2 1 1 880 823 878
1439 2 2 1 1 858 881 882
1440 2 2 1 1 782 781 772
1441 2 2 1 1 783 781 778
1442 2 2 1 1 893 780 882
1443 2 2 1 1 894 782 891
1444 2 2 1 1 999 778 920
1445 2 2 1 1 787 779 783
1446 2 2 1 1 769 785 784
1447 2 2 1 1 893 784 780
1448 2 2 1 1 785 769 821
1449 2 2 1 1 649 707 823
1450 2 2 1 1 960 963 899
1451 2 2 1 1 704 860 859
1452 2 2 1 1 788 787 783
1453 2 2 1 1 786 1018 1069
1454 2 2 1 1 778 782 920
1455 2 2 1 1 786 787 788
1456 2 2 1 1 891 892 894
1457 2 2 1 1 967 970 971
1458 2 2 1 1 652 790 616
1459 2 2 1 1 690 790 660
1460 2 2 1 1 682 862 825
1461 2 2 1 1 950 866 1000
1462 2 2 1 1 825 792 701
1463 2 2 1 1 1003 791 1001
1464 2 2 1 1 717 793 126
1465 2 2 1 1 716 793 714
1466 2 2 1 1 797 795 796
1467 2 2 1 1 714 793 794
1468 2 2 1 1 826 863 49
1469 2 2 1 1 827 828 694
1470 2 2 1 1 797 796 145
1471 2 2 1 1 795 798 796
1472 2 2 1 1 830 932 990
1473 2 2 1 1 10 922 921
1474 2 2 1 1 795 826 798
1475 2 2 1 1 798 826 828
1476 2 2 1 1 622 498 799
1477 2 2 1 1 800 799 498
1478 2 2 1 1 595 800 498
1479 2 2 1 1 591 112 829
1480 2 2 1 1 830 143 930
1481 2 2 1 1 801 145 717
1482 2 2 1 1 721 802 128
1483 2 2 1 1 719 718 802
1484 2 2 1 1 935 159 933
1485 2 2 1 1 832 803 935
1486 2 2 1 1 1070 804 720
1487 2 2 1 1 865 156 804
1488 2 2 1 1 723 805 133
1489 2 2 1 1 726 158 805
1490 2 2 1 1 161 806 121
1491 2 2 1 1 1056 727 1055
1492 2 2 1 1 807 137 923
1493 2 2 1 1 807 4 929
1494 2 2 1 1 809 808 59
1495 2 2 1 1 736 738 808
1496 2 2 1 1 166 810 108
1497 2 2 1 1 808 809 736
1498 2 2 1 1 164 739 810
1499 2 2 1 1 744 745 811
1500 2 2 1 1 745 643 834
1501 2 2 1 1 834 814 812
1502 2 2 1 1 1031 958 959
1503 2 2 1 1 813 835 884
1504 2 2 1 1 98 886 1046
1505 2 2 1 1 814 939 836
1506 2 2 1 1 749 812 814
1507 2 2 1 1 818 815 837
1508 2 2 1 1 839 815 842
1509 2 2 1 1 730 466 816
1510 2 2 1 1 466 472 816
1511 2 2 1 1 849 752 848
1512 2 2 1 1 871 851 869
1513 2 2 1 1 667 696 852
1514 2 2 1 1 844 818 756
1515 2 2 1 1 761 760 1032
1516 2 2 1 1 1033 820 1032
1517 2 2 1 1 947 948 85
1518 2 2 1 1 994 85 949
1519 2 2 1 1 771 821 769
1520 2 2 1 1 822 821 608
1521 2 2 1 1 648 822 608
1522 2 2 1 1 649 785 822
1523 2 2 1 1 823 707 878
1524 2 2 1 1 823 780 785
1525 2 2 1 1 963 960 962
1526 2 2 1 1 861 855 942
1527 2 2 1 1 682 711 862
1528 2 2 1 1 1006 825 791
1529 2 2 1 1 863 826 795
1530 2 2 1 1 828 864 50
1531 2 2 1 1 694 716 827
1532 2 2 1 1 714 798 827
1533 2 2 1 1 798 828 827
1534 2 2 1 1 864 828 826
1535 2 2 1 1 125 829 112
1536 2 2 1 1 799 829 715
1537 2 2 1 1 11 797 932
1538 2 2 1 1 145 801 990
1539 2 2 1 1 159 138 933
1540 2 2 1 1 82 831 1034
1541 2 2 1 1 937 936 83
1542 2 2 1 1 83 760 937
1543 2 2 1 1 1070 146 1021
1544 2 2 1 1 1054 1009 92
1545 2 2 1 1 814 834 643
1546 2 2 1 1 1030 834 812
1547 2 2 1 1 884 693 1012
1548 2 2 1 1 867 835 813
1549 2 2 1 1 747 867 748
1550 2 2 1 1 836 867 896
1551 2 2 1 1 818 837 672
1552 2 2 1 1 815 838 837
1553 2 2 1 1 815 839 838
1554 2 2 1 1 752 751 838
1555 2 2 1 1 844 840 842
1556 2 2 1 1 850 847 845
1557 2 2 1 1 70 877 876
1558 2 2 1 1 70 71 1035
1559 2 2 1 1 889 907 909
1560 2 2 1 1 817 629 849
1561 2 2 1 1 844 842 815
1562 2 2 1 1 840 845 842
1563 2 2 1 1 842 845 839
1564 2 2 1 1 841 846 848
1565 2 2 1 1 815 818 844
1566 2 2 1 1 877 844 756
1567 2 2 1 1 845 940 850
1568 2 2 1 1 839 845 847
1569 2 2 1 1 851 874 870
1570 2 2 1 1 540 730 868
1571 2 2 1 1 839 847 843
1572 2 2 1 1 940 845 71
1573 2 2 1 1 841 848 843
1574 2 2 1 1 846 849 848
1575 2 2 1 1 871 849 846
1576 2 2 1 1 629 752 849
1577 2 2 1 1 73 941 1049
1578 2 2 1 1 847 850 1039
1579 2 2 1 1 851 871 873
1580 2 2 1 1 888 887 870
1581 2 2 1 1 852 696 854
1582 2 2 1 1 852 756 818
1583 2 2 1 1 696 687 942
1584 2 2 1 1 875 69 857
1585 2 2 1 1 696 855 854
1586 2 2 1 1 856 854 853
1587 2 2 1 1 859 861 687
1588 2 2 1 1 890 899 1047
1589 2 2 1 1 857 856 853
1590 2 2 1 1 756 852 856
1591 2 2 1 1 875 857 853
1592 2 2 1 1 70 840 877
1593 2 2 1 1 945 878 707
1594 2 2 1 1 87 892 953
1595 2 2 1 1 860 704 698
1596 2 2 1 1 861 859 824
1597 2 2 1 1 919 860 698
1598 2 2 1 1 1069 860 787
1599 2 2 1 1 960 861 962
1600 2 2 1 1 899 963 997
1601 2 2 1 1 862 711 895
1602 2 2 1 1 974 825 862
1603 2 2 1 1 863 795 922
1604 2 2 1 1 944 943 9
1605 2 2 1 1 1072 1064 833
1606 2 2 1 1 826 49 864
1607 2 2 1 1 1009 1054 989
1608 2 2 1 1 1005 1003 1000
1609 2 2 1 1 950 100 885
1610 2 2 1 1 886 867 813
1611 2 2 1 1 748 867 836
1612 2 2 1 1 869 730 754
1613 2 2 1 1 851 870 868
1614 2 2 1 1 754 817 869
1615 2 2 1 1 869 817 871
1616 2 2 1 1 874 851 873
1617 2 2 1 1 911 870 874
1618 2 2 1 1 849 871 817
1619 2 2 1 1 846 872 873
1620 2 2 1 1 846 841 1036
1621 2 2 1 1 889 898 907
1622 2 2 1 1 846 873 871
1623 2 2 1 1 872 874 873
1624 2 2 1 1 874 872 898
1625 2 2 1 1 870 911 888
1626 2 2 1 1 853 855 890
1627 2 2 1 1 68 69 875
1628 2 2 1 1 844 877 840
1629 2 2 1 1 876 857 69
1630 2 2 1 1 856 877 756
1631 2 2 1 1 878 945 879
1632 2 2 1 1 878 858 880
1633 2 2 1 1 945 946 879
1634 2 2 1 1 994 946 947
1635 2 2 1 1 955 954 86
1636 2 2 1 1 780 823 880
1637 2 2 1 1 881 892 891
1638 2 2 1 1 882 780 880
1639 2 2 1 1 882 881 891
1640 2 2 1 1 784 893 772
1641 2 2 1 1 883 895 905
1642 2 2 1 1 102 975 1052
1643 2 2 1 1 693 884 835
1644 2 2 1 1 866 950 885
1645 2 2 1 1 952 951 99
1646 2 2 1 1 885 813 884
1647 2 2 1 1 952 886 813
1648 2 2 1 1 749 896 897
1649 2 2 1 1 543 542 887
1650 2 2 1 1 868 887 540
1651 2 2 1 1 578 888 576
1652 2 2 1 1 887 888 543
1653 2 2 1 1 872 846 1036
1654 2 2 1 1 910 889 909
1655 2 2 1 1 855 899 890
1656 2 2 1 1 890 68 875
1657 2 2 1 1 892 881 953
1658 2 2 1 1 782 772 893
1659 2 2 1 1 900 956 88
1660 2 2 1 1 900 894 892
1661 2 2 1 1 882 891 893
1662 2 2 1 1 782 893 891
1663 2 2 1 1 956 900 892
1664 2 2 1 1 920 894 968
1665 2 2 1 1 905 711 1087
1666 2 2 1 1 902 895 883
1667 2 2 1 1 867 886 896
1668 2 2 1 1 886 897 896
1669 2 2 1 1 886 98 897
1670 2 2 1 1 958 957 97
1671 2 2 1 1 898 1038 907
1672 2 2 1 1 889 904 898
1673 2 2 1 1 855 861 960
1674 2 2 1 1 899 855 960
1675 2 2 1 1 88 89 964
1676 2 2 1 1 900 966 968
1677 2 2 1 1 1076 700 910
1678 2 2 1 1 1080 1081 1082
1679 2 2 1 1 975 902 883
1680 2 2 1 1 975 1004 1002
1681 2 2 1 1 1039 941 1040
1682 2 2 1 1 1041 1043 1044
1683 2 2 1 1 912 904 889
1684 2 2 1 1 579 578 913
1685 2 2 1 1 711 905 895
1686 2 2 1 1 901 906 905
1687 2 2 1 1 1077 1079 901
1688 2 2 1 1 103 1051 1092
1689 2 2 1 1 1038 898 872
1690 2 2 1 1 907 1042 909
1691 2 2 1 1 1040 1041 1042
1692 2 2 1 1 74 1045 1044
1693 2 2 1 1 1042 907 903
1694 2 2 1 1 908 910 909
1695 2 2 1 1 1074 1044 1045
1696 2 2 1 1 1087 1086 1048
1697 2 2 1 1 888 911 576
1698 2 2 1 1 898 911 874
1699 2 2 1 1 889 910 912
1700 2 2 1 1 912 700 914
1701 2 2 1 1 576 904 913
1702 2 2 1 1 912 913 904
1703 2 2 1 1 708 914 700
1704 2 2 1 1 913 914 579
1705 2 2 1 1 572 685 915
1706 2 2 1 1 610 915 573
1707 2 2 1 1 558 916 551
1708 2 2 1 1 764 916 527
1709 2 2 1 1 156 865 978
1710 2 2 1 1 987 13 986
1711 2 2 1 1 983 982 57
1712 2 2 1 1 984 927 983
1713 2 2 1 1 698 709 919
1714 2 2 1 1 779 787 919
1715 2 2 1 1 894 920 782
1716 2 2 1 1 789 973 999
1717 2 2 1 1 10 863 922
1718 2 2 1 1 921 797 11
1719 2 2 1 1 795 797 922
1720 2 2 1 1 137 726 924
1721 2 2 1 1 926 5 923
1722 2 2 1 1 726 155 925
1723 2 2 1 1 928 924 925
1724 2 2 1 1 927 155 981
1725 2 2 1 1 924 928 926
1726 2 2 1 1 6 5 926
1727 2 2 1 1 923 924 926
1728 2 2 1 1 918 982 983
1729 2 2 1 1 927 984 1007
1730 2 2 1 1 1007 925 927
1731 2 2 1 1 928 7 6
1732 2 2 1 1 4 3 929
1733 2 2 1 1 3 985 1008
1734 2 2 1 1 979 930 143
1735 2 2 1 1 13 12 930
1736 2 2 1 1 797 145 990
1737 2 2 1 1 931 830 12
1738 2 2 1 1 830 931 932
1739 2 2 1 1 934 933 138
1740 2 2 1 1 935 933 831
1741 2 2 1 1 991 138 1055
1742 2 2 1 1 81 934 992
1743 2 2 1 1 159 935 803
1744 2 2 1 1 831 82 935
1745 2 2 1 1 148 832 937
1746 2 2 1 1 832 82 936
1747 2 2 1 1 936 937 832
1748 2 2 1 1 148 938 759
1749 2 2 1 1 937 760 938
1750 2 2 1 1 642 939 640
1751 2 2 1 1 748 836 939
1752 2 2 1 1 1041 908 1042
1753 2 2 1 1 72 850 940
1754 2 2 1 1 1038 1037 903
1755 2 2 1 1 855 696 942
1756 2 2 1 1 687 861 942
1757 2 2 1 1 707 706 945
1758 2 2 1 1 863 10 943
1759 2 2 1 1 943 944 863
1760 2 2 1 1 946 945 699
1761 2 2 1 1 819 946 699
1762 2 2 1 1 947 946 820
1763 2 2 1 1 820 84 948
1764 2 2 1 1 86 949 993
1765 2 2 1 1 949 86 954
1766 2 2 1 1 820 948 947
1767 2 2 1 1 946 994 879
1768 2 2 1 1 1000 976 1053
1769 2 2 1 1 100 950 996
1770 2 2 1 1 99 886 952
1771 2 2 1 1 885 100 951
1772 2 2 1 1 813 885 952
1773 2 2 1 1 954 953 881
1774 2 2 1 1 953 955 87
1775 2 2 1 1 881 858 954
1776 2 2 1 1 995 954 858
1777 2 2 1 1 1071 1050 96
1778 2 2 1 1 954 955 953
1779 2 2 1 1 892 87 956
1780 2 2 1 1 957 897 98
1781 2 2 1 1 749 897 958
1782 2 2 1 1 96 95 1027
1783 2 2 1 1 959 1028 1031
1784 2 2 1 1 824 961 962
1785 2 2 1 1 786 972 1018
1786 2 2 1 1 972 786 973
1787 2 2 1 1 972 965 1068
1788 2 2 1 1 824 962 861
1789 2 2 1 1 961 963 962
1790 2 2 1 1 1011 965 971
1791 2 2 1 1 67 899 997
1792 2 2 1 1 964 89 967
1793 2 2 1 1 900 964 966
1794 2 2 1 1 967 971 965
1795 2 2 1 1 789 966 969
1796 2 2 1 1 967 966 964
1797 2 2 1 1 967 969 966
1798 2 2 1 1 90 971 970
1799 2 2 1 1 969 967 965
1800 2 2 1 1 920 968 789
1801 2 2 1 1 894 900 968
1802 2 2 1 1 965 972 969
1803 2 2 1 1 999 786 788
1804 2 2 1 1 90 91 998
1805 2 2 1 1 970 967 89
1806 2 2 1 1 90 998 971
1807 2 2 1 1 1011 971 998
1808 2 2 1 1 1017 1018 972
1809 2 2 1 1 789 969 973
1810 2 2 1 1 969 972 973
1811 2 2 1 1 825 974 791
1812 2 2 1 1 895 974 862
1813 2 2 1 1 883 906 1051
1814 2 2 1 1 1004 976 1002
1815 2 2 1 1 996 1053 101
1816 2 2 1 1 791 902 1001
1817 2 2 1 1 156 978 977
1818 2 2 1 1 979 977 917
1819 2 2 1 1 989 988 978
1820 2 2 1 1 917 988 987
1821 2 2 1 1 986 979 917
1822 2 2 1 1 712 979 143
1823 2 2 1 1 58 980 736
1824 2 2 1 1 918 981 980
1825 2 2 1 1 918 927 981
1826 2 2 1 1 155 739 981
1827 2 2 1 1 57 8 984
1828 2 2 1 1 918 58 982
1829 2 2 1 1 927 918 983
1830 2 2 1 1 8 7 984
1831 2 2 1 1 984 7 1007
1832 2 2 1 1 1088 3 2
1833 2 2 1 1 2 1089 1088
1834 2 2 1 1 13 930 986
1835 2 2 1 1 930 979 986
1836 2 2 1 1 988 917 978
1837 2 2 1 1 14 13 987
1838 2 2 1 1 978 865 989
1839 2 2 1 1 988 15 14
1840 2 2 1 1 989 865 1009
1841 2 2 1 1 15 988 989
1842 2 2 1 1 801 830 990
1843 2 2 1 1 797 990 932
1844 2 2 1 1 991 727 1057
1845 2 2 1 1 992 1061 80
1846 2 2 1 1 85 994 947
1847 2 2 1 1 992 934 1061
1848 2 2 1 1 949 85 993
1849 2 2 1 1 949 995 994
1850 2 2 1 1 954 995 949
1851 2 2 1 1 878 995 858
1852 2 2 1 1 1065 963 1010
1853 2 2 1 1 1053 996 950
1854 2 2 1 1 67 997 1066
1855 2 2 1 1 91 1063 998
1856 2 2 1 1 65 66 1067
1857 2 2 1 1 778 999 788
1858 2 2 1 1 920 789 999
1859 2 2 1 1 1005 866 1012
1860 2 2 1 1 976 1003 1001
1861 2 2 1 1 902 975 1002
1862 2 2 1 1 1003 976 1000
1863 2 2 1 1 1004 975 102
1864 2 2 1 1 1002 976 1001
1865 2 2 1 1 1005 1000 866
1866 2 2 1 1 792 825 1006
1867 2 2 1 1 102 101 1004
1868 2 2 1 1 1004 101 1053
1869 2 2 1 1 693 1013 1012
1870 2 2 1 1 1013 614 1015
1871 2 2 1 1 791 1003 1006
1872 2 2 1 1 1005 1006 1003
1873 2 2 1 1 7 928 1007
1874 2 2 1 1 925 1007 928
1875 2 2 1 1 3 1008 929
1876 2 2 1 1 985 1057 1058
1877 2 2 1 1 1064 865 833
1878 2 2 1 1 1064 92 1009
1879 2 2 1 1 963 961 1016
1880 2 2 1 1 1067 1093 1063
1881 2 2 1 1 1093 998 1063
1882 2 2 1 1 1010 963 1016
1883 2 2 1 1 884 1012 866
1884 2 2 1 1 693 614 1013
1885 2 2 1 1 614 684 1015
1886 2 2 1 1 1012 1013 1005
1887 2 2 1 1 792 1006 1014
1888 2 2 1 1 1005 1013 1014
1889 2 2 1 1 684 792 1015
1890 2 2 1 1 1014 1013 1015
1891 2 2 1 1 1016 961 1017
1892 2 2 1 1 1016 1011 1093
1893 2 2 1 1 961 1018 1017
1894 2 2 1 1 1068 1017 972
1895 2 2 1 1 961 824 1018
1896 2 2 1 1 1018 824 1069
1897 2 2 1 1 1019 146 1022
1898 2 2 1 1 1022 1025 1019
1899 2 2 1 1 95 94 1020
1900 2 2 1 1 94 1021 1020
1901 2 2 1 1 1064 1072 93
1902 2 2 1 1 1072 1070 1021
1903 2 2 1 1 718 1022 146
1904 2 2 1 1 1025 1022 719
1905 2 2 1 1 719 1026 1025
1906 2 2 1 1 1050 1071 959
1907 2 2 1 1 719 802 1029
1908 2 2 1 1 1072 94 1024
1909 2 2 1 1 1027 1025 1023
1910 2 2 1 1 147 1028 1026
1911 2 2 1 1 1026 1023 1025
1912 2 2 1 1 1071 1027 1023
1913 2 2 1 1 95 1019 1027
1914 2 2 1 1 1028 147 1030
1915 2 2 1 1 1071 1028 959
1916 2 2 1 1 721 147 1029
1917 2 2 1 1 1026 719 1029
1918 2 2 1 1 811 1030 147
1919 2 2 1 1 1031 1030 812
1920 2 2 1 1 812 749 1031
1921 2 2 1 1 958 1031 749
1922 2 2 1 1 761 1032 819
1923 2 2 1 1 760 1033 1032
1924 2 2 1 1 760 83 1033
1925 2 2 1 1 84 820 1033
1926 2 2 1 1 840 70 1035
1927 2 2 1 1 831 81 1034
1928 2 2 1 1 71 845 1035
1929 2 2 1 1 1036 841 1037
1930 2 2 1 1 1038 903 907
1931 2 2 1 1 1037 841 1039
1932 2 2 1 1 1039 1040 1037
1933 2 2 1 1 872 1036 1038
1934 2 2 1 1 1037 1038 1036
1935 2 2 1 1 847 1039 841
1936 2 2 1 1 941 1039 850
1937 2 2 1 1 1041 1040 941
1938 2 2 1 1 903 1037 1040
1939 2 2 1 1 941 73 1041
1940 2 2 1 1 1044 1043 74
1941 2 2 1 1 909 1042 908
1942 2 2 1 1 1040 1042 903
1943 2 2 1 1 75 1045 1073
1944 2 2 1 1 1043 1041 73
1945 2 2 1 1 908 1041 1044
1946 2 2 1 1 1048 1075 1077
1947 2 2 1 1 910 908 1074
1948 2 2 1 1 67 68 1047
1949 2 2 1 1 886 99 1046
1950 2 2 1 1 68 890 1047
1951 2 2 1 1 1074 1075 1076
1952 2 2 1 1 1077 1087 1048
1953 2 2 1 1 1092 906 1085
1954 2 2 1 1 941 72 1049
1955 2 2 1 1 959 97 1050
1956 2 2 1 1 1052 1051 103
1957 2 2 1 1 950 1000 1053
1958 2 2 1 1 1051 1052 975
1959 2 2 1 1 1004 1053 976
1960 2 2 1 1 92 16 1054
1961 2 2 1 1 15 989 1054
1962 2 2 1 1 1056 138 160
1963 2 2 1 1 727 991 1055
1964 2 2 1 1 160 106 1056
1965 2 2 1 1 806 727 1056
1966 2 2 1 1 1057 727 1058
1967 2 2 1 1 1059 1057 985
1968 2 2 1 1 727 806 1060
1969 2 2 1 1 985 1058 1008
1970 2 2 1 1 1059 985 1088
1971 2 2 1 1 79 80 1062
1972 2 2 1 1 806 161 1060
1973 2 2 1 1 139 1058 1060
1974 2 2 1 1 934 991 1061
1975 2 2 1 1 1057 1062 991
1976 2 2 1 1 79 1062 1059
1977 2 2 1 1 1062 80 1061
1978 2 2 1 1 1091 1090 64
1979 2 2 1 1 1067 1063 65
1980 2 2 1 1 93 92 1064
1981 2 2 1 1 865 1064 1009
1982 2 2 1 1 1066 1065 66
1983 2 2 1 1 963 1065 997
1984 2 2 1 1 1065 1067 66
1985 2 2 1 1 1066 997 1065
1986 2 2 1 1 1093 1067 1010
1987 2 2 1 1 965 1011 1068
1988 2 2 1 1 1011 1017 1068
1989 2 2 1 1 860 1069 824
1990 2 2 1 1 787 786 1069
1991 2 2 1 1 833 804 1070
1992 2 2 1 1 146 1070 720
1993 2 2 1 1 96 1027 1071
1994 2 2 1 1 1028 1071 1023
1995 2 2 1 1 94 1072 1021
1996 2 2 1 1 93 1072 1024
1997 2 2 1 1 1044 1074 908
1998 2 2 1 1 1045 74 1073
1999 2 2 1 1 1045 1075 1074
2000 2 2 1 1 1078 1045 75
2001 2 2 1 1 1075 1078 1077
2002 2 2 1 1 1086 1076 1048
2003 2 2 1 1 910 1074 1076
2004 2 2 1 1 1045 1078 1075
2005 2 2 1 1 1079 1077 1078
2006 2 2 1 1 75 76 1078
2007 2 2 1 1 1078 76 1079
2008 2 2 1 1 1079 76 1080
2009 2 2 1 1 1082 901 1079
2010 2 2 1 1 76 77 1080
2011 2 2 1 1 77 1081 1080
2012 2 2 1 1 1085 1084 104
2013 2 2 1 1 1081 1084 1085
2014 2 2 1 1 906 901 1082
2015 2 2 1 1 1079 1080 1082
2016 2 2 1 1 104 103 1092
2017 2 2 1 1 1083 1081 77
2018 2 2 1 1 1084 1083 78
2019 2 2 1 1 906 1081 1085
2020 2 2 1 1 711 708 1086
2021 2 2 1 1 700 1076 1086
2022 2 2 1 1 905 1087 901
2023 2 2 1 1 1086 1087 711
2024 2 2 1 1 985 3 1088
2025 2 2 1 1 2 1 1089
2026 2 2 1 1 1 79 1089
2027 2 2 1 1 1089 1059 1088
2028 2 2 1 1 906 1092 1051
2029 2 2 1 1 1063 91 1090
2030 2 2 1 1 1091 1063 1090
2031 2 2 1 1 104 1092 1085
2032 2 2 1 1 1016 1093 1010
2033 2 2 1 1 998 1093 1011
$EndElements
