$MeshFormat
2.2 0 8
$EndMeshFormat
$Nodes
1539
1 0 0 0
2 0 400 0
3 456.5685433378608 200 0
4 200 456.5685433378608 0
5 200 -56.56854333786077 0
6 -56.56854333786077 200 0
7 82.94754899818328 310.9780862200156 0
8 357.7842785795619 40.10339868103001 0
9 42.23515624999999 176.923046875 0
10 -56.56854333786077 328.2842716689304 0
11 -56.56854333786077 71.71572833106961 0
12 328.2842716689304 -56.56854333786077 0
13 71.71572833106961 -56.56854333786077 0
14 328.2842716689304 456.5685433378608 0
15 71.71572833106961 456.5685433378608 0
16 456.5685433378608 71.71572833106961 0
17 456.5685433378608 328.2842716689304 0
18 400 202.8504472361803 0
19 0 212.6483262856171 0
20 213.7938384948632 400 0
21 48.52273172077537 148.0076754749892 0
22 44.74868188222744 225.2251175539252 0
23 216.0444502135842 0 0
24 341.3507965854917 0 0
25 61.14313897591564 299.7903407200411 0
26 63.41558796700247 115.461879720403 0
27 53.89999999999999 252.4 0
28 357.8793652971473 364.3820053971128 0
29 59.02228151195533 234.3873385822754 0
30 354.9872401146137 107.6038822266087 0
31 0 43.36179782305196 0
32 62.7998078704409 245.9753791067408 0
33 0 345.1479290272209 0
34 50.24321650346167 355.738196550041 0
35 39.85367052343999 322.6356306868266 0
36 63.02704467140859 268.1985022621708 0
37 318.3373735805393 98.57066165765177 0
38 69.65482369402925 229.4738264381194 0
39 65.89835074874395 220.988031655709 0
40 427.9222850185076 96.10720258768902 0
41 64.90000000000001 271.9 0
42 65.50902774389834 271.9819554100744 0
43 358.2985200449294 400 0
44 259.8918615160324 162.3824424343892 0
45 429.6164415042657 166.1094803518694 0
46 324.3928513582248 99.11699688669137 0
47 88.51558903639558 337.3007434912884 0
48 308.1809700141962 103.7343221602279 0
49 312.6662881338767 81.10350264101935 0
50 333.7257835970709 80.35443916095251 0
51 456.5685433378608 103.7867962483022 0
52 75.93625566744359 278.7337162418139 0
53 335.5143245124465 126.1214508260371 0
54 74.26955336981436 293.9264768432124 0
55 343.7334180153534 127.6845598339357 0
56 428.4519778488622 128.3774986440246 0
57 314.0800962762044 112.213276375841 0
58 76.98425446115617 204.7863814934551 0
59 312.6501546195994 97.92222486514352 0
60 82.64999999999998 299.65 0
61 54.9031479855312 273.9005257428213 0
62 364.9816533272408 137.5932175723227 0
63 81.89999999999995 298.8 0
64 82.91787681579585 300.093060684204 0
65 80.66546483667214 212.3937623932301 0
66 335.1525956794316 117.677082604272 0
67 83.40000000000001 300.5 0
68 85.81183582028807 303.0363511286969 0
69 85.28193022503505 298.147792705805 0
70 82.51268211436152 299.610797997268 0
71 87.18916813796382 303.4267946420237 0
72 88.04609918293755 304.7753943798701 0
73 91.28209656602985 306.6633120655717 0
74 319.8719547206637 106.4548374797033 0
75 315.7402069666983 101.0514479455594 0
76 91.23112190834931 187.9951000123879 0
77 91.47182678339468 304.5905059025436 0
78 89.78774806300777 200.9893755286549 0
79 95.79138125239677 308.4918744987684 0
80 82.24327846627797 290.44887722907 0
81 99.69091456292389 309.5616312236489 0
82 97.19923409475045 280.8194787753715 0
83 96.69999999999999 316.8 0
84 64.71309289565831 275.7052996341381 0
85 101.385378838885 305.4974556033796 0
86 106.4873910586079 318.4592517031987 0
87 105.9251726998786 325.5470106237476 0
88 105.3900972210567 184.2659622451902 0
89 109.0004784687847 170.2821751074887 0
90 111.4327083496736 219.4821198251667 0
91 109.4 250.6 0
92 109.7 66.80000000000001 0
93 109.0427016003459 310.8470018235433 0
94 113.3729765796296 318.7984605532332 0
95 137.1093874585359 183.4281633592803 0
96 316.7829662710329 92.70039109073997 0
97 118.0990335861652 277.424324496857 0
98 120.6252168509187 258.4439163518547 0
99 114.1425758021697 304.4192981913354 0
100 80.99637962605603 301.9203386076632 0
101 119.4213062838973 310.8358612754994 0
102 123.3605303702129 167.6080076918468 0
103 312.177063709369 51.60798406194667 0
104 119.1493231852651 335.6700017132503 0
105 127.9703473852271 153.764019476687 0
106 126.1632201667414 301.9077087759881 0
107 123.8952421784492 318.3397202635672 0
108 137.581491154268 271.6003638192881 0
109 319.9594397506112 358.4586063298712 0
110 130.7305448885257 309.6258762902719 0
111 53.75961588589659 55.91423475379513 0
112 456.5685433378608 392.4264075033956 0
113 456.5685433378608 264.1421358344652 0
114 456.5685433378608 7.573592496604419 0
115 456.5685433378608 135.8578641655348 0
116 142.2435787748741 259.7567899352093 0
117 7.573592496604419 456.5685433378608 0
118 135.8578641655348 456.5685433378608 0
119 392.4264075033956 456.5685433378608 0
120 264.1421358344652 456.5685433378608 0
121 7.573592496604419 -56.56854333786077 0
122 135.8578641655348 -56.56854333786077 0
123 392.4264075033956 -56.56854333786077 0
124 264.1421358344652 -56.56854333786077 0
125 136.2703010515576 316.6144870604002 0
126 -56.56854333786077 7.573592496604419 0
127 -56.56854333786077 135.8578641655348 0
128 -56.56854333786077 392.4264075033956 0
129 157.4330069665189 263.731766510074 0
130 -56.56854333786077 264.1421358344652 0
131 139.8737745295813 297.7484030318336 0
132 140.6270833582977 307.7732631735109 0
133 141.5395233154296 348.00143699646 0
134 164.4405822155405 255.0607059777695 0
135 343.752082657819 328.2337745071928 0
136 400 262.5131292649649 0
137 147.8 138.3 0
138 148.1745220184326 305.9396297454834 0
139 400 159.0463618165775 0
140 141.6724468337698 152.5070345518948 0
141 0 161.4534838265585 0
142 0 277.3019502903928 0
143 151.7721589058113 400 0
144 151.2619845735448 313.1605201083797 0
145 265.8172120429138 400 0
146 282.6609129300971 0 0
147 154.54099201901 0 0
148 152.3 144.4 0
149 162.9834541933872 158.8526466965466 0
150 157.8973336922156 290.6031191789319 0
151 49.05297793485852 400 0
152 166.2803484288679 356.3134313351732 0
153 160.7925624314452 302.1569575938609 0
154 44.72433824011588 0 0
155 400 66.25187028441353 0
156 173.7572998859573 256.0193508634214 0
157 163.5481550855428 136.3708259344143 0
158 167.0209286227786 124.9696735001502 0
159 171.1967841194422 306.6668684891335 0
160 179.5465310283889 249.8784784719206 0
161 175.28964279992 40.89862717863011 0
162 186.6526955208828 226.5751619083518 0
163 185.0536895090354 276.7863200983211 0
164 178.6320428313555 295.4335661125855 0
165 185.2529007315034 249.9657481520734 0
166 179.5944424951369 126.0034043667857 0
167 184.5366851806641 142.1334899902343 0
168 200.7704141037099 360.4505129533659 0
169 118.1357878658434 246.6739252493342 0
170 190 138.3 0
171 191.5362631513004 246.4451921211102 0
172 186.8228285544015 113.1114799624361 0
173 191.2373056767779 245.0032114567595 0
174 193.9161063844009 296.9810393752002 0
175 194.7 161.1 0
176 196.0701485057962 243.8124556382772 0
177 200.2622642320374 114.4277170435515 0
178 199.1149029354565 241.3337975173257 0
179 199.8044744354613 241.585781214001 0
180 199.8260833545087 157.9561243161102 0
181 200.5850970645435 158.1667563797906 0
182 200.8950746734737 284.9656017562138 0
183 203.5104845240984 155.757905113888 0
184 205 238.4 0
185 208.3139013437173 154.5661356319281 0
186 209.8 261.2 0
187 288.8772714719093 368.0556959994282 0
188 214.707585880228 107.4918197331147 0
189 212.2571717491688 150.7443602349983 0
190 210.5414442972315 101.2106261943242 0
191 211.0178069921457 124.8939339913587 0
192 219.5311558292693 274.4790429725932 0
193 364.7102736933132 294.6323034373755 0
194 214.147786702428 286.4527528074101 0
195 213.2475098516118 174.2789579803871 0
196 218.5377959861898 150.2610361539581 0
197 224.5400542963613 144.1922190746989 0
198 225.1663639014902 103.0671428517658 0
199 211.8446764615351 39.77344648314268 0
200 230.4085839308858 114.3482648538938 0
201 232.4516885638921 92.42148598173004 0
202 238.6549540604219 137.3827032395173 0
203 237.6872749202862 239.9472908377015 0
204 232.8496984986765 275.1269947173445 0
205 242.4301726657431 96.90949973071334 0
206 237.4805446624756 262.8524700164795 0
207 233.0623971611052 145.1259616582496 0
208 242.0633377737532 45.63881684178295 0
209 247.6 255.6 0
210 252.3182332704688 104.5957436725958 0
211 252.2 261.7 0
212 250.23820444558 86.95547301893984 0
213 251.1973201168177 140.6708035874897 0
214 260.4004148003744 92.17200175623799 0
215 251.0696465401712 352.278950498809 0
216 258.8604242753747 129.0681340457399 0
217 268.7383413330685 98.98385633350688 0
218 268.925913131935 83.09469385033884 0
219 279.0786505197814 62.9277252624889 0
220 267.4319973548422 249.9443027129964 0
221 272.1023346568876 236.2183023988506 0
222 276.7847224075504 89.65543501899367 0
223 273.3680083249146 203.5843891793803 0
224 270.2845568378672 139.4738541528777 0
225 281.940098535712 95.77472885020276 0
226 285.7813502430345 224.1274259853779 0
227 288.6599991910345 89.2599007086779 0
228 284.6650416458772 81.74855253107356 0
229 290.1 332.8 0
230 290.3 148.9 0
231 286.5343210951232 120.9635178959558 0
232 294.786939482596 74.90205754412786 0
233 292.1551459689578 94.33272425300525 0
234 293.885870887902 82.05528170725127 0
235 290.7492813094627 174.1947946631367 0
236 289.8612224166533 230.7155355909692 0
237 294.8683843142332 215.4144766900801 0
238 298.0587370937571 90.17104608062967 0
239 301.5391803298684 94.12258860524574 0
240 298.4003879566533 119.0458839143469 0
241 303.9 83.7 0
242 307.889881867091 118.4896200258757 0
243 305.6764224933486 92.13088221491691 0
244 308.5428879105788 94.99340411437301 0
245 307.217514470451 213.5852745791214 0
246 310.7401601945013 94.42491284794872 0
247 312.0916046248749 95.93603554945435 0
248 312.7377902475503 95.6761013825419 0
249 309.5050064836253 199.766925297726 0
250 315.3982784628566 97.81797302500405 0
251 317 99.49999999999994 0
252 317.370853805542 100.0365871429443 0
253 317.9 100.6999999999999 0
254 322.1909279033993 196.1640601939714 0
255 324.2365232417187 120.9330709528712 0
256 322.4465558773522 183.1934231989337 0
257 332.3292508843266 125.6111878666479 0
258 333.7109735466114 126.9747915175913 0
259 334.3445619329809 127.7009258441627 0
260 334.459375 126.590625 0
261 334.540625 126.809375 0
262 328.1067429567831 296.3294167892168 0
263 334.9 127.9 0
264 333.4436344513634 179.946020684776 0
265 335.5360528771674 128.9685000520209 0
266 333.0521435186076 164.9989696228116 0
267 338.8251112588835 143.0333302083104 0
268 340.0943910607978 167.4033799559465 0
269 343.8146927405542 157.6072924520797 0
270 346 147.6 0
271 349.3299884664835 257.0590972742847 0
272 351.0078124504176 160.2341518781946 0
273 356.3250188580879 180.9377272730363 0
274 358.1529666561993 215.7488072718472 0
275 400 0 0
276 400 400 0
277 -56.56854333786077 -56.56854333786077 0
278 -56.56854333786077 456.5685433378608 0
279 456.5685433378608 456.5685433378608 0
280 456.5685433378608 -56.56854333786077 0
281 0 108.1343525536189 0
282 96.23569259013937 0 0
283 108.3001787259374 400 0
284 316.5970400898588 400.0000000000001 0
285 400 112.7618413889674 0
286 400 328.3636049438037 0
287 276.8191272532726 232.1703846906449 0
288 281.3794514712282 228.1391273712746 0
289 287.1413076342408 226.323462520575 0
290 288.501265025447 228.5194990557721 0
291 283.9415931633981 232.5497911935964 0
292 278.0219639101429 234.3840467962235 0
293 282.6166239749228 230.3497306225871 0
294 112.3630265368264 310.9804107824824 0
295 115.8242880279454 310.976747786506 0
296 117.4051963824748 313.490061034744 0
297 115.3890864810522 316.1442607939886 0
298 111.929551586535 316.1479743100033 0
299 110.4861265934404 313.4974880667733 0
300 113.9149177857941 313.5242518251971 0
301 196.4719650869923 242.5981864919597 0
302 193.845746915069 243.8214208733891 0
303 189.7091022914795 238.860528273957 0
304 188.1808989061811 232.7178450911544 0
305 190.806764659074 231.4947071113431 0
306 194.9608337972653 236.4142523143344 0
307 192.3311350876864 237.646567893175 0
308 336.1612080433676 157.2093656232581 0
309 338.0950748015671 149.8733648999379 0
310 340.4883050861071 147.8913176229002 0
311 342.1514989133307 152.7493050374899 0
312 340.2271763332387 160.0711848423236 0
313 336.6396599259232 162.5350772325676 0
314 338.8283189579533 155.1076897268532 0
315 288.4079293864014 112.086586681639 0
316 290.2815376776796 103.2096554673221 0
317 294.2368932981896 102.5704441401192 0
318 296.3186406274215 110.808164027233 0
319 294.5729489854506 119.5349607106821 0
320 290.6157330181532 120.1746742441774 0
321 292.3915042237811 111.4140679260534 0
322 334.2640745155372 126.8645138391971 0
323 333.9875240310743 126.9196526783942 0
324 333.960440697741 126.8467360117275 0
325 334.2099078488704 126.7186805058637 0
326 334.4873842592593 126.6626157407408 0
327 334.5126157407408 126.7373842592593 0
328 334.2369911822038 126.7915971725304 0
329 274.1651193156787 87.46852129610873 0
330 271.5455162238068 85.28160757322379 0
331 274.3551665552827 82.40411906696981 0
332 279.6056361842442 81.95442023722826 0
333 282.0382685664349 84.38418002704694 0
334 279.4114954869927 87.01980752302029 0
335 276.8329866130891 84.77903745822266 0
336 316.3779768354175 98.06886923588664 0
337 317.3576752079784 98.3197654467692 0
338 317.8915823870262 98.88044110510117 0
339 317.4457911935131 99.19022055255056 0
340 316.4905812712775 98.92274205593685 0
341 315.9565992833413 98.36206339480484 0
342 316.9173175802167 98.62585960818944 0
343 255.5958628258679 30.42587789452197 0
344 269.1283878779825 15.21293894726099 0
345 281.4668254599919 20.97590842082963 0
346 280.2727379898867 41.95181684165927 0
347 267.2892218507488 55.98454124602108 0
348 254.9201131423573 50.21642133802224 0
349 268.0528944856074 35.92600519917633 0
350 385.441672952696 166.3434836353971 0
351 370.8833459053919 173.6406054542167 0
352 354.9114358958981 173.9724529713301 0
353 353.1399479805673 167.067005891901 0
354 367.3385416336117 159.8382218576556 0
355 383.6692708168058 159.4422918371166 0
356 369.1907829437196 166.7247002906028 0
357 239.3504652303582 143.3059899504806 0
358 245.4024525215201 141.8191132583874 0
359 254.0955005832226 147.9080165364562 0
360 256.9936810496275 155.1452294854227 0
361 250.9487067310567 156.630282175676 0
362 242.0055519460809 150.8781219169628 0
363 248.1053263173134 149.3184401115016 0
364 238.4797527755464 90.39207350667172 0
365 244.4122485105946 88.56918913305798 0
366 247.6355271856344 90.27348192286435 0
367 245.0328499256888 93.59149082678884 0
368 239.1040112984595 95.41349514771892 0
369 235.7778499311758 93.91749056472449 0
370 241.7291450335905 92.04929775924549 0
371 191.3026404469468 113.5502256561413 0
372 195.7824523394921 113.9889713498464 0
373 193.4236518095335 118.0415345151625 0
374 186.530438471168 121.8999388291909 0
375 182.0039045148918 121.7060962320025 0
376 184.4133665346466 117.4087880972193 0
377 188.9039988220283 117.7931284502595 0
378 360.3237063682998 145.1401956742801 0
379 355.6657594093587 152.6871737762373 0
380 349.4828363627549 155.9848676823229 0
381 347.8137921468953 151.7724289985206 0
382 352.3272177757469 144.2644058574409 0
383 358.6544355514939 140.9288117148818 0
384 354.0285792658008 148.4672503504668 0
385 63.58055096709508 269.4669287858707 0
386 64.20474708808234 270.7009426893405 0
387 61.56771599517707 272.5668419142738 0
388 58.23543199035413 273.2336838285476 0
389 57.61111354749033 271.9998512492712 0
390 60.31907910944946 270.099176755721 0
391 60.92764792828758 271.3407170253352 0
392 225.4994109978358 270.7833262268622 0
393 231.4850308726863 266.9078747730187 0
394 235.9369292745426 266.9439782501012 0
395 234.3933138866095 271.0354864837228 0
396 228.4101842755408 274.9110108024274 0
397 223.970670052405 274.6950268875103 0
398 229.9507709277824 270.85946790334 0
399 61.01497476744562 230.0116161400348 0
400 63.30798490016752 225.5435802742736 0
401 67.15050839717239 223.8166299165125 0
402 68.40266604560081 226.6452281773159 0
403 66.11064296667128 231.1116638195047 0
404 62.5664622393133 232.7495012008901 0
405 64.79207725234438 228.3030462449595 0
406 372.1019777707996 231.3369146028865 0
407 386.0509888853998 246.9250219339257 0
408 383.1099961554945 260.6951186014048 0
409 366.219992310989 258.8771079378448 0
410 353.5783416961416 243.5174426263855 0
411 356.5264601009899 229.7141791809899 0
412 369.4523013380553 245.1540909660593 0
413 68.40266604560082 226.6452281773159 0
414 67.15050839717239 223.8166299165125 0
415 70.82072211138669 218.1232752348827 0
416 75.74309347402941 215.2585188140564 0
417 76.51803966541617 218.2339288398833 0
418 72.84507589951194 223.931360068724 0
419 71.96652720806252 220.9849512820482 0
420 106.3561379700049 242.0705468569848 0
421 107.119530404438 231.5783256481662 0
422 113.6670681883969 228.5460549665559 0
423 115.9014280271201 237.609990107945 0
424 115.2238585772289 247.9826168328894 0
425 112.3119292886145 249.2913084164447 0
426 112.1720498523689 239.314987544832 0
427 354.4567502087601 269.5834993286483 0
428 359.5835119510366 282.1079013830119 0
429 352.5090967811365 295.1980078879893 0
430 340.3079198689598 295.7637123386031 0
431 336.509434917684 283.808907673775 0
432 343.591730876904 270.6821196766906 0
433 347.6783833023401 282.796107309955 0
434 296.3186406274215 110.8081640272331 0
435 294.2368932981896 102.5704441401192 0
436 295.4169425110839 94.11741480466952 0
437 298.5467698110277 94.04691236126232 0
438 300.4929162054634 102.4303537082795 0
439 299.4466520810583 110.7381188113132 0
440 297.3948365321915 102.4680671806083 0
441 99.98999725750684 297.2714633273769 0
442 98.59461567612864 289.0454710513742 0
443 102.8470146638902 288.6860852473594 0
444 108.4947952330299 296.5526917193474 0
445 109.6845449617407 305.0141659063663 0
446 105.4283529729772 305.3745102304899 0
447 104.1962788334532 296.9645133391556 0
448 315.9565992833413 98.36206339480484 0
449 316.4905812712774 98.92274205593684 0
450 316.5800689888994 100.0171493151864 0
451 316.1601379777989 100.5342986303729 0
452 315.6262307987511 99.97362297204099 0
453 315.5122546308038 98.89579799852251 0
454 316.0515953756029 99.45278837082533 0
455 72.19520141018182 277.7242440392553 0
456 68.45414715292007 276.7147718366967 0
457 64.97840451173832 274.4641848927836 0
458 65.24371612781833 273.223070151429 0
459 68.39007299582171 274.7431556106292 0
460 71.8756190596123 276.9910960906925 0
461 68.5883930627881 275.5868326563902 0
462 304.8391635832189 118.5541561839584 0
463 301.6747097232555 118.7399255098392 0
464 301.6605819758343 113.9420299963073 0
465 304.9207759950153 108.8381760782676 0
466 308.0839406318278 108.6527547821105 0
467 307.9869112494594 113.5711874039931 0
468 304.8485914440614 113.7297840061029 0
469 94.89403218867662 313.4211040218573 0
470 93.08806437735323 310.0422080437145 0
471 92.7140642162862 307.328035180181 0
472 94.21760528399281 307.9375690462006 0
473 96.09425416826451 311.2612496658456 0
474 96.39712708413225 314.0306248329228 0
475 94.57540279301469 310.6639974838957 0
476 303.9825340033071 94.30404414432326 0
477 306.3182352007398 94.5940309437552 0
478 308.4222486117846 97.90704346299131 0
479 308.3016093129904 100.8206828116096 0
480 305.9670401194203 100.5304109752338 0
481 303.7531102246443 97.32649979023979 0
482 306.1119795252811 97.59255855644442 0
483 317.4655719313758 115.1198745681844 0
484 320.8510475865473 118.0264727605278 0
485 319.364952570493 119.5641722129834 0
486 313.9041625835932 118.7529035842651 0
487 309.9532866701288 116.3975054758641 0
488 312.0166914731666 114.3053909258525 0
489 315.5291349111465 117.0891429869184 0
490 315.4345742632054 93.69229452134061 0
491 314.0861822553778 94.68419795194126 0
492 312.0923653454401 95.24415186872793 0
493 311.4264254000198 94.82708648458842 0
494 312.7544288866785 93.85007226221248 0
495 314.7686975788557 93.27523167647622 0
496 313.424843382518 94.26382667627973 0
497 80.14093753333319 286.5438235666513 0
498 78.03859660038839 282.6387699042326 0
499 82.15615329682859 280.2785487827988 0
500 89.26665798351812 280.9676358262479 0
501 92.21391555192629 284.0292782599377 0
502 87.22859700910213 287.2390777445038 0
503 84.93595846706319 283.5221340367364 0
504 82.78088365820679 299.9342347123363 0
505 82.64581089540351 299.7734883456828 0
506 82.55845474290768 299.623865331512 0
507 82.60422737145382 299.636932665756 0
508 82.73929227193194 299.7976868947347 0
509 82.8285845438639 299.9453737894693 0
510 82.69309026821389 299.7850489356626 0
511 290.1114549163106 59.1544781956415 0
512 301.1442593128398 55.38123112879408 0
513 306.380355633778 59.37267522267373 0
514 300.583647558187 67.13736638340079 0
515 289.721008208235 70.64855322238587 0
516 284.4815636750818 66.65654688154935 0
517 295.3849936684643 63.08762421144541 0
518 313.6726542005067 96.35620556664809 0
519 314.5597011023899 97.07017151103939 0
520 314.4822371817709 97.85272363838388 0
521 313.5661959006852 97.88747425176371 0
522 312.6793664955831 97.17351703760966 0
523 312.7085783715667 96.42480921007578 0
524 313.6061062869454 97.13124449868999 0
525 82.30326277707417 299.3457239640122 0
526 82.09900295950666 299.0754904110364 0
527 82.14999999999996 299.0833333333333 0
528 82.39999999999996 299.3666666666667 0
529 82.60422737145383 299.636932665756 0
530 82.55845474290768 299.623865331512 0
531 82.35306999614487 299.3547567077316 0
532 82.00724795159303 300.3806448673998 0
533 81.50181378882453 301.1504917375315 0
534 81.29758641737067 300.8802257384422 0
535 81.59879320868531 299.8401128692211 0
536 82.09900295950666 299.0754904110364 0
537 82.30326277707417 299.3457239640122 0
538 81.80186320483021 300.1115362436194 0
539 270.5455555562058 240.7936358368992 0
540 268.988776455524 245.3689692749478 0
541 260.8213315698948 251.8295351419976 0
542 254.2106657849474 253.7147675709988 0
543 256.1424382139405 249.1240728197646 0
544 264.3124787364815 242.6596666244185 0
545 262.4617309254138 247.2503613756526 0
546 209.4526970311454 386.816837651122 0
547 205.1115555674277 373.633675302244 0
548 217.6015574091559 359.6036017414659 0
549 234.4222603738598 356.8890399006719 0
550 238.6443771917352 368.185966999206 0
551 226.2191078432992 384.092983499603 0
552 221.8983838394853 371.3279520607209 0
553 250.6666666666667 259.6666666666666 0
554 249.1333333333333 257.6333333333333 0
555 254.2106657849474 253.7147675709988 0
556 260.8213315698948 251.8295351419976 0
557 262.4905993991894 253.8573053120911 0
558 257.4128619036135 257.7765179356783 0
559 255.7741617791652 255.7469365193069 0
560 300.7467223663563 76.96920590975836 0
561 306.7065052501165 79.03635427538885 0
562 309.7441920892512 81.96900176067956 0
563 306.8220960446255 82.83450088033979 0
564 300.9402259248616 80.66381120893168 0
565 297.9016879926597 77.73102080423909 0
566 303.8016285871493 79.87882833605383 0
567 318.1915823870262 99.28044110510118 0
568 318.0457911935131 99.99022055255057 0
569 317.7286441802978 100.4763080596923 0
570 317.5522003173828 100.255191040039 0
571 317.6930270638744 99.54794531451346 0
572 318.0152003222069 99.05930348608261 0
573 317.8705192055981 99.76851759539724 0
574 86.34658245468614 306.8429583265853 0
575 84.6470657264347 308.9105222733004 0
576 83.90231127221821 308.3308411895761 0
577 84.85707354625313 305.6835961591364 0
578 86.52312139142289 303.6397281076875 0
579 87.26800198460521 304.219412882225 0
580 85.59440448633657 306.2685434074548 0
581 249.1333333333334 257.6333333333333 0
582 250.6666666666667 259.6666666666666 0
583 247.2935148874919 262.0841566721598 0
584 242.3870297749837 262.4683133443197 0
585 240.854702758789 260.4920440673828 0
586 244.2282978057861 258.0745670318603 0
587 245.7604544321696 260.0635056813558 0
588 304.3687573958036 321.8231804192612 0
589 317.0490523775615 309.6133475365549 0
590 333.3218561904617 306.9642026952088 0
591 338.5369694241404 317.5989886012008 0
592 325.8680551052126 329.7558496714619 0
593 307.9840275526063 331.2779248357309 0
594 321.0097270733765 319.3774094506475 0
595 209.73021602611 285.9570357903447 0
596 205.3126453497918 285.4613187732792 0
597 207.0651284902219 281.6682938378849 0
598 213.2800540617864 278.1728590537298 0
599 217.7366994536555 278.4702795841988 0
600 215.9422430780418 282.4615161958044 0
601 211.5156670738643 282.0098556412732 0
602 223.970670052405 274.6950268875103 0
603 228.4101842755408 274.9110108024274 0
604 226.6169299804286 279.0754798041061 0
605 220.3798883046476 282.851491342503 0
606 215.9422430780418 282.4615161958044 0
607 217.7366994536555 278.4702795841988 0
608 222.1761395750104 278.7248439015442 0
609 29.83245458815163 221.0328537978225 0
610 14.91622729407582 216.8405900417198 0
611 14.07838541666666 200.7398998154114 0
612 28.15677083333333 188.8314733452057 0
613 41.26325749914213 193.0737020998583 0
614 42.09046873750162 209.2249862934956 0
615 28.59126694456652 204.9488884564506 0
616 181.2882263013427 269.8639970200213 0
617 177.52276309365 262.9416739417213 0
618 177.566807875721 254.0691402866551 0
619 181.3993988173742 252.0510772720488 0
620 185.1864969906808 258.9059388008227 0
621 185.1200932498581 267.8461294495719 0
622 181.349741828347 260.9388195427397 0
623 245.7818970585629 266.3560870182691 0
624 239.3283243553786 270.8326098811237 0
625 234.3933138866095 271.0354864837229 0
626 235.9369292745426 266.9439782501012 0
627 242.3870297749837 262.4683133443197 0
628 247.2935148874919 262.0841566721598 0
629 240.8501391554135 266.6000107092801 0
630 370.8833459053919 188.241967260751 0
631 385.441672952696 195.5462072484656 0
632 386.0509888853998 207.1499005814026 0
633 372.1019777707995 211.4493539266249 0
634 358.4840326560471 204.1124691982726 0
635 357.8787840106507 192.4898444916865 0
636 371.702087521697 199.8363027209185 0
637 214.6445256295679 13.25781549438089 0
638 213.2446010455515 26.51563098876179 0
639 199.7221415983661 39.17685655882803 0
640 187.5163309242427 39.54842405222497 0
641 188.8745786044748 27.26575145242008 0
642 202.4595144090295 13.63287572621004 0
643 201.0711624095858 26.67438088162207 0
644 265.4457023138373 109.0119489042512 0
645 262.153063294606 119.0400414749955 0
646 256.6796939404061 120.9106705880252 0
647 254.4989636054374 112.7532071303105 0
648 257.928557530044 102.4998211051022 0
649 263.4059876818112 100.628169489088 0
650 260.0032185827837 110.832399193735 0
651 282.769100288149 237.0883267962757 0
652 275.2908675293109 243.5008294388085 0
653 268.988776455524 245.3689692749479 0
654 270.5455555562058 240.7936358368992 0
655 278.0219639101429 234.3840467962235 0
656 283.9415931633981 232.5497911935963 0
657 276.5503790367904 238.9515266710631 0
658 206.6 246 0
659 208.2 253.6 0
660 206.4681581451537 254.6619270713337 0
661 203.1363162903075 248.1238541426674 0
662 201.5344968954634 240.5363451990883 0
663 203.2664009669771 239.4744013321754 0
664 204.8677607481514 247.064700995474 0
665 200.6467656705308 249.6083037588515 0
666 205.2233828352654 255.4041518794257 0
667 203.7120877171001 256.2817307070368 0
668 197.6241754342003 251.3634614140735 0
669 193.0454404415459 245.5774425965251 0
670 194.556777718377 244.6998523880536 0
671 199.1350046082351 250.4880656114838 0
672 215.8957583067621 238.9157636125672 0
673 226.7915166135242 239.4315272251343 0
674 228.8817303064823 247.1496252653245 0
675 219.5760496667327 254.2477890001506 0
676 208.2 253.6 0
677 206.6 246 0
678 217.6035922015319 246.543555104542 0
679 220.0326385282895 137.7594573802522 0
680 215.5252227602176 131.3266956858054 0
681 217.5411379915534 121.1520124941075 0
682 224.0094744936046 117.6355948682872 0
683 228.4524073860443 124.2962495941622 0
684 226.4962308412028 134.2442343344305 0
685 222.0026174689228 127.7609624752218 0
686 308.7425091459005 204.3730417248578 0
687 307.9800118081757 208.9791581519896 0
688 303.1011377517117 214.1950086161077 0
689 298.9847610329724 214.8047426530939 0
690 300.0513670236415 210.137162677199 0
691 304.931827279041 204.9189653807376 0
692 303.9313910344169 209.5749728634348 0
693 317.9622874301413 197.3650152285563 0
694 313.7336469568833 198.5659702631411 0
695 314.2112249845852 194.1396120375305 0
696 318.5272377946487 188.6119110918801 0
697 322.3613465527012 187.5169688639463 0
698 322.2761372280503 191.8405145289588 0
699 318.1349301345986 193.0182667449605 0
700 288.501265025447 228.5194990557721 0
701 287.1413076342407 226.323462520575 0
702 288.8970412064553 221.2096111301657 0
703 291.9263072020879 218.3049179524507 0
704 293.1993303483732 220.5148296570432 0
705 291.5302763825133 225.6151826240062 0
706 290.1896094192264 223.4161045784934 0
707 330.0677562979446 185.2553908236303 0
708 326.3153720432851 190.6637708844745 0
709 322.2761372280503 191.8405145289588 0
710 322.3613465527012 187.5169688639463 0
711 326.1122487353559 182.1109556942145 0
712 329.7779415933597 181.0284881894952 0
713 326.1102134092013 186.4132881180445 0
714 317.5799376144785 201.8921649159287 0
715 312.5872018189299 207.7017883828476 0
716 307.9800118081757 208.9791581519896 0
717 308.7425091459005 204.3730417248578 0
718 313.7336469568833 198.5659702631412 0
719 317.9622874301413 197.3650152285563 0
720 313.0554492924427 203.1548220820156 0
721 301.7634225484571 219.2442274227711 0
722 295.9766158487868 224.9565119433263 0
723 291.5302763825133 225.6151826240062 0
724 293.1993303483732 220.5148296570432 0
725 298.9847610329725 214.8047426530939 0
726 303.1011377517117 214.1950086161077 0
727 297.3891850126836 219.8939766418355 0
728 144.9963858498205 175.253642281963 0
729 153.6353430612435 167.0419204928505 0
730 170.8732013025524 181.426818433815 0
731 178.7629484117176 204.0009901710834 0
732 170.1382595001005 212.1928290586613 0
733 153.6238234793182 197.8104962089708 0
734 162.0861665308398 189.6202965123914 0
735 215.0109385631378 166.2729840382441 0
736 216.7743672746637 158.2670100961011 0
737 223.4806850029085 148.3775822262904 0
738 228.3249643184566 146.6651766279298 0
739 226.4574347246074 154.8436270989621 0
740 219.8524722881096 164.5612925396746 0
741 221.6387294634211 156.5170698244219 0
742 329.7779415933597 181.0284881894952 0
743 326.1122487353559 182.1109556942144 0
744 326.5595952754799 176.9413810188676 0
745 330.0983655179871 170.8712747764851 0
746 333.1826404961929 169.9813199767997 0
747 333.3131374737782 174.9636703307878 0
748 329.7762514377196 176.0039448325746 0
749 333.3131374737782 174.9636703307878 0
750 333.1826404961929 169.9813199767997 0
751 335.3995593660044 165.8004397338565 0
752 337.746975213401 166.6019098449015 0
753 338.135481660748 171.5070755997884 0
754 335.9177560178936 175.6892442713227 0
755 335.5873021398652 170.7657811134434 0
756 336.6396599259232 162.5350772325676 0
757 340.2271763332387 160.0711848423236 0
758 342.7547258577313 160.8129742071909 0
759 341.5141720403766 164.07906056737 0
760 337.7469752134011 166.6019098449015 0
761 335.3995593660044 165.8004397338565 0
762 339.0270551174038 163.3233653843386 0
763 341.2167408392557 144.555553472207 0
764 343.6083704196278 146.0777767361035 0
765 345.4894433355535 150.8571828302619 0
766 344.760425490882 154.1938765898053 0
767 342.1514989133307 152.7493050374899 0
768 340.4883050861071 147.8913176229001 0
769 342.9282875649105 149.3961816610175 0
770 334.2114807477299 120.3217843583973 0
771 333.2703658160283 122.9664861125226 0
772 329.9522295638302 123.7735172331671 0
773 327.2506791194436 122.2152178741253 0
774 327.8752140542897 119.8477415033381 0
775 331.5139048668606 118.762412053805 0
776 330.6435826637399 121.3453889510163 0
777 270.1776681138425 166.319893177305 0
778 280.4634747116526 170.2573439202209 0
779 286.6406446449427 183.4278380387678 0
780 280.813733509254 193.2709049661121 0
781 268.8759593886205 189.8504069310499 0
782 264.3839104523265 176.1164246827195 0
783 275.0405046634498 179.9338264436757 0
784 309.7640805942229 95.27133639429083 0
785 310.9471979806554 95.58549353793894 0
786 312.2777879564497 96.59809865468407 0
787 312.4639712880246 97.26016175991379 0
788 311.2810657165926 96.94595128155336 0
789 309.9119768135856 95.96967769796318 0
790 311.103414167176 96.27582042836833 0
791 317.1800689888994 100.8171493151865 0
792 316.4601379777988 100.934298630373 0
793 316.2837559129795 100.7131610113544 0
794 316.8273048592607 100.3748740771493 0
795 317.5522003173828 100.255191040039 0
796 317.7286441802978 100.4763080596923 0
797 317.0047970009844 100.5954463580331 0
798 333.0392922562178 125.9376669110986 0
799 333.7493336281088 126.2641459555493 0
800 334.2099078488705 126.7186805058638 0
801 333.960440697741 126.8467360117275 0
802 333.2668056459935 126.5065967646657 0
803 332.8061894462456 126.0520735467068 0
804 333.5035076615684 126.3891671199834 0
805 338.5273225429549 137.9762295360441 0
806 337.4357691855304 133.2808518966396 0
807 338.2685079232294 128.5405199793258 0
808 341.0009629692914 128.1125399066308 0
809 342.0973157631968 132.8008166253939 0
810 340.4612135110401 137.9170734168522 0
811 339.5428526718497 133.1460468283504 0
812 334.1375146248763 127.4554648379005 0
813 333.9263132881334 127.2134214682795 0
814 333.9875240310743 126.9196526783942 0
815 334.2640745155371 126.8645138391971 0
816 334.475270644327 127.1065586147209 0
817 334.409916288654 127.4037422294418 0
818 334.1996415413549 127.1609384477431 0
819 316.3214036683075 94.40625173549466 0
820 315.859841065582 96.11211238024936 0
821 314.5597011023899 97.07017151103939 0
822 313.6726542005067 96.35620556664809 0
823 314.0861822553779 94.68419795194126 0
824 315.4345742632054 93.69229452134061 0
825 314.9837101707565 95.39063324055547 0
826 312.0242454874183 85.54397270999581 0
827 311.3822028409598 89.98444277897227 0
828 309.1483257027363 93.58699592189363 0
829 307.4597252366763 92.82229143221423 0
830 308.006377706858 88.45508902361773 0
831 310.3363329203673 84.77929583231854 0
832 309.7155645240825 89.20348726698859 0
833 211.7584631416721 153.0560146294749 0
834 215.1672594727921 151.6207652185052 0
835 216.7743672746638 158.2670100961011 0
836 215.0109385631378 166.2729840382441 0
837 211.6029736823136 167.7080171975674 0
838 209.9584375130154 161.1370764147478 0
839 213.3746274254571 159.6853330401016 0
840 296.6677816918054 87.46579128950354 0
841 295.2768262898537 84.76053649837741 0
842 297.3709574695126 82.44690325685258 0
843 300.7109639016164 82.9946702130993 0
844 301.9529123645857 85.8570153602099 0
845 300.0058247291714 88.01403072041978 0
846 298.6477638253561 85.2739194584826 0
847 290.4019564233237 86.8583610415357 0
848 292.1439136556128 84.45682137439348 0
849 295.2768262898537 84.76053649837741 0
850 296.6677816918054 87.46579128950353 0
851 295.0720700877645 89.73415438268779 0
852 291.9374913056353 89.43037238016737 0
853 293.567182958521 87.13247394035824 0
854 284.8622578271262 89.22701384768953 0
855 280.9015563128011 89.35876726324661 0
856 279.4114954869927 87.0198075230203 0
857 282.0382685664349 84.38418002704694 0
858 285.9966941609296 84.25233525694168 0
859 287.3283466759821 86.7561179828098 0
860 283.4053758083032 86.85134557327777 0
861 300.0058247291714 88.01403072041978 0
862 301.9529123645857 85.85701536020989 0
863 304.4921408311162 86.51029407163898 0
864 305.0842816622324 89.32058814327794 0
865 303.2807070498461 91.35925087526371 0
866 300.7400735104281 90.70591576474837 0
867 302.5767888593873 88.64100258123392 0
868 285.4563349668512 95.16061664492923 0
869 288.863018854006 94.67952842670834 0
870 290.2815376776796 103.2096554673221 0
871 288.4079293864013 112.086586681639 0
872 285.0029135753194 112.5672548807048 0
873 283.4715060555157 104.1709918654538 0
874 286.9014229017296 103.6606227739912 0
875 287.3283466759821 86.7561179828098 0
876 285.9966941609296 84.25233525694168 0
877 287.8280396312982 81.74661385175267 0
878 290.9027550022898 81.84859085131144 0
879 292.1439136556128 84.45682137439348 0
880 290.4019564233237 86.85836104153569 0
881 289.09029080825 84.33139725619417 0
882 273.2698617300417 97.73546255802114 0
883 277.6731574905685 96.66507101619366 0
884 283.4715060555157 104.1709918654538 0
885 285.0029135753194 112.5672548807048 0
886 280.602327841105 113.6369640418062 0
887 274.6703345870868 106.3104101876565 0
888 279.1003180270601 105.2009175143891 0
889 277.7488998270258 123.0548193183269 0
890 268.5079501208937 125.7607629757233 0
891 262.153063294606 119.0400414749955 0
892 265.4457023138373 109.0119489042512 0
893 274.6703345870868 106.3104101876565 0
894 280.602327841105 113.6369640418062 0
895 271.4734849653468 116.2033839086625 0
896 271.5455162238069 85.28160757322379 0
897 274.1651193156786 87.46852129610872 0
898 271.5311709792436 90.2450209017686 0
899 266.0655333969636 91.08370782569456 0
900 263.2422475775613 89.14623245427161 0
901 266.0840803547482 86.12046315230523 0
902 268.7494131319847 88.25196486988256 0
903 203.1777661886853 156.9266835603808 0
904 205.7543669128468 155.7263901305073 0
905 209.9584375130155 161.1370764147478 0
906 211.6029736823136 167.7080171975674 0
907 209.0267055892557 168.9082241135216 0
908 204.8059013268996 163.5374902466561 0
909 207.3858510525432 162.3284146283874 0
910 256.6361276294143 85.39679144697399 0
911 262.870533385219 84.10862105361205 0
912 266.0840803547482 86.12046315230523 0
913 263.2422475775613 89.1462324542716 0
914 257.0130113487763 90.43315884380527 0
915 253.6256078971781 88.69431593137256 0
916 259.8929045078651 87.34686127865082 0
917 245.0328499256888 93.59149082678886 0
918 247.6355271856344 90.27348192286433 0
919 253.6256078971781 88.69431593137256 0
920 257.0130113487763 90.43315884380527 0
921 254.5787556508347 93.50293820955818 0
922 248.5845372633476 95.08193811632624 0
923 251.0598979092397 91.95714426184519 0
924 236.782531681739 98.7610929827551 0
925 231.0249406959864 100.8135207500174 0
926 227.5948054556242 99.51859056175387 0
927 230.0232470097581 95.97003827174196 0
928 235.7778499311758 93.91749056472449 0
929 239.1040112984595 95.4134951477189 0
930 233.3728456893187 97.42137298254676 0
931 276.2747298279966 362.7967808325552 0
932 263.6721881840839 357.537865665682 0
933 264.4222246159211 347.0888607350555 0
934 277.461908569842 340.6009375929988 0
935 289.6924238239698 344.5518986664761 0
936 289.2848476479395 356.3037973329522 0
937 276.7616934090926 351.3349763693286 0
938 235.9061640172432 129.7045571109762 0
939 233.1573739740645 122.026410982435 0
940 239.8925307123821 119.2548879178425 0
941 249.3764774938784 124.1615109817912 0
942 252.2634640575907 131.5861969956395 0
943 245.5235508624798 134.3590040802583 0
944 242.6715025982579 126.8768522453437 0
945 221.7089938522754 104.4734821751217 0
946 218.2221430337675 105.9483507272014 0
947 213.3188720192292 105.3980885535179 0
948 211.9301581582303 103.304357373921 0
949 215.4164174986511 101.829465080138 0
950 220.2913907000706 102.4483039659519 0
951 216.8114854823526 103.9079596283396 0
952 233.9954911730082 139.543531894714 0
953 229.2891007636601 141.8137548713537 0
954 226.4962308412028 134.2442343344305 0
955 228.4524073860443 124.2962495941622 0
956 233.1573739740645 122.026410982435 0
957 235.9061640172432 129.7045571109762 0
958 231.2111511603214 131.9502139951313 0
959 220.2913907000707 102.4483039659519 0
960 215.4164174986511 101.829465080138 0
961 217.932385096481 98.0050870027037 0
962 225.241780957227 95.07393429511711 0
963 230.0232470097581 95.97003827174196 0
964 227.5948054556242 99.51859056175385 0
965 222.7399470533807 98.83829713391405 0
966 237.859563752958 110.7648300036015 0
967 245.1706019512368 107.5120201039988 0
968 254.4989636054374 112.7532071303105 0
969 256.6796939404061 120.9106705880252 0
970 249.3764774938784 124.1615109817912 0
971 239.8925307123821 119.2548879178425 0
972 247.2294525481142 115.9299188108666 0
973 258.0494893451632 139.71963600148 0
974 264.4256125272939 139.3170867820655 0
975 266.8203250639223 147.1100502467149 0
976 263.3560932899774 154.746246340552 0
977 256.9936810496275 155.1452294854227 0
978 254.0955005832226 147.9080165364562 0
979 260.5682711477693 147.3859295074942 0
980 233.2876760093794 184.0474350467181 0
981 253.327842167147 193.8159121130492 0
982 263.20213300177 215.5517915881753 0
983 251.2616268394159 227.7386291613363 0
984 229.5406865640614 218.0578465519301 0
985 221.3940982078366 196.1684022661586 0
986 241.8129839873803 205.9100727472041 0
987 199.0069896827323 149.9386034092586 0
988 194.5034948413661 144.1193017046293 0
989 197.419057249723 142.4481200783327 0
990 204.8381144994459 146.5962401566655 0
991 209.3502204845298 152.3786252865853 0
992 206.4343535651856 154.0498891165522 0
993 201.9244318440278 148.2592272334344 0
994 211.8440501634945 142.1275514871185 0
995 211.4309285778201 133.5107427392386 0
996 215.5252227602176 131.3266956858054 0
997 220.0326385282895 137.7594573802522 0
998 220.4700283183823 146.2997278296646 0
999 216.3748578087725 148.484011450303 0
1000 215.9436399105169 139.9265222081598 0
1001 188.1808989061811 232.7178450911544 0
1002 189.7091022914795 238.860528273957 0
1003 187.2914596988999 246.7269557559891 0
1004 183.3932805356756 248.3523878601733 0
1005 181.9152525258869 242.1107062840644 0
1006 184.2839740233848 234.3429340962081 0
1007 185.8011666897286 240.5075787998421 0
1008 184.2839740233848 234.3429340962081 0
1009 181.9152525258868 242.1107062840644 0
1010 174.3961234764718 251.7955956670475 0
1011 169.3576369776598 253.5238720280387 0
1012 171.8446199839879 245.565524621297 0
1013 179.2486577524353 236.0703432648244 0
1014 176.8540081671821 243.8803691466136 0
1015 132.5377138680747 153.3450245017563 0
1016 137.1050803509223 152.9260295268255 0
1017 135.3353433110387 157.5568637808346 0
1018 129.2301323947196 162.5923577763498 0
1019 124.8971360418843 162.9933449534602 0
1020 126.4337417135557 158.3786822150736 0
1021 130.9491635854895 157.9634849416365 0
1022 145.7574822779233 143.0356781839649 0
1023 143.7149645558466 147.7713563679299 0
1024 137.1050803509223 152.9260295268255 0
1025 132.5377138680747 153.3450245017563 0
1026 134.3425689617901 148.6207632755496 0
1027 140.9533636480794 143.4646140332289 0
1028 139.0948853201815 148.1927244353152 0
1029 153.0493850285143 137.6569419781381 0
1030 158.2987700570285 137.0138839562762 0
1031 159.7974296350521 138.9761885888869 0
1032 156.0474369906492 141.6525555546137 0
1033 150.8 142.3666666666667 0
1034 149.3 140.3333333333333 0
1035 154.5490196440875 139.6744884458143 0
1036 143.7149645558466 147.7713563679299 0
1037 145.7574822779233 143.0356781839649 0
1038 149.3 140.3333333333333 0
1039 150.8 142.3666666666667 0
1040 148.6933420612032 147.1034637795206 0
1041 145.1506356308813 149.8060883623743 0
1042 147.2432079288471 145.0692912495205 0
1043 187.9244567871094 148.4556599934895 0
1044 191.3122283935547 154.7778299967448 0
1045 184.1278180644624 160.3508822321822 0
1046 173.5556361289248 159.6017644643644 0
1047 169.8659500120522 153.213455236528 0
1048 177.0551309152708 147.6337551974344 0
1049 180.6734844083806 154.0132759786138 0
1050 211.4309285778201 133.5107427392386 0
1051 211.8440501634944 142.1275514871184 0
1052 204.8381144994459 146.5962401566655 0
1053 197.4190572497229 142.4481200783327 0
1054 197.0235065739014 133.5874491210668 0
1055 204.0351505061563 129.1173231177987 0
1056 204.4295318124284 137.9250801029531 0
1057 189.6331512386123 147.4077014321929 0
1058 194.7296172965605 152.6819128741516 0
1059 198.1191558566657 158.9919251189472 0
1060 196.4104016539271 160.0398998102722 0
1061 191.3122283935547 154.7778299967448 0
1062 187.9244567871094 148.4556599934895 0
1063 193.0213088624002 153.7271715035714 0
1064 193.2753611181696 144.8520414387034 0
1065 196.5507222363391 151.4040828774068 0
1066 194.7296172965605 152.6819128741516 0
1067 189.6331512386122 147.4077014321929 0
1068 186.3425681785301 140.849781177662 0
1069 188.1637357358579 139.5718639232494 0
1070 191.450880482138 146.1285553366345 0
1071 194.5034948413661 144.1193017046293 0
1072 199.0069896827323 149.9386034092586 0
1073 202.2835051719998 156.4842630070492 0
1074 201.055349064369 157.2170087838696 0
1075 196.5507222363391 151.4040828774068 0
1076 193.2753611181695 144.8520414387034 0
1077 197.779109999287 150.6699256278795 0
1078 173.6066360049144 120.8245389592741 0
1079 180.2113052488513 116.8708365661172 0
1080 184.4133665346466 117.4087880972193 0
1081 182.0039045148918 121.7060962320025 0
1082 175.4032712043508 125.6588274112405 0
1083 171.2120999135647 125.3142504556953 0
1084 177.8098647881707 121.3186550612134 0
1085 203.6886575871021 110.022020093809 0
1086 207.1150509421668 105.6163231440666 0
1087 211.9301581582303 103.304357373921 0
1088 213.3188720192292 105.3980885535179 0
1089 209.9337326829188 109.6790028940733 0
1090 205.1171807221107 111.9909106727195 0
1091 208.512771835695 107.6823184114553 0
1092 194.7646961939515 108.852568744998 0
1093 202.6779180201421 104.8839290074841 0
1094 207.1150509421668 105.6163231440666 0
1095 203.6886575871021 110.022020093809 0
1096 195.7824523394921 113.9889713498464 0
1097 191.3026404469468 113.5502256561413 0
1098 199.2175502903857 109.5182067996286 0
1099 164.7057462646214 132.5704417896596 0
1100 165.8633374437 128.7700576449049 0
1101 171.2120999135647 125.3142504556953 0
1102 175.4032712043508 125.6588274112405 0
1103 174.2567750020245 129.3146885389054 0
1104 168.9062388253632 132.7704245322051 0
1105 170.0567772063426 129.0825104637734 0
1106 154.157622198721 133.6785187486636 0
1107 160.5684480215623 129.234150204046 0
1108 165.8633374437 128.7700576449049 0
1109 164.7057462646214 132.5704417896596 0
1110 158.2987700570285 137.0138839562762 0
1111 153.0493850285143 137.6569419781381 0
1112 159.4458214136077 133.1738326395837 0
1113 28.15677083333333 171.7665258588529 0
1114 14.07838541666666 166.6100048427057 0
1115 16.17424390692512 156.9715477093688 0
1116 32.34848781385024 152.489611592179 0
1117 45.78748867105767 157.5333689159107 0
1118 43.68925185156851 167.1831451346604 0
1119 30.11027960713077 162.1042678033583 0
1120 81.25208566177338 203.5207128385217 0
1121 85.51991686239057 202.2550441835883 0
1122 86.56476576349556 204.8376910469929 0
1123 83.52331348648623 208.6401779398561 0
1124 79.43839471150017 209.8579687599718 0
1125 78.21132458632816 207.3221751267135 0
1126 82.43858538142337 206.0670321456649 0
1127 106.593557636966 179.6046998659564 0
1128 107.7970180528754 174.9434374867225 0
1129 113.7871624359275 169.3907859689414 0
1130 118.5738464030702 168.4993968303941 0
1131 117.0623510604044 173.2029128179929 0
1132 111.0704590412336 178.7581549493148 0
1133 112.5150556322813 174.061725884872 0
1134 118.5738464030702 168.4993968303941 0
1135 113.7871624359275 169.3907859689414 0
1136 115.0367282516258 164.8056060320113 0
1137 121.3611639303583 159.2976961812705 0
1138 126.4337417135557 158.3786822150736 0
1139 124.8971360418843 162.9933449534602 0
1140 120.0467927778496 163.8910793841304 0
1141 99.84187419736045 189.9111382210449 0
1142 94.63915057563462 195.4884859237614 0
1143 90.26887267812162 196.6579503565659 0
1144 90.74999729323547 192.3265251844769 0
1145 95.95078034591843 186.7520540899887 0
1146 100.6704387834876 185.5090081675895 0
1147 95.39223122957465 191.0995110810733 0
1148 96.79655235303203 182.1473370857723 0
1149 102.7211790104567 176.2405843141051 0
1150 107.7970180528754 174.9434374867225 0
1151 106.593557636966 179.6046998659564 0
1152 100.6704387834876 185.5090081675895 0
1153 95.95078034591843 186.7520540899886 0
1154 101.794580420103 180.8600398194668 0
1155 85.51991686239057 202.2550441835883 0
1156 81.25208566177336 203.5207128385217 0
1157 81.37634003965715 199.26459116065 0
1158 86.12671769916504 193.6651922232621 0
1159 90.74999729323547 192.3265251844769 0
1160 90.26887267812162 196.6579503565659 0
1161 85.92189496298404 197.9400969979515 0
1162 78.21132458632816 207.3221751267135 0
1163 79.43839471150015 209.8579687599718 0
1164 75.74309347402942 215.2585188140564 0
1165 70.82072211138669 218.1232752348827 0
1166 69.21574363179145 215.6857810664129 0
1167 72.91251406060648 210.2828491415125 0
1168 74.43220695802384 212.7443048539938 0
1169 35.93333333333333 260.7006500967976 0
1170 17.96666666666667 269.0013001935952 0
1171 14.91622729407581 259.9430060449036 0
1172 29.83245458815163 242.5840617994144 0
1173 47.15702890716893 234.4266013268904 0
1174 50.20535936867958 243.4949323301672 0
1175 32.7399724489226 251.6752910706763 0
1176 84.20668375554406 302.664346955019 0
1177 82.60153169080004 302.2923427813411 0
1178 81.7975864173707 301.4468924051088 0
1179 82.59879320868535 300.9734462025544 0
1180 84.14698532007722 301.3841941804271 0
1181 84.95119495545687 302.2296522918627 0
1182 83.39011008825315 301.8275071725192 0
1183 59.8332052469606 248.1169194044939 0
1184 56.86660262348029 250.2584597022469 0
1185 54.94123693432659 246.629281428346 0
1186 56.65176602917445 240.6200320786655 0
1187 60.28145696478386 238.2500187570972 0
1188 61.54063241761238 242.112698931919 0
1189 58.42633217763715 244.305569776865 0
1190 59.98469644760573 262.9323348414472 0
1191 56.94234822380285 257.6661674207236 0
1192 56.8666026234803 250.2584597022469 0
1193 59.8332052469606 248.1169194044938 0
1194 61.26458494867232 254.0873250145788 0
1195 61.32601493430027 261.5162535266027 0
1196 59.54936721851906 255.6834823643338 0
1197 116.7802143248334 286.4226490616831 0
1198 115.4613950635015 295.4209736265092 0
1199 108.49479523303 296.5526917193474 0
1200 102.8470146638902 288.6860852473594 0
1201 103.7671882688921 280.1541213513223 0
1202 110.7439580515219 279.0196578488639 0
1203 109.7261565654172 287.6576978131832 0
1204 134.1590792891674 260.2398951148367 0
1205 126.9246854539433 259.8100045100484 0
1206 119.7954071892269 254.5205859843479 0
1207 118.9655975275352 250.597255616841 0
1208 126.1717181688536 251.0348801446259 0
1209 134.2076484718638 255.3958350399176 0
1210 126.8031910658029 255.1636764385573 0
1211 66.80161293580495 235.1829388522463 0
1212 64.51330251147775 240.6883558069771 0
1213 61.54063241761239 242.112698931919 0
1214 60.28145696478386 238.2500187570972 0
1215 62.5664622393133 232.7495012008901 0
1216 66.11064296667126 231.1116638195047 0
1217 63.69900256800989 236.6590801661967 0
1218 131.9732886331406 246.3318998985285 0
1219 121.7029984914071 232.9070098618476 0
1220 129.1019996382959 231.341648542701 0
1221 146.7712909269182 243.2011772602353 0
1222 156.6294226872218 257.1683155154245 0
1223 149.216243116052 258.7375552376256 0
1224 139.2791236481249 244.8874691171676 0
1225 118.9655975275352 250.597255616841 0
1226 119.7954071892269 254.5205859843479 0
1227 116.0827482593656 256.5367308082073 0
1228 112.3238157929528 253.9267951833701 0
1229 112.3119292886145 249.2913084164447 0
1230 115.2238585772289 247.9826168328894 0
1231 115.8738179279651 252.06368160481 0
1232 201.6176335771678 257.4552493840245 0
1233 193.4352671543356 253.7104987680489 0
1234 187.3423437495431 248.8115616492829 0
1235 189.4369119940484 247.6380121694176 0
1236 197.6241754342003 251.3634614140735 0
1237 203.7120877171001 256.2817307070367 0
1238 195.528620389911 252.5412727072297 0
1239 197.3137323143281 243.0767892175044 0
1240 198.5585309360406 242.3345581163143 0
1241 203.1363162903075 248.1238541426674 0
1242 206.4681581451537 254.6619270713337 0
1243 205.2233828352654 255.4041518794258 0
1244 200.6467656705308 249.6083037588515 0
1245 201.8912787925426 248.8675356709306 0
1246 201.5196153213843 266.7364034029879 0
1247 193.2615750747753 271.9341860560028 0
1248 185.1200932498581 267.8461294495719 0
1249 185.1864969906808 258.9059388008226 0
1250 193.4352671543356 253.710498768049 0
1251 201.6176335771678 257.4552493840245 0
1252 193.3608079565267 262.7267193457615 0
1253 166.6399011473578 268.0832843728231 0
1254 175.8467953281966 272.4348022355721 0
1255 175.8474631437139 281.8585228242923 0
1256 166.7818513670326 286.4675323444546 0
1257 157.7425581169834 281.6460016226459 0
1258 157.5877825417512 272.6888840663599 0
1259 166.7589313125339 277.1444703614973 0
1260 177.52276309365 262.9416739417213 0
1261 181.2882263013427 269.8639970200213 0
1262 175.8467953281966 272.4348022355721 0
1263 166.6399011473578 268.083284372823 0
1264 162.8096463024232 261.3092322136314 0
1265 168.2533157550131 258.7378227137237 0
1266 172.0671826988328 265.5453611077011 0
1267 144.0551826482836 269.2293798570724 0
1268 150.6770122097633 266.6052567475052 0
1269 157.5877825417512 272.6888840663599 0
1270 157.7425581169834 281.6460016226459 0
1271 151.1253861795664 284.268867392384 0
1272 144.3534386669172 277.934615605836 0
1273 150.9392435751408 275.3675838666775 0
1274 132.577130276203 311.955413213648 0
1275 134.4237156638803 314.2849501370241 0
1276 132.0474177365059 317.3295867186416 0
1277 127.92072308586 317.9050783403374 0
1278 126.1736764151414 315.4351056058022 0
1279 128.4521106518335 312.530490948037 0
1280 130.2767624386618 314.8911898419699 0
1281 139.1096800711435 289.0323899609851 0
1282 138.3455856127057 280.3163768901366 0
1283 144.3534386669172 277.934615605836 0
1284 151.1253861795664 284.268867392384 0
1285 151.7602455753988 293.2303959390534 0
1286 145.7476544766714 295.6133545631234 0
1287 145.0882877731631 286.7053207090636 0
1288 137.722561820471 313.6674124314371 0
1289 139.1748225893844 310.720337802474 0
1290 144.1720504300468 309.5690154851338 0
1291 147.7170175017958 311.3647677967568 0
1292 146.1600831054222 314.4861520762796 0
1293 141.1604254020903 315.6380747957329 0
1294 142.6962588702901 312.554892303345 0
1295 188.8214185333858 296.4652149543286 0
1296 183.7267306823707 295.9493905334571 0
1297 185.9447457812066 292.2435452197484 0
1298 193.3711699325799 288.7543821671678 0
1299 198.5687519104495 288.9707476292093 0
1300 196.2424291474252 292.9758935022047 0
1301 191.1242744307386 292.5265979166795 0
1302 150.2328303885074 310.753556654081 0
1303 149.20367620347 308.3465931997822 0
1304 152.3064759913884 304.795764673094 0
1305 156.5138286225251 303.5349131395737 0
1306 157.6157031454784 305.8248117653672 0
1307 154.4388438595116 309.4926659368734 0
1308 153.3933808038115 307.1117125351661 0
1309 196.2424291474252 292.9758935022048 0
1310 198.5687519104495 288.9707476292093 0
1311 205.3126453497918 285.4613187732792 0
1312 209.7302160261099 285.9570357903447 0
1313 207.3711684205475 290.176441924856 0
1314 200.6232977350486 293.686853530563 0
1315 202.9786084832973 289.5141872321423 0
1316 173.67520369008 302.9224343636175 0
1317 176.1536232607177 299.1780002381016 0
1318 183.7267306823707 295.9493905334571 0
1319 188.8214185333858 296.4652149543286 0
1320 186.2486690479294 300.5070544952776 0
1321 178.6694650243837 303.7371706277153 0
1322 181.2266715082295 299.7600821321574 0
1323 147.7170175017958 311.3647677967568 0
1324 144.1720504300468 309.5690154851338 0
1325 143.1100830891776 307.2078692114145 0
1326 145.626225214728 306.596667702233 0
1327 149.20367620347 308.3465931997822 0
1328 150.2328303885074 310.753556654081 0
1329 146.6806080864445 308.9679870085306 0
1330 167.7287102234432 305.163564857376 0
1331 164.2606363274442 303.6602612256185 0
1332 166.6309855581209 300.1266887526496 0
1333 172.5807012175108 297.8856525399184 0
1334 176.1536232607177 299.1780002381016 0
1335 173.67520369008 302.9224343636175 0
1336 170.1834721843956 301.4659993525401 0
1337 184.437662371077 373.633675302244 0
1338 168.1049106384442 386.8168376511219 0
1339 156.6082220801635 385.4378104450577 0
1340 161.4442852545157 370.8756208901154 0
1341 177.6113124023208 358.569481158404 0
1342 189.1263523340296 359.9516492726127 0
1343 172.9061851687711 372.4498910008995 0
1344 154.4388438595116 309.4926659368734 0
1345 157.6157031454784 305.8248117653671 0
1346 164.2606363274442 303.6602612256185 0
1347 167.7287102234432 305.163564857376 0
1348 164.4270322505073 309.0945811933389 0
1349 157.7773417536524 311.2603072324061 0
1350 161.0555109649411 307.3867264891505 0
1351 161.4442852545157 370.8756208901155 0
1352 156.6082220801635 385.4378104450577 0
1353 148.3612803756841 382.6671456654867 0
1354 144.9504018455569 365.3342913309733 0
1355 149.6099069135235 351.2599781935991 0
1356 157.8647924728695 354.0320025944838 0
1357 153.1589910658247 368.213524161261 0
1358 111.91656021238 378.5566672377501 0
1359 115.5329416988225 357.1133344755002 0
1360 126.3762360606797 340.2356792576137 0
1361 133.8470699309874 344.3474300134191 0
1362 130.4597417855989 365.3342913309733 0
1363 119.3799602557682 382.6671456654866 0
1364 122.9446150189854 361.3251096322726 0
1365 123.475157973216 293.7465806829444 0
1366 120.7870957796906 285.5854525899007 0
1367 125.3572805673039 284.1990173418492 0
1368 132.6155275484426 290.9737101868413 0
1369 135.1913654953348 299.3050517270188 0
1370 130.618603033227 300.6921383729571 0
1371 128.0201176310781 292.39804302291 0
1372 120.9126182487479 313.3371476048554 0
1373 122.4039302135986 315.8384339342113 0
1374 120.2930981993784 318.6136692233115 0
1375 116.7843803230633 318.7669028882397 0
1376 115.3890864810522 316.1442607939886 0
1377 117.4051963824747 313.490061034744 0
1378 118.8753149878101 316.0182797301834 0
1379 128.4521106518336 312.530490948037 0
1380 126.1736764151414 315.4351056058021 0
1381 122.4039302135986 315.8384339342113 0
1382 120.9126182487479 313.3371476048554 0
1383 123.072202705064 310.5645940190051 0
1384 126.8435727830667 310.1613132050534 0
1385 124.6561338187027 312.9631714607003 0
1386 133.9602006102963 309.0952306761011 0
1387 137.2599096117503 308.4777182172656 0
1388 139.1748225893844 310.720337802474 0
1389 137.722561820471 313.6674124314371 0
1390 134.4237156638803 314.2849501370241 0
1391 132.577130276203 311.955413213648 0
1392 135.8606966522629 311.3571876669037 0
1393 124.3823064613453 275.7804909648812 0
1394 130.8820433346583 273.8376632265357 0
1395 138.3455856127057 280.3163768901366 0
1396 139.1096800711435 289.0323899609851 0
1397 132.6155275484426 290.9737101868413 0
1398 125.3572805673039 284.1990173418492 0
1399 131.8051914295127 282.3236377688008 0
1400 115.4613950635015 295.4209736265092 0
1401 116.7802143248334 286.4226490616831 0
1402 120.7870957796906 285.5854525899007 0
1403 123.475157973216 293.7465806829444 0
1404 122.0338013480094 302.9046886121527 0
1405 118.02468925637 303.7424487827608 0
1406 119.4407981445219 294.6193472022368 0
1407 104.2218988933799 315.4933782100155 0
1408 101.9564067281519 312.5275047168322 0
1409 102.6422192818747 310.1363629814305 0
1410 105.7613936278214 310.5648757929886 0
1411 108.1909314197666 313.3844184500952 0
1412 107.3391612391872 315.9218350766469 0
1413 105.0370020457844 312.9884733309333 0
1414 84.6470657264347 308.9105222733004 0
1415 86.34658245468613 306.8429583265853 0
1416 89.07360261168024 305.4424068251434 0
1417 90.15252101378742 306.0717201116538 0
1418 88.50391404341434 308.101570117053 0
1419 85.7257315207988 309.5398281685343 0
1420 87.41390690199469 307.4806442764142 0
1421 89.98824639362371 304.2558779902719 0
1422 88.56032024396499 303.8680685643803 0
1423 86.55342216698756 301.6671273299509 0
1424 85.91767619601131 299.907460017878 0
1425 87.3452290778216 300.2953637713846 0
1426 89.40852793060813 302.4429348369641 0
1427 87.96848301726787 302.0668806401335 0
1428 96.39712708413225 314.0306248329228 0
1429 96.09425416826451 311.2612496658456 0
1430 97.05113437968183 308.8812995895286 0
1431 98.35118295172573 309.2378911374636 0
1432 98.69394304194927 311.9744208157659 0
1433 97.69697152097461 314.387210407883 0
1434 97.38521210689431 311.6251335746475 0
1435 82.27737775254926 300.7021533253571 0
1436 81.63687868930263 301.3112459665102 0
1437 81.50181378882453 301.1504917375315 0
1438 82.00724795159303 300.3806448673998 0
1439 82.64581089540351 299.7734883456828 0
1440 82.78088365820679 299.9342347123363 0
1441 82.14188347689924 300.5418284715503 0
1442 103.0840413009382 318.0604101406392 0
1443 99.81982412496387 317.5077595146619 0
1444 97.69697152097463 314.387210407883 0
1445 98.69394304194925 311.9744208157659 0
1446 101.9564067281519 312.5275047168322 0
1447 104.2218988933799 315.4933782100155 0
1448 100.9279323590989 314.9746185258495 0
1449 108.9380784689753 336.2135823059297 0
1450 98.72683375268542 336.7571628986091 0
1451 94.31878359088992 333.3828325354415 0
1452 100.1219781453843 329.4649215795945 0
1453 110.2121801090472 329.1073517341328 0
1454 114.6222325061918 332.4820247875812 0
1455 104.5033523883015 332.880625741064 0
1456 91.24372602426372 330.4671623275257 0
1457 93.97186301213185 323.6335811637628 0
1458 99.69715660652916 319.820220940645 0
1459 102.7730763537976 322.7360387140938 0
1460 100.1219781453843 329.4649215795946 0
1461 94.31878359088992 333.3828325354415 0
1462 97.02970505214118 326.5725012640111 0
1463 111.0255274433723 318.7469530407602 0
1464 108.7298763774471 318.6339960718766 0
1465 107.3391612391872 315.921835076647 0
1466 108.1909314197665 313.3844184500952 0
1467 110.4861265934405 313.4974880667733 0
1468 111.929551586535 316.1479743100032 0
1469 109.6226937664813 316.0485976773478 0
1470 335.1897580082976 126.3507588840248 0
1471 334.8651915041488 126.5800669420124 0
1472 334.5126157407407 126.7373842592592 0
1473 334.4873842592593 126.6626157407408 0
1474 334.8110248374822 126.4342336086791 0
1475 335.1626746749644 126.2778422173581 0
1476 334.8381081708155 126.5071502753457 0
1477 335.5215673006868 127.0704672346984 0
1478 335.5288100889271 128.0194836433596 0
1479 335.3303775802501 128.6092030050063 0
1480 335.1183631940328 128.2530315280472 0
1481 335.1047748374822 127.3071502753457 0
1482 335.3095496749643 126.7143005506914 0
1483 335.3182022295508 127.6626207905785 0
1484 263.3560932899774 154.7462463405521 0
1485 266.8203250639223 147.1100502467149 0
1486 278.7336658962903 140.9904331370637 0
1487 285.467606380314 144.1163233957959 0
1488 280.1639538386775 153.3941474781298 0
1489 270.0279076773549 157.8882949562595 0
1490 273.8939967222707 149.8890880157536 0
1491 293.1266566076978 155.9749384683631 0
1492 293.2254275565717 164.4781073883862 0
1493 280.4634747116526 170.2573439202209 0
1494 270.1776681138425 166.319893177305 0
1495 270.027907677355 157.8882949562595 0
1496 280.1639538386775 153.3941474781298 0
1497 280.9029145923658 161.5322180540211 0
1498 93.3809625538466 296.6668301934862 0
1499 95.29009832429853 288.7431544844288 0
1500 98.59461567612865 289.0454710513742 0
1501 99.98999725750684 297.2714633273769 0
1502 97.88101590095864 305.3994248916289 0
1503 94.57358895858192 305.0978436002729 0
1504 96.64074648759461 297.0146253144292 0
1505 60.19693060663384 95.6126647315337 0
1506 56.97827324626521 75.76344974266442 0
1507 72.40641059059772 59.54282316919677 0
1508 91.05320529529885 63.17141158459839 0
1509 91.58644993987936 81.15788408567914 0
1510 76.13454008019845 97.49165022293469 0
1511 75.02566817908581 78.99066644564502 0
1512 21.13852932233415 110.5768616092136 0
1513 42.27705864466831 113.0193706648083 0
1514 57.57572571691468 125.9897489035346 0
1515 52.60740691351895 136.8575434275184 0
1516 32.34848781385025 134.7165678345324 0
1517 16.17424390692512 121.4254601940756 0
1518 37.11775244510992 123.7988289314105 0
1519 232.1611025473949 42.99734014380962 0
1520 222.0752955502793 41.04004712398459 0
1521 213.2446010455515 26.51563098876179 0
1522 214.6445256295679 13.25781549438089 0
1523 224.7174127336406 15.21293894726098 0
1524 233.3903752536969 30.42587789452197 0
1525 223.3539752454448 28.31799043529395 0
1526 153.6238234793182 197.8104962089708 0
1527 170.1382595001005 212.1928290586613 0
1528 161.5793664638131 224.2108145472902 0
1529 136.5060374067434 221.8464671862284 0
1530 117.7785098440214 208.080026543116 0
1531 126.3918531299997 195.9861645332574 0
1532 144.5791823503432 209.9569159078137 0
1533 124.64699733967 44.53333333333335 0
1534 139.59399467934 22.26666666666667 0
1535 161.4572089459801 13.63287572621003 0
1536 168.37342587295 27.26575145242007 0
1537 152.7512354793613 46.03493740173869 0
1538 130.7549894061083 54.64638903882068 0
1539 146.3453873935933 35.11984231086885 0
$EndNodes
$Elements
372
1 2 0 285 56 139
2 2 0 284 120 145
3 2 0 282 154 13
4 2 0 286 113 17
5 21 0 221 226 236 287 288 289 290 291 292 293
6 2 0 146 12 24
7 2 0 34 2 33
8 2 0 117 151 15
9 21 0 93 101 94 294 295 296 297 298 299 300
10 2 0 126 31 11
11 2 0 17 112 286
12 2 0 18 3 113
13 2 0 286 112 276
14 2 0 24 275 8
15 2 0 26 281 111
16 2 0 109 135 28
17 2 0 178 162 184
18 2 0 23 5 124
19 2 0 28 135 286
20 2 0 276 119 43
21 2 0 43 119 14
22 2 0 282 122 147
23 2 0 284 14 120
24 21 0 178 173 162 301 302 303 304 305 306 307
25 2 0 18 113 136
26 2 0 23 124 146
27 2 0 141 127 281
28 2 0 31 1 154
29 2 0 143 118 283
30 2 0 12 123 24
31 2 0 143 4 118
32 2 0 126 1 31
33 2 0 118 15 283
34 2 0 284 109 28
35 2 0 127 11 281
36 2 0 2 128 33
37 2 0 33 128 10
38 2 0 139 18 273
39 2 0 142 61 25
40 2 0 2 34 151
41 2 0 142 33 10
42 2 0 141 6 127
43 2 0 19 6 141
44 2 0 47 7 83
45 2 0 25 100 7
46 21 0 95 162 90 1526 1527 1528 1529 1530 1531 1532
47 2 0 43 28 276
48 2 0 142 10 130
49 2 0 124 12 146
50 21 0 266 267 269 308 309 310 311 312 313 314
51 2 0 90 162 134
52 21 0 231 233 240 315 316 317 318 319 320 321
53 21 0 261 258 260 322 323 324 325 326 327 328
54 21 0 222 218 228 329 330 331 332 333 334 335
55 2 0 208 23 146
56 21 0 250 37 251 336 337 338 339 340 341 342
57 2 0 120 4 20
58 2 0 145 120 20
59 2 0 146 103 219
60 2 0 48 240 239
61 21 0 208 146 219 343 344 345 346 347 348 349
62 2 0 142 25 35
63 2 0 25 7 35
64 2 0 96 46 37
65 2 0 8 155 50
66 2 0 195 203 184
67 2 0 283 34 47
68 2 0 35 7 47
69 2 0 103 24 8
70 2 0 34 35 47
71 2 0 30 46 50
72 2 0 45 3 18
73 21 0 139 273 272 350 351 352 353 354 355 356
74 2 0 45 115 3
75 2 0 155 30 50
76 2 0 103 146 24
77 2 0 40 155 16
78 2 0 55 270 267
79 2 0 283 151 34
80 21 0 207 213 44 357 358 359 360 361 362 363
81 2 0 195 207 44
82 2 0 63 54 80
83 2 0 30 66 46
84 2 0 57 48 75
85 2 0 195 44 223
86 2 0 142 35 33
87 2 0 40 16 51
88 2 0 283 47 104
89 2 0 66 53 257
90 21 0 201 212 205 364 365 366 367 368 369 370
91 2 0 57 242 48
92 2 0 56 115 45
93 2 0 53 55 265
94 2 0 50 96 49
95 2 0 66 55 53
96 2 0 49 243 241
97 2 0 1 277 121
98 2 0 25 54 100
99 21 0 172 177 166 371 372 373 374 375 376 377
100 2 0 275 280 114
101 2 0 46 96 50
102 2 0 56 51 115
103 2 0 62 270 55
104 21 0 62 272 270 378 379 380 381 382 383 384
105 21 0 36 41 61 385 386 387 388 389 390 391
106 2 0 36 61 27
107 21 0 192 206 204 392 393 394 395 396 397 398
108 2 0 61 84 25
109 2 0 145 215 187
110 2 0 56 40 51
111 2 0 33 35 34
112 2 0 50 49 103
113 2 0 25 84 54
114 2 0 139 272 62
115 2 0 271 136 193
116 21 0 29 39 38 399 400 401 402 403 404 405
117 21 0 274 136 271 406 407 408 409 410 411 412
118 21 0 44 224 230 1484 1485 1486 1487 1488 1489 1490
119 2 0 30 155 285
120 2 0 46 74 253
121 2 0 8 50 103
122 2 0 63 80 69
123 2 0 139 62 285
124 2 0 100 64 67
125 21 0 38 39 65 413 414 415 416 417 418 419
126 2 0 48 244 59
127 21 0 91 90 169 420 421 422 423 424 425 426
128 2 0 30 285 62
129 2 0 30 62 55
130 2 0 117 278 2
131 2 0 30 55 66
132 2 0 123 280 275
133 2 0 46 66 74
134 21 0 271 193 262 427 428 429 430 431 432 433
135 2 0 84 41 42
136 21 0 240 233 239 434 435 436 437 438 439 440
137 21 0 85 82 99 441 442 443 444 445 446 447
138 2 0 103 49 232
139 2 0 112 279 276
140 21 0 250 251 75 448 449 450 451 452 453 454
141 21 0 52 84 42 455 456 457 458 459 460 461
142 21 0 242 240 48 462 463 464 465 466 467 468
143 21 0 83 73 79 469 470 471 472 473 474 475
144 2 0 75 74 57
145 2 0 111 31 154
146 21 0 239 244 48 476 477 478 479 480 481 482
147 2 0 250 75 59
148 2 0 49 96 246
149 21 0 57 255 242 483 484 485 486 487 488 489
150 2 0 67 69 71
151 2 0 48 59 75
152 21 0 96 248 246 490 491 492 493 494 495 496
153 2 0 80 54 52
154 2 0 57 74 255
155 21 0 80 52 82 497 498 499 500 501 502 503
156 2 0 67 60 69
157 2 0 96 37 250
158 2 0 251 252 75
159 2 0 74 66 255
160 2 0 247 248 59
161 2 0 60 63 69
162 21 0 64 70 60 504 505 506 507 508 509 510
163 21 0 219 103 232 511 512 513 514 515 516 517
164 2 0 253 74 75
165 21 0 230 235 44 1491 1492 1493 1494 1495 1496 1497
166 21 0 248 250 59 518 519 520 521 522 523 524
167 21 0 70 63 60 525 526 527 528 529 530 531
168 21 0 70 100 63 532 533 534 535 536 537 538
169 2 0 37 252 251
170 2 0 130 6 19
171 2 0 142 130 19
172 21 0 221 220 209 539 540 541 542 543 544 545
173 2 0 193 135 262
174 21 0 20 168 215 546 547 548 549 550 551 552
175 21 0 211 209 220 553 554 555 556 557 558 559
176 21 0 232 49 241 560 561 562 563 564 565 566
177 21 0 37 253 252 567 568 569 570 571 572 573
178 21 0 72 7 68 574 575 576 577 578 579 580
179 2 0 229 109 187
180 2 0 136 113 286
181 2 0 285 40 56
182 2 0 282 13 122
183 21 0 209 211 206 581 582 583 584 585 586 587
184 21 0 229 262 135 588 589 590 591 592 593 594
185 21 0 194 182 192 595 596 597 598 599 600 601
186 21 0 26 111 92 1505 1506 1507 1508 1509 1510 1511
187 2 0 229 135 109
188 21 0 192 204 194 602 603 604 605 606 607 608
189 2 0 139 45 18
190 2 0 136 274 18
191 2 0 147 122 5
192 2 0 147 5 23
193 21 0 22 19 9 609 610 611 612 613 614 615
194 2 0 145 20 215
195 21 0 163 156 165 616 617 618 619 620 621 622
196 21 0 208 199 23 1519 1520 1521 1522 1523 1524 1525
197 2 0 143 168 20
198 2 0 23 161 147
199 21 0 211 204 206 623 624 625 626 627 628 629
200 2 0 141 9 19
201 21 0 273 18 274 630 631 632 633 634 635 636
202 21 0 23 199 161 637 638 639 640 641 642 643
203 21 0 217 216 210 644 645 646 647 648 649 650
204 21 0 236 220 221 651 652 653 654 655 656 657
205 2 0 162 195 184
206 2 0 15 151 283
207 2 0 20 4 143
208 2 0 151 117 2
209 21 0 184 186 179 658 659 660 661 662 663 664
210 2 0 11 31 281
211 21 0 176 186 171 665 666 667 668 669 670 671
212 21 0 184 203 186 672 673 674 675 676 677 678
213 2 0 1 121 154
214 2 0 275 114 155
215 21 0 197 191 200 679 680 681 682 683 684 685
216 21 0 249 245 237 686 687 688 689 690 691 692
217 21 0 254 249 256 693 694 695 696 697 698 699
218 2 0 139 56 45
219 21 0 236 226 237 700 701 702 703 704 705 706
220 2 0 24 123 275
221 21 0 264 254 256 707 708 709 710 711 712 713
222 21 0 254 245 249 714 715 716 717 718 719 720
223 21 0 245 236 237 721 722 723 724 725 726 727
224 2 0 162 149 175
225 21 0 95 149 162 728 729 730 731 732 733 734
226 2 0 276 28 286
227 21 0 195 196 207 735 736 737 738 739 740 741
228 2 0 141 281 21
229 2 0 281 31 111
230 21 0 264 256 266 742 743 744 745 746 747 748
231 21 0 264 266 268 749 750 751 752 753 754 755
232 2 0 145 187 284
233 2 0 284 28 43
234 2 0 275 155 8
235 21 0 266 269 268 756 757 758 759 760 761 762
236 21 0 267 270 269 763 764 765 766 767 768 769
237 21 0 66 257 255 770 771 772 773 774 775 776
238 21 0 44 235 223 777 778 779 780 781 782 783
239 2 0 193 136 286
240 21 0 244 247 59 784 785 786 787 788 789 790
241 2 0 37 46 253
242 21 0 253 75 252 791 792 793 794 795 796 797
243 2 0 261 53 263
244 2 0 257 53 260
245 21 0 257 260 258 798 799 800 801 802 803 804
246 21 0 267 265 55 805 806 807 808 809 810 811
247 2 0 261 263 259
248 21 0 259 258 261 812 813 814 815 816 817 818
249 2 0 143 283 133
250 21 0 96 250 248 819 820 821 822 823 824 825
251 21 0 49 246 243 826 827 828 829 830 831 832
252 2 0 92 282 147
253 2 0 111 154 282
254 21 0 185 196 195 833 834 835 836 837 838 839
255 21 0 238 234 241 840 841 842 843 844 845 846
256 21 0 227 234 238 847 848 849 850 851 852 853
257 21 0 227 222 228 854 855 856 857 858 859 860
258 21 0 238 241 243 861 862 863 864 865 866 867
259 21 0 225 233 231 868 869 870 871 872 873 874
260 21 0 227 228 234 875 876 877 878 879 880 881
261 21 0 217 225 231 882 883 884 885 886 887 888
262 21 0 231 216 217 889 890 891 892 893 894 895
263 2 0 154 121 13
264 21 0 218 222 214 896 897 898 899 900 901 902
265 2 0 195 162 175
266 21 0 181 185 195 903 904 905 906 907 908 909
267 2 0 181 195 175
268 2 0 155 114 16
269 21 0 212 218 214 910 911 912 913 914 915 916
270 2 0 276 279 119
271 2 0 2 278 128
272 2 0 1 126 277
273 21 0 281 26 21 1512 1513 1514 1515 1516 1517 1518
274 21 0 205 212 214 917 918 919 920 921 922 923
275 21 0 205 198 201 924 925 926 927 928 929 930
276 21 0 187 215 229 931 932 933 934 935 936 937
277 2 0 284 187 109
278 2 0 41 84 61
279 21 0 202 200 216 938 939 940 941 942 943 944
280 21 0 198 188 190 945 946 947 948 949 950 951
281 21 0 202 197 200 952 953 954 955 956 957 958
282 21 0 198 190 201 959 960 961 962 963 964 965
283 2 0 193 286 135
284 21 0 200 210 216 966 967 968 969 970 971 972
285 21 0 213 224 44 973 974 975 976 977 978 979
286 21 0 195 223 203 980 981 982 983 984 985 986
287 21 0 183 170 189 987 988 989 990 991 992 993
288 21 0 189 191 197 994 995 996 997 998 999 1000
289 21 0 162 173 160 1001 1002 1003 1004 1005 1006 1007
290 21 0 162 160 134 1008 1009 1010 1011 1012 1013 1014
291 21 0 105 140 102 1015 1016 1017 1018 1019 1020 1021
292 21 0 137 140 105 1022 1023 1024 1025 1026 1027 1028
293 21 0 137 157 148 1029 1030 1031 1032 1033 1034 1035
294 21 0 140 137 148 1036 1037 1038 1039 1040 1041 1042
295 21 0 167 175 149 1043 1044 1045 1046 1047 1048 1049
296 21 0 191 189 170 1050 1051 1052 1053 1054 1055 1056
297 21 0 167 180 175 1057 1058 1059 1060 1061 1062 1063
298 21 0 170 180 167 1064 1065 1066 1067 1068 1069 1070
299 21 0 170 183 180 1071 1072 1073 1074 1075 1076 1077
300 21 0 158 172 166 1078 1079 1080 1081 1082 1083 1084
301 21 0 177 190 188 1085 1086 1087 1088 1089 1090 1091
302 21 0 172 190 177 1092 1093 1094 1095 1096 1097 1098
303 21 0 92 147 161 1533 1534 1535 1536 1537 1538 1539
304 21 0 157 158 166 1099 1100 1101 1102 1103 1104 1105
305 21 0 137 158 157 1106 1107 1108 1109 1110 1111 1112
306 2 0 92 111 282
307 21 0 9 141 21 1113 1114 1115 1116 1117 1118 1119
308 21 0 58 78 65 1120 1121 1122 1123 1124 1125 1126
309 21 0 88 89 102 1127 1128 1129 1130 1131 1132 1133
310 21 0 102 89 105 1134 1135 1136 1137 1138 1139 1140
311 21 0 88 78 76 1141 1142 1143 1144 1145 1146 1147
312 21 0 76 89 88 1148 1149 1150 1151 1152 1153 1154
313 21 0 78 58 76 1155 1156 1157 1158 1159 1160 1161
314 21 0 58 65 39 1162 1163 1164 1165 1166 1167 1168
315 2 0 22 142 19
316 21 0 27 142 22 1169 1170 1171 1172 1173 1174 1175
317 21 0 68 100 67 1176 1177 1178 1179 1180 1181 1182
318 2 0 69 80 82
319 21 0 32 27 29 1183 1184 1185 1186 1187 1188 1189
320 21 0 36 27 32 1190 1191 1192 1193 1194 1195 1196
321 21 0 97 99 82 1197 1198 1199 1200 1201 1202 1203
322 2 0 61 142 27
323 21 0 116 98 169 1204 1205 1206 1207 1208 1209 1210
324 21 0 38 32 29 1211 1212 1213 1214 1215 1216 1217
325 2 0 54 84 52
326 21 0 116 90 134 1218 1219 1220 1221 1222 1223 1224
327 21 0 169 98 91 1225 1226 1227 1228 1229 1230 1231
328 21 0 186 165 171 1232 1233 1234 1235 1236 1237 1238
329 2 0 169 90 116
330 21 0 176 179 186 1239 1240 1241 1242 1243 1244 1245
331 21 0 186 163 165 1246 1247 1248 1249 1250 1251 1252
332 21 0 129 163 150 1253 1254 1255 1256 1257 1258 1259
333 21 0 156 163 129 1260 1261 1262 1263 1264 1265 1266
334 21 0 108 129 150 1267 1268 1269 1270 1271 1272 1273
335 21 0 110 125 107 1274 1275 1276 1277 1278 1279 1280
336 21 0 131 108 150 1281 1282 1283 1284 1285 1286 1287
337 21 0 125 132 144 1288 1289 1290 1291 1292 1293 1294
338 21 0 174 164 182 1295 1296 1297 1298 1299 1300 1301
339 21 0 144 138 153 1302 1303 1304 1305 1306 1307 1308
340 21 0 174 182 194 1309 1310 1311 1312 1313 1314 1315
341 21 0 159 164 174 1316 1317 1318 1319 1320 1321 1322
342 21 0 144 132 138 1323 1324 1325 1326 1327 1328 1329
343 21 0 159 153 164 1330 1331 1332 1333 1334 1335 1336
344 21 0 168 143 152 1337 1338 1339 1340 1341 1342 1343
345 21 0 144 153 159 1344 1345 1346 1347 1348 1349 1350
346 21 0 152 143 133 1351 1352 1353 1354 1355 1356 1357
347 21 0 283 104 133 1358 1359 1360 1361 1362 1363 1364
348 21 0 106 97 131 1365 1366 1367 1368 1369 1370 1371
349 21 0 101 107 94 1372 1373 1374 1375 1376 1377 1378
350 21 0 110 107 101 1379 1380 1381 1382 1383 1384 1385
351 21 0 110 132 125 1386 1387 1388 1389 1390 1391 1392
352 21 0 97 108 131 1393 1394 1395 1396 1397 1398 1399
353 21 0 99 97 106 1400 1401 1402 1403 1404 1405 1406
354 21 0 86 81 93 1407 1408 1409 1410 1411 1412 1413
355 21 0 7 72 73 1414 1415 1416 1417 1418 1419 1420
356 21 0 77 71 69 1421 1422 1423 1424 1425 1426 1427
357 21 0 83 79 81 1428 1429 1430 1431 1432 1433 1434
358 2 0 83 7 73
359 21 0 64 100 70 1435 1436 1437 1438 1439 1440 1441
360 2 0 77 69 82
361 21 0 77 82 85 1498 1499 1500 1501 1502 1503 1504
362 21 0 86 83 81 1442 1443 1444 1445 1446 1447 1448
363 2 0 100 54 63
364 21 0 104 47 87 1449 1450 1451 1452 1453 1454 1455
365 21 0 47 83 87 1456 1457 1458 1459 1460 1461 1462
366 21 0 94 86 93 1463 1464 1465 1466 1467 1468 1469
367 2 0 68 7 100
368 2 0 284 43 14
369 2 0 64 60 67
370 21 0 53 261 260 1470 1471 1472 1473 1474 1475 1476
371 21 0 53 265 263 1477 1478 1479 1480 1481 1482 1483
372 2 0 285 155 40
$EndElements
